if (_typeface_js && _typeface_js.loadFace) _typeface_js.loadFace({"glyphs":{"0":{"ha":901,"x_min":60,"x_max":832,"o":"m 444 -12 q 629 29 555 -12 q 749 142 704 71 q 813 310 794 214 q 832 517 832 406 q 813 731 832 630 q 747 904 794 832 q 627 1010 700 975 q 446 1044 555 1044 q 264 1001 330 1044 q 155 896 198 958 q 85 732 111 834 q 60 513 60 630 q 79 307 60 403 q 142 140 98 212 q 260 28 186 69 q 444 -12 334 -12 m 444 109 q 316 141 365 109 q 242 229 268 173 q 207 358 216 284 q 199 517 199 433 q 212 681 199 597 q 248 812 225 764 q 318 894 271 860 q 446 928 365 928 q 572 894 524 928 q 648 803 621 860 q 685 672 675 746 q 694 517 694 597 q 682 358 694 433 q 645 229 670 284 q 572 141 621 173 q 444 109 524 109 "},"1":{"ha":582,"x_min":56,"x_max":497,"o":"m 164 117 l 164 0 l 497 0 l 497 117 l 396 117 l 396 1057 l 342 1057 l 56 897 l 56 755 l 264 869 l 264 117 l 164 117 "},"2":{"ha":746,"x_min":58,"x_max":664,"o":"m 60 100 l 60 0 l 663 0 l 663 119 l 224 119 l 545 501 q 602 578 579 543 q 638 646 625 614 q 658 705 652 677 q 664 757 664 732 q 642 871 664 819 q 580 963 620 924 q 484 1024 540 1002 q 358 1046 427 1046 q 244 1024 298 1046 q 149 962 190 1002 q 83 868 108 922 q 58 749 59 813 l 180 749 q 196 823 182 791 q 235 877 211 855 q 290 910 258 899 q 357 921 321 921 q 429 908 396 921 q 486 873 462 895 q 523 821 509 850 q 536 757 536 791 q 525 694 536 724 q 497 636 514 664 q 459 583 479 608 q 421 536 439 558 l 60 100 "},"3":{"ha":753,"x_min":28,"x_max":669,"o":"m 529 760 q 516 693 529 724 q 478 640 503 663 q 418 603 454 616 q 338 590 382 590 l 290 590 l 290 488 l 349 488 q 423 474 388 488 q 484 437 458 461 q 526 378 511 413 q 542 301 542 344 q 526 226 542 260 q 485 166 511 192 q 426 127 459 141 q 357 113 392 113 q 228 149 279 113 q 158 248 178 184 l 28 248 q 52 160 32 204 q 115 75 73 116 q 219 13 158 35 q 343 -9 281 -9 q 470 14 411 -9 q 574 79 530 37 q 644 177 618 120 q 669 300 669 233 q 657 385 669 346 q 624 454 645 423 q 575 506 603 484 q 515 541 547 528 q 581 585 553 559 q 625 639 608 610 q 650 701 642 669 q 659 766 659 734 q 636 870 659 819 q 571 961 613 921 q 471 1024 530 1000 q 339 1048 412 1048 q 227 1027 281 1048 q 134 970 174 1006 q 67 887 94 935 q 38 781 41 840 l 167 781 q 202 865 170 827 q 268 917 235 903 q 340 930 300 930 q 424 914 389 930 q 483 872 460 897 q 518 816 507 846 q 529 760 529 786 "},"4":{"ha":848,"x_min":61,"x_max":774,"o":"m 62 404 l 61 297 l 488 297 l 488 117 l 389 117 l 389 0 l 722 0 l 722 117 l 621 117 l 621 297 l 774 297 l 774 414 l 621 414 l 621 593 l 488 583 l 488 414 l 224 414 l 572 1028 l 428 1028 l 62 404 "},"5":{"ha":772,"x_min":50,"x_max":730,"o":"m 215 606 l 215 916 l 682 916 l 682 1028 l 103 1028 l 103 490 l 203 475 q 279 527 233 507 q 379 546 325 546 q 469 529 427 546 q 542 481 511 511 q 591 410 573 451 q 608 321 608 369 q 591 232 608 273 q 542 159 573 190 q 470 110 511 127 q 379 92 428 92 q 306 103 340 92 q 243 137 271 115 q 193 188 214 158 q 161 252 172 217 l 50 196 q 99 109 68 149 q 172 40 130 68 q 267 -5 214 11 q 379 -21 319 -21 q 523 6 458 -21 q 634 81 588 34 q 705 190 680 127 q 730 321 730 252 q 705 451 730 389 q 634 558 680 512 q 524 631 588 604 q 385 659 460 659 q 293 645 333 659 q 215 606 253 632 "},"6":{"ha":847,"x_min":64,"x_max":781,"o":"m 553 1028 l 395 1028 l 143 571 q 86 449 109 507 q 64 331 64 391 q 93 190 64 254 q 172 82 123 127 q 286 12 222 37 q 419 -14 350 -14 q 558 11 492 -14 q 673 81 623 35 q 751 194 722 127 q 781 347 781 261 q 753 476 781 418 q 681 577 726 535 q 578 643 636 620 q 457 667 519 667 q 397 664 431 667 q 322 644 363 661 l 553 1028 m 404 555 q 500 541 454 555 q 579 498 545 527 q 634 428 614 470 q 654 330 654 385 q 635 238 654 279 q 585 167 616 197 q 511 121 553 137 q 422 104 469 104 q 331 120 373 104 q 257 164 288 135 q 208 235 226 193 q 191 330 191 277 q 208 428 191 385 q 256 497 226 470 q 321 540 287 525 q 404 555 355 555 "},"7":{"ha":730,"x_min":28,"x_max":703,"o":"m 123 117 l 123 0 l 424 0 l 424 117 l 338 117 q 420 327 375 220 q 512 537 465 433 q 609 740 560 641 q 703 926 658 838 l 703 1028 l 28 1028 l 28 818 l 158 818 l 158 897 l 543 897 q 463 731 507 823 q 373 538 418 640 q 283 329 328 436 q 203 117 239 221 l 123 117 "},"8":{"ha":865,"x_min":94,"x_max":754,"o":"m 428 1047 q 315 1026 368 1047 q 223 968 262 1005 q 161 883 184 932 q 139 778 139 833 q 169 656 139 712 q 251 563 199 600 q 187 514 216 543 q 137 453 158 486 q 105 380 117 419 q 94 300 94 341 q 120 179 94 235 q 191 80 146 123 q 296 14 236 38 q 425 -11 357 -11 q 553 14 493 -11 q 657 80 612 38 q 728 179 702 123 q 754 300 754 235 q 743 380 754 341 q 711 452 732 418 q 663 514 691 486 q 600 562 634 542 q 683 655 652 599 q 714 778 714 711 q 691 883 714 833 q 629 968 669 932 q 538 1026 590 1005 q 428 1047 486 1047 m 218 302 q 235 377 218 342 q 279 439 251 412 q 345 480 307 465 q 425 496 382 496 q 505 480 467 496 q 570 439 542 465 q 614 377 598 412 q 631 302 631 342 q 614 227 631 262 q 570 165 598 191 q 505 123 542 138 q 425 107 467 107 q 345 123 382 107 q 279 165 307 138 q 235 227 251 191 q 218 302 218 262 m 256 775 q 269 838 256 808 q 304 889 281 867 q 359 924 328 911 q 428 937 391 937 q 493 924 463 937 q 547 889 524 911 q 584 838 570 867 q 597 775 597 808 q 584 712 597 741 q 547 660 570 682 q 493 625 524 638 q 428 612 463 612 q 359 625 391 612 q 304 660 328 638 q 269 712 281 682 q 256 775 256 741 "},"9":{"ha":861,"x_min":70,"x_max":787,"o":"m 292 0 l 450 0 l 707 460 q 764 583 741 524 q 787 701 787 641 q 759 841 787 778 q 681 950 730 905 q 568 1021 631 996 q 431 1045 505 1045 q 293 1021 358 1045 q 178 951 227 997 q 99 838 128 905 q 70 684 70 770 q 99 558 70 621 q 174 454 129 496 q 283 388 219 412 q 407 365 347 365 q 467 370 439 365 q 528 388 494 374 l 292 0 m 428 927 q 520 912 477 927 q 593 868 562 897 q 642 797 625 839 q 660 702 660 755 q 642 604 660 646 q 594 534 625 562 q 529 491 564 507 q 433 476 495 476 q 348 490 390 476 q 271 533 305 505 q 216 604 237 562 q 196 702 196 646 q 215 793 196 752 q 266 865 234 835 q 340 911 298 895 q 428 927 382 927 "}," ":{"ha":304,"x_min":0,"x_max":0,"o":""},"!":{"ha":463,"x_min":143,"x_max":319,"o":"m 143 82 q 150 47 143 64 q 169 19 157 31 q 197 -1 181 6 q 232 -8 214 -8 q 266 -1 250 -8 q 293 19 281 6 q 312 47 305 31 q 319 82 319 64 q 312 116 319 100 q 293 143 305 132 q 266 162 281 155 q 232 170 250 170 q 197 162 214 170 q 169 143 181 155 q 150 116 157 132 q 143 82 143 100 m 143 1069 l 171 278 l 292 278 l 319 1069 l 143 1069 "},"'":{"ha":231,"x_min":25,"x_max":159,"o":"m 126 718 l 159 1080 l 25 1069 l 25 718 l 126 718 "},"\"":{"ha":441,"x_min":28,"x_max":431,"o":"m 170 718 l 182 1069 l 28 1069 l 56 718 l 170 718 m 399 718 l 431 1069 l 275 1069 l 284 718 l 399 718 "},"#":{"ha":965,"x_min":14,"x_max":937,"o":"m 115 812 l 87 677 l 259 677 l 203 396 l 41 396 l 14 264 l 177 264 l 125 0 l 258 0 l 309 264 l 547 264 l 496 0 l 627 0 l 677 264 l 840 264 l 865 396 l 703 396 l 758 677 l 911 677 l 937 812 l 785 812 l 827 1028 l 697 1028 l 654 812 l 416 812 l 458 1028 l 329 1028 l 286 812 l 115 812 m 335 396 l 390 677 l 628 677 l 573 396 l 335 396 "},"%":{"ha":1174,"x_min":51,"x_max":1102,"o":"m 51 791 q 67 705 51 745 q 114 633 84 664 q 187 584 144 602 q 283 566 230 566 q 378 584 335 566 q 451 633 420 602 q 498 705 481 664 q 515 791 515 745 q 497 878 515 837 q 450 950 480 919 q 376 999 419 981 q 283 1017 334 1017 q 189 999 232 1017 q 116 950 146 981 q 68 878 85 919 q 51 791 51 837 m 283 905 q 328 897 307 905 q 364 873 349 888 q 389 837 380 858 q 398 791 398 816 q 389 746 398 767 q 364 709 380 724 q 328 684 349 693 q 283 675 307 675 q 237 684 258 675 q 200 709 216 693 q 175 746 184 725 q 165 791 165 768 q 175 837 165 816 q 200 873 184 858 q 237 897 216 888 q 283 905 258 905 m 849 1044 l 144 -11 l 275 -11 l 981 1044 l 849 1044 m 638 219 q 655 132 638 173 q 702 60 671 91 q 774 11 732 29 q 870 -7 817 -7 q 966 11 923 -7 q 1039 60 1008 29 q 1085 132 1069 91 q 1102 219 1102 173 q 1085 305 1102 264 q 1037 377 1068 346 q 964 426 1006 408 q 870 444 921 444 q 777 426 819 444 q 703 377 734 408 q 655 305 672 346 q 638 219 638 264 m 870 333 q 915 324 894 333 q 951 300 936 315 q 976 264 967 285 q 985 219 985 243 q 976 173 985 195 q 951 136 967 152 q 915 112 936 121 q 870 102 894 102 q 825 112 846 102 q 788 137 804 121 q 763 174 772 153 q 753 219 753 195 q 763 264 753 243 q 788 300 772 285 q 825 324 804 315 q 870 333 846 333 "},"‰":{"ha":1654,"x_min":52,"x_max":1619,"o":"m 52 791 l 52 791 q 68 705 52 746 q 115 633 85 664 q 188 584 144 602 q 283 566 231 566 q 379 584 336 566 q 452 633 422 602 q 499 705 482 664 q 515 791 515 746 q 498 878 515 838 q 450 949 481 918 q 377 999 419 981 q 283 1017 335 1017 q 190 999 232 1017 q 117 949 147 981 q 69 878 86 918 q 52 791 52 838 m 283 905 l 283 905 q 365 873 332 905 q 399 791 399 840 q 390 746 399 766 q 365 709 380 725 q 328 684 349 693 q 283 675 307 675 q 201 709 235 675 q 167 791 167 743 q 201 873 167 840 q 283 905 235 905 m 850 1044 l 144 -11 l 277 -11 l 982 1044 l 850 1044 m 1156 221 l 1156 221 q 1172 134 1156 175 q 1219 62 1189 93 q 1292 13 1249 31 q 1388 -5 1335 -5 q 1483 13 1440 -5 q 1556 62 1527 31 q 1603 134 1586 93 q 1619 221 1619 175 q 1602 307 1619 267 q 1554 378 1585 347 q 1481 428 1524 410 q 1388 446 1439 446 q 1294 428 1336 446 q 1221 378 1251 410 q 1173 307 1190 347 q 1156 221 1156 267 m 1388 335 l 1388 335 q 1470 302 1436 335 q 1503 221 1503 269 q 1494 175 1503 196 q 1469 138 1485 154 q 1432 113 1453 122 q 1388 104 1411 104 q 1305 138 1339 104 q 1271 221 1271 172 q 1305 302 1271 269 q 1388 335 1339 335 m 639 221 l 639 221 q 655 134 639 175 q 702 62 672 93 q 775 13 732 31 q 871 -5 818 -5 q 967 13 924 -5 q 1040 62 1010 31 q 1086 134 1069 93 q 1103 221 1103 175 q 1085 307 1103 267 q 1038 378 1068 347 q 965 428 1007 410 q 871 446 922 446 q 777 428 819 446 q 704 378 734 410 q 656 307 673 347 q 639 221 639 267 m 871 335 l 871 335 q 953 302 920 335 q 986 221 986 269 q 977 175 986 196 q 952 138 968 154 q 915 113 936 122 q 871 104 895 104 q 788 138 822 104 q 754 221 754 172 q 788 302 754 269 q 871 335 822 335 "},"&":{"ha":996,"x_min":97,"x_max":968,"o":"m 873 -4 l 968 78 l 781 252 q 841 386 817 317 q 876 518 865 454 l 749 518 q 728 430 741 479 q 693 332 715 382 l 486 526 q 536 552 511 538 q 584 583 560 566 q 628 620 607 600 q 663 665 648 640 q 686 720 678 689 q 694 791 694 751 q 673 889 694 842 q 616 971 652 936 q 529 1027 579 1006 q 419 1048 478 1048 q 315 1028 363 1048 q 230 974 266 1008 q 172 892 193 939 q 151 791 151 846 q 159 739 151 766 q 179 688 167 713 q 209 643 192 664 q 243 606 225 622 l 288 562 q 196 503 225 530 q 144 442 166 476 q 110 369 122 408 q 97 289 97 330 q 121 171 97 226 q 188 77 146 117 q 288 14 231 37 q 411 -9 345 -9 q 501 2 458 -9 q 581 36 543 14 q 652 86 618 57 q 713 151 685 115 l 873 -4 m 321 452 l 376 477 l 633 228 q 591 180 614 202 q 541 142 568 158 q 483 117 514 126 q 416 109 452 109 q 339 122 375 109 q 276 161 302 136 q 234 219 249 185 q 218 292 218 252 q 226 341 218 317 q 247 388 233 366 q 279 426 260 409 q 321 452 298 442 m 532 696 q 469 648 505 669 q 394 610 434 628 l 334 667 q 283 733 297 701 q 269 793 269 764 q 280 849 269 823 q 311 895 291 876 q 358 926 330 915 q 419 937 385 937 q 478 925 450 937 q 528 893 507 913 q 561 846 549 873 q 574 791 574 820 q 562 740 574 764 q 532 696 549 715 "},"(":{"ha":489,"x_min":96,"x_max":453,"o":"m 359 -306 l 453 -231 q 358 -88 399 -163 q 288 67 316 -13 q 244 232 259 148 q 229 400 229 315 q 244 569 229 485 q 288 732 259 652 q 358 888 316 812 q 453 1031 399 963 l 359 1105 q 250 946 298 1029 q 166 773 201 862 q 114 590 132 684 q 96 400 96 496 q 114 210 96 304 q 166 27 132 116 q 250 -146 201 -62 q 359 -306 298 -230 "},")":{"ha":489,"x_min":36,"x_max":393,"o":"m 36 -231 l 129 -306 q 239 -146 190 -230 q 322 27 288 -62 q 375 210 357 116 q 393 400 393 304 q 375 590 393 496 q 322 773 357 684 q 239 946 288 862 q 129 1105 190 1029 l 36 1031 q 131 888 90 963 q 201 732 173 812 q 245 569 230 652 q 260 400 260 485 q 245 232 260 315 q 201 67 230 148 q 131 -88 173 -13 q 36 -231 90 -163 "},"*":{"ha":567,"x_min":40,"x_max":521,"o":"m 328 878 l 328 1048 l 237 1048 l 237 882 l 66 937 l 40 852 l 215 797 l 110 653 l 183 606 l 283 744 l 385 604 l 458 653 l 352 798 l 521 852 l 496 933 l 328 878 "},",":{"ha":386,"x_min":14,"x_max":288,"o":"m 139 192 l 14 -195 l 111 -231 l 288 134 l 139 192 "},"-":{"ha":500,"x_min":64,"x_max":437,"o":"m 64 336 l 437 336 l 437 453 l 64 453 l 64 336 "},".":{"ha":310,"x_min":65,"x_max":241,"o":"m 65 82 q 72 47 65 64 q 92 19 79 31 q 120 -1 104 6 q 154 -8 136 -8 q 188 -1 172 -8 q 215 19 203 6 q 234 47 227 31 q 241 82 241 64 q 234 116 241 100 q 215 143 227 132 q 188 162 203 155 q 154 170 172 170 q 120 162 136 170 q 92 143 104 155 q 72 116 79 132 q 65 82 65 100 "},"/":{"ha":575,"x_min":25,"x_max":550,"o":"m 432 1064 l 25 -20 l 143 -20 l 550 1064 l 432 1064 "},":":{"ha":355,"x_min":65,"x_max":241,"o":"m 65 615 q 72 581 65 597 q 92 552 79 564 q 120 532 104 540 q 154 525 136 525 q 188 532 172 525 q 215 552 203 540 q 234 581 227 564 q 241 615 241 597 q 234 649 241 633 q 215 676 227 665 q 188 695 203 688 q 154 703 172 703 q 120 695 136 703 q 92 676 104 688 q 72 649 79 665 q 65 615 65 633 m 65 82 q 72 47 65 64 q 92 19 79 31 q 120 -1 104 6 q 154 -8 136 -8 q 188 -1 172 -8 q 215 19 203 6 q 234 47 227 31 q 241 82 241 64 q 234 116 241 100 q 215 143 227 132 q 188 162 203 155 q 154 170 172 170 q 120 162 136 170 q 92 143 104 155 q 72 116 79 132 q 65 82 65 100 "},";":{"ha":355,"x_min":-14,"x_max":260,"o":"m 65 615 q 72 581 65 597 q 92 552 79 564 q 120 532 104 540 q 154 525 136 525 q 188 532 172 525 q 215 552 203 540 q 234 581 227 564 q 241 615 241 597 q 234 649 241 633 q 215 676 227 665 q 188 695 203 688 q 154 703 172 703 q 120 695 136 703 q 92 676 104 688 q 72 649 79 665 q 65 615 65 633 m 111 192 l -14 -195 l 83 -231 l 260 134 l 111 192 "},"<":{"ha":679,"x_min":7,"x_max":578,"o":"m 7 516 l 7 410 l 578 125 l 578 250 l 119 464 l 578 677 l 578 803 l 7 516 "},"=":{"ha":625,"x_min":58,"x_max":567,"o":"m 58 302 l 58 207 l 567 207 l 567 302 l 58 302 m 58 532 l 58 436 l 567 436 l 567 532 l 58 532 "},">":{"ha":778,"x_min":111,"x_max":683,"o":"m 683 410 l 683 516 l 111 803 l 111 677 l 571 464 l 111 250 l 111 125 l 683 410 "},"?":{"ha":722,"x_min":82,"x_max":675,"o":"m 229 82 q 236 47 229 64 q 255 19 243 31 q 283 -1 267 6 q 318 -8 300 -8 q 352 -1 336 -8 q 379 19 368 6 q 398 47 391 31 q 406 82 406 64 q 398 116 406 100 q 379 143 391 132 q 352 162 368 155 q 318 170 336 170 q 283 162 300 170 q 255 143 267 155 q 236 116 243 132 q 229 82 229 100 m 258 228 l 380 228 q 383 314 380 279 q 403 401 386 349 q 461 488 420 453 q 534 546 503 524 q 640 653 604 595 q 675 781 675 711 q 656 883 675 834 q 602 970 638 932 q 514 1029 566 1007 q 393 1052 461 1052 q 271 1029 326 1052 q 174 968 215 1006 q 110 879 134 930 q 82 771 85 828 l 201 763 q 211 814 201 784 q 243 870 220 844 q 302 916 265 897 q 393 935 338 935 q 453 922 425 935 q 502 886 481 908 q 535 836 523 864 q 547 777 547 807 q 536 716 547 741 q 503 670 524 692 q 453 627 482 649 q 387 574 423 604 q 322 509 347 540 q 283 438 297 479 q 263 348 269 397 q 258 228 258 298 "},"@":{"ha":1567,"x_min":98,"x_max":1455,"o":"m 1078 648 l 953 648 l 953 592 q 869 631 914 617 q 774 644 823 644 q 646 619 705 644 q 543 550 587 593 q 474 449 499 507 q 449 325 449 391 q 473 201 449 258 q 541 100 497 143 q 643 32 584 56 q 774 7 703 7 q 889 26 836 7 q 985 81 943 46 q 1051 12 1009 39 q 1156 -16 1093 -16 q 1244 0 1203 -16 q 1318 44 1284 16 q 1377 109 1352 71 q 1420 189 1402 146 q 1447 278 1438 231 q 1455 371 1455 325 q 1431 539 1455 458 q 1363 691 1407 620 q 1258 821 1320 762 q 1121 922 1196 880 q 959 988 1046 964 q 777 1011 871 1011 q 596 987 683 1011 q 434 919 509 963 q 297 813 359 875 q 191 676 235 751 q 122 514 146 601 q 98 335 98 428 q 122 155 98 241 q 191 -7 146 68 q 297 -145 235 -83 q 434 -251 359 -207 q 596 -319 509 -295 q 777 -343 683 -343 q 961 -318 873 -343 q 1126 -245 1050 -292 l 1063 -139 q 927 -198 1000 -177 q 777 -218 854 -218 q 629 -199 700 -218 q 497 -143 558 -179 q 385 -57 435 -107 q 299 55 334 -7 q 243 188 263 117 q 224 335 224 258 q 243 481 224 411 q 299 613 263 552 q 385 725 334 675 q 497 811 435 775 q 629 867 558 847 q 777 886 700 886 q 925 867 854 886 q 1058 814 996 848 q 1170 732 1120 780 q 1256 627 1220 684 q 1311 505 1291 570 q 1331 371 1331 440 q 1323 269 1331 310 q 1295 189 1315 228 q 1242 123 1276 151 q 1159 96 1209 96 q 1118 105 1134 96 q 1089 136 1101 115 q 1078 199 1078 157 l 1078 648 m 774 132 q 691 148 728 132 q 628 189 654 163 q 588 250 602 215 q 574 325 574 285 q 589 400 574 364 q 630 462 604 435 q 694 504 657 488 q 774 519 730 519 q 832 511 804 519 q 882 489 859 503 q 923 454 905 474 q 953 410 941 433 l 953 238 q 884 162 930 191 q 774 132 838 132 "},"A":{"ha":1046,"x_min":7,"x_max":1039,"o":"m 705 117 l 705 0 l 1039 0 l 1039 117 l 936 117 l 616 1028 l 416 1028 l 96 117 l 7 117 l 7 0 l 340 0 l 340 117 l 235 117 l 314 350 l 709 350 l 791 117 l 705 117 m 353 463 l 510 922 l 670 463 l 353 463 "},"B":{"ha":917,"x_min":97,"x_max":865,"o":"m 97 117 l 97 0 l 566 0 q 683 24 628 0 q 778 89 737 47 q 842 186 819 130 q 865 306 865 241 q 855 370 865 338 q 825 429 844 401 q 779 480 806 456 q 719 521 752 503 q 823 608 787 553 q 860 728 860 662 q 837 846 860 791 q 772 941 813 901 q 677 1005 732 981 q 559 1028 622 1028 l 97 1029 l 97 911 l 195 911 l 195 117 l 97 117 m 328 457 l 567 457 q 627 444 599 457 q 676 410 655 431 q 709 360 696 388 q 721 302 721 332 q 709 235 721 268 q 676 175 697 201 q 627 133 655 149 q 567 117 600 117 l 328 117 l 328 457 m 328 911 l 561 911 q 621 895 593 911 q 670 854 649 880 q 703 797 691 829 q 715 732 715 765 q 703 673 715 701 q 670 623 691 644 q 622 588 650 601 q 561 575 593 575 l 328 575 l 328 911 "},"C":{"ha":1019,"x_min":49,"x_max":981,"o":"m 827 757 l 972 757 l 972 878 l 901 878 q 818 958 866 921 q 702 1022 770 995 q 539 1048 633 1048 q 343 1007 433 1048 q 187 893 252 965 q 85 723 121 821 q 49 515 49 625 q 85 306 49 406 q 190 132 121 205 q 347 19 259 59 q 541 -20 435 -20 q 741 21 650 -20 q 893 131 831 63 q 981 273 955 199 l 861 329 q 726 158 805 210 q 539 106 646 106 q 397 139 460 106 q 289 221 334 172 q 214 345 243 271 q 186 515 186 419 q 212 670 186 597 q 284 800 237 744 q 395 889 330 856 q 539 922 460 922 q 706 878 631 922 q 827 757 781 834 "},"D":{"ha":1031,"x_min":97,"x_max":974,"o":"m 97 1028 l 97 911 l 195 911 l 195 117 l 97 117 l 97 0 l 479 0 q 614 18 550 0 q 732 70 677 37 q 832 151 787 104 q 908 256 877 198 q 957 379 940 313 q 974 517 974 445 q 957 653 974 587 q 908 775 940 718 q 832 879 877 832 q 732 958 787 925 q 614 1010 677 991 q 479 1028 550 1028 l 97 1028 m 328 911 l 488 911 q 622 880 559 911 q 731 797 684 850 q 805 671 778 743 q 832 517 832 600 q 805 360 832 433 q 731 233 778 287 q 622 148 684 179 q 488 117 559 117 l 328 117 l 328 911 "},"E":{"ha":872,"x_min":97,"x_max":833,"o":"m 97 1028 l 97 911 l 195 911 l 195 117 l 97 117 l 97 0 l 833 0 l 833 290 l 694 290 l 694 117 l 328 117 l 328 465 l 636 465 l 636 582 l 328 582 l 328 911 l 694 911 l 694 737 l 833 737 l 833 1028 l 97 1028 "},"F":{"ha":846,"x_min":97,"x_max":833,"o":"m 97 1028 l 97 911 l 195 911 l 195 117 l 97 117 l 97 0 l 431 0 l 431 117 l 328 117 l 328 467 l 681 467 l 681 581 l 328 581 l 328 911 l 694 911 l 694 737 l 833 737 l 833 1028 l 97 1028 "},"G":{"ha":1137,"x_min":49,"x_max":1017,"o":"m 890 -4 l 1017 -4 l 1017 489 l 582 489 l 582 372 l 869 372 q 753 175 836 238 q 539 111 669 111 q 396 143 460 111 q 287 222 331 174 q 214 348 243 271 q 186 515 186 425 q 212 670 186 597 q 284 800 237 743 q 395 889 330 856 q 538 922 460 922 q 706 879 631 924 q 827 757 781 834 l 972 757 l 972 878 l 907 878 q 827 953 877 913 q 707 1021 777 993 q 539 1048 637 1048 q 343 1007 433 1048 q 187 893 252 966 q 85 723 121 821 q 49 515 49 625 q 85 306 49 406 q 190 132 121 205 q 344 25 259 59 q 529 -8 429 -8 q 638 5 585 -8 q 740 43 692 18 q 826 109 787 69 q 890 202 865 149 l 890 -4 "},"H":{"ha":1250,"x_min":97,"x_max":1153,"o":"m 819 1028 l 819 911 l 922 911 l 922 600 l 328 600 l 328 911 l 431 911 l 431 1028 l 97 1028 l 97 911 l 195 911 l 195 117 l 97 117 l 97 0 l 431 0 l 431 117 l 328 117 l 328 486 l 922 486 l 922 117 l 819 117 l 819 0 l 1153 0 l 1153 117 l 1055 117 l 1055 911 l 1153 911 l 1153 1028 l 819 1028 "},"I":{"ha":522,"x_min":97,"x_max":425,"o":"m 97 1028 l 97 911 l 195 911 l 195 117 l 97 117 l 97 0 l 425 0 l 425 117 l 328 117 l 328 911 l 425 911 l 425 1028 l 97 1028 "},"J":{"ha":454,"x_min":59,"x_max":425,"o":"m 92 1028 l 92 911 l 203 911 l 203 139 q 197 105 203 125 q 180 62 191 85 q 157 14 170 39 q 131 -35 144 -11 q 59 -151 99 -90 l 176 -161 q 257 -52 221 -104 q 287 -6 272 -30 q 313 39 302 17 q 331 82 324 62 q 338 117 338 102 l 338 911 l 425 911 l 425 1028 l 92 1028 "},"K":{"ha":1060,"x_min":97,"x_max":1014,"o":"m 778 911 l 329 525 l 737 117 l 737 0 l 1014 0 l 1014 117 l 904 117 l 483 532 l 933 911 l 1014 911 l 1014 1028 l 778 1028 l 778 911 m 98 1028 l 98 911 l 195 911 l 195 117 l 97 117 l 97 0 l 431 0 l 431 117 l 328 117 l 328 911 l 432 911 l 432 1028 l 98 1028 "},"L":{"ha":879,"x_min":97,"x_max":872,"o":"m 97 1028 l 97 911 l 195 911 l 195 117 l 97 117 l 97 0 l 872 0 l 872 304 l 743 304 l 743 175 q 738 154 743 164 q 724 135 732 143 q 704 122 715 127 q 682 117 693 117 l 328 117 l 328 911 l 431 911 l 431 1028 l 97 1028 "},"M":{"ha":1475,"x_min":97,"x_max":1388,"o":"m 97 117 l 97 0 l 431 0 l 431 117 l 325 117 l 325 908 l 689 0 l 804 0 l 1164 906 l 1164 117 l 1054 117 l 1054 0 l 1388 0 l 1388 117 l 1291 117 l 1291 899 l 1388 899 l 1388 1028 l 1079 1028 l 749 140 l 422 1028 l 97 1028 l 97 899 l 195 899 l 195 117 l 97 117 "},"N":{"ha":1101,"x_min":97,"x_max":1067,"o":"m 733 1028 l 733 911 l 848 911 l 848 218 l 843 185 l 374 1029 l 97 1029 l 97 911 l 195 911 l 195 117 l 100 117 l 100 0 l 433 0 l 433 117 l 328 117 l 328 852 l 806 0 l 979 0 l 979 911 l 1067 911 l 1067 1028 l 733 1028 "},"O":{"ha":1086,"x_min":49,"x_max":1035,"o":"m 542 -20 q 741 21 650 -20 q 897 136 831 63 q 999 306 962 208 q 1035 514 1035 403 q 999 723 1035 625 q 898 893 963 821 q 742 1007 833 965 q 542 1048 651 1048 q 343 1007 433 1048 q 187 893 252 965 q 85 723 121 821 q 49 514 49 625 q 85 306 49 406 q 190 132 121 205 q 347 19 259 59 q 542 -20 435 -20 m 542 106 q 398 139 461 106 q 289 221 334 172 q 215 345 243 271 q 187 514 187 419 q 212 670 187 595 q 283 800 237 744 q 395 889 330 856 q 542 922 461 922 q 677 893 612 922 q 792 809 743 863 q 868 676 841 755 q 896 514 896 598 q 871 358 896 432 q 800 228 846 284 q 688 139 753 172 q 542 106 623 106 "},"P":{"ha":863,"x_min":97,"x_max":829,"o":"m 97 1028 l 97 911 l 195 911 l 195 117 l 97 117 l 97 0 l 431 0 l 431 117 l 328 117 l 328 476 l 510 476 q 641 498 582 476 q 741 557 699 519 q 806 644 783 594 q 829 750 829 694 q 806 870 829 818 q 740 957 783 922 q 640 1010 698 992 q 513 1028 582 1028 l 97 1028 m 328 911 l 496 911 q 643 868 597 911 q 689 750 689 826 q 676 680 689 710 q 639 629 663 649 q 584 598 616 608 q 513 587 551 587 l 328 587 l 328 911 "},"Q":{"ha":1083,"x_min":49,"x_max":1035,"o":"m 473 -16 l 473 -138 q 530 -129 503 -129 q 627 -156 576 -129 q 723 -202 677 -183 q 821 -221 768 -221 q 887 -212 853 -221 q 950 -183 921 -202 q 1002 -135 980 -163 q 1032 -68 1024 -106 l 929 -21 q 889 -80 920 -61 q 821 -100 859 -100 q 741 -80 781 -100 q 674 -44 701 -60 q 604 -17 648 -28 q 779 41 699 -5 q 915 158 858 87 q 1003 320 972 229 q 1035 514 1035 411 q 999 723 1035 625 q 898 893 963 821 q 742 1007 833 965 q 542 1048 651 1048 q 343 1007 433 1048 q 187 893 252 965 q 85 723 121 821 q 49 514 49 625 q 79 321 49 412 q 166 160 110 231 q 300 43 222 89 q 473 -16 378 -3 m 542 106 q 400 139 468 106 q 288 222 333 172 q 215 347 242 272 q 187 514 187 421 q 212 670 187 595 q 283 800 237 744 q 395 889 330 856 q 542 922 461 922 q 679 893 616 922 q 791 808 742 863 q 868 676 841 753 q 896 514 896 598 q 871 358 896 432 q 800 228 846 284 q 688 139 753 172 q 542 106 623 106 "},"R":{"ha":993,"x_min":97,"x_max":918,"o":"m 97 1028 l 97 911 l 195 911 l 195 117 l 97 117 l 97 0 l 431 0 l 431 117 l 328 117 l 328 476 l 460 476 q 577 436 534 476 q 642 313 621 397 l 718 0 l 918 0 l 917 129 l 828 129 l 771 353 q 751 407 764 382 q 723 453 739 433 q 691 487 708 473 q 656 508 673 500 q 730 547 696 522 q 789 604 764 572 q 828 674 814 636 q 842 750 842 711 q 818 870 842 818 q 752 957 794 922 q 651 1010 709 992 q 525 1028 593 1028 l 97 1028 m 328 911 l 509 911 q 655 868 609 911 q 701 749 701 825 q 688 679 701 709 q 651 628 675 648 q 596 597 628 608 q 525 587 564 587 l 328 587 l 328 911 "},"S":{"ha":821,"x_min":54,"x_max":790,"o":"m 624 749 l 790 749 l 790 865 l 739 865 q 691 938 720 905 q 624 994 662 970 q 540 1030 587 1017 q 439 1043 494 1043 q 291 1021 355 1043 q 181 960 226 999 q 113 870 136 922 q 90 760 90 819 q 106 657 90 701 q 150 579 121 612 q 219 523 179 546 q 309 485 260 500 l 457 443 q 519 420 487 433 q 578 387 551 408 q 623 338 606 367 q 640 268 640 309 q 626 201 640 231 q 586 151 612 172 q 523 119 560 130 q 440 109 486 109 q 353 119 393 109 q 286 150 314 130 q 241 202 257 171 q 225 309 225 233 l 54 309 l 54 192 l 106 192 q 142 113 119 151 q 203 44 165 74 q 298 -4 241 14 q 433 -22 354 -22 q 575 0 511 -22 q 687 63 640 23 q 760 157 734 103 q 786 275 786 212 q 769 379 786 334 q 721 458 753 424 q 642 517 689 492 q 533 562 595 543 l 396 607 q 339 626 369 616 q 286 652 310 635 q 245 696 261 669 q 229 768 229 724 q 242 825 229 798 q 280 873 255 852 q 345 905 306 893 q 435 917 383 917 q 497 908 466 917 q 554 884 528 900 q 602 838 581 868 q 624 749 624 808 "},"T":{"ha":972,"x_min":28,"x_max":945,"o":"m 307 117 l 307 0 l 640 0 l 640 117 l 534 117 l 534 917 l 806 917 l 806 757 l 945 757 l 945 1028 l 28 1028 l 28 757 l 167 757 l 167 917 l 401 917 l 401 117 l 307 117 "},"U":{"ha":1057,"x_min":43,"x_max":1015,"o":"m 43 1028 l 43 911 l 137 911 l 137 435 q 167 244 137 328 q 250 104 197 161 q 373 16 302 46 q 526 -14 444 -14 q 682 17 609 -14 q 808 105 754 47 q 892 250 861 163 q 923 447 923 336 l 923 911 l 1015 911 l 1015 1028 l 682 1028 l 682 911 l 793 911 l 793 432 q 773 279 793 340 q 719 181 754 218 q 635 128 684 144 q 528 113 587 113 q 425 130 472 113 q 343 186 378 148 q 290 285 309 224 q 271 432 271 346 l 271 911 l 376 911 l 376 1028 l 43 1028 "},"V":{"ha":1007,"x_min":-7,"x_max":1021,"o":"m 687 1028 l 687 911 l 784 911 l 501 118 l 237 911 l 327 911 l 327 1028 l -7 1028 l -7 911 l 84 911 l 412 0 l 599 0 l 932 911 l 1021 911 l 1021 1028 l 687 1028 "},"W":{"ha":1736,"x_min":7,"x_max":1729,"o":"m 1396 1028 l 1396 911 l 1498 911 l 1244 121 l 965 1028 l 762 1028 l 500 121 l 251 911 l 340 911 l 340 1028 l 7 1028 l 7 911 l 98 911 l 397 0 l 603 0 l 860 896 l 1139 0 l 1346 0 l 1640 911 l 1729 911 l 1729 1028 l 1396 1028 "},"X":{"ha":1053,"x_min":115,"x_max":978,"o":"m 644 1028 l 644 911 l 752 911 l 550 629 l 350 911 l 449 911 l 449 1028 l 115 1028 l 115 911 l 199 911 l 475 526 l 182 117 l 115 117 l 115 0 l 449 0 l 449 117 l 329 117 l 550 422 l 770 117 l 644 117 l 644 0 l 978 0 l 978 117 l 914 117 l 624 525 l 902 911 l 978 911 l 978 1028 l 644 1028 "},"Y":{"ha":918,"x_min":35,"x_max":897,"o":"m 35 1028 l 35 911 l 115 911 l 387 476 l 387 117 l 293 117 l 293 0 l 627 0 l 627 117 l 521 117 l 521 473 l 810 911 l 897 911 l 897 1028 l 564 1028 l 564 911 l 671 911 l 464 581 l 271 911 l 368 911 l 368 1028 l 35 1028 "},"Z":{"ha":823,"x_min":35,"x_max":789,"o":"m 789 876 l 789 1028 l 46 1028 l 46 737 l 179 737 l 179 911 l 645 911 l 35 154 l 35 0 l 785 0 l 785 288 l 652 288 l 652 117 l 170 117 l 789 876 "},"[":{"ha":489,"x_min":161,"x_max":435,"o":"m 161 1157 l 161 -256 l 435 -256 l 435 -153 l 286 -153 l 286 1055 l 435 1055 l 435 1157 l 161 1157 "},"\\":{"ha":643,"x_min":28,"x_max":615,"o":"m 28 1072 l 505 -17 l 615 -17 l 138 1072 l 28 1072 "},"]":{"ha":489,"x_min":54,"x_max":328,"o":"m 203 1055 l 203 -153 l 54 -153 l 54 -256 l 328 -256 l 328 1157 l 54 1157 l 54 1055 l 203 1055 "},"^":{"ha":833,"x_min":106,"x_max":729,"o":"m 456 1026 l 379 1026 l 106 490 l 201 490 l 418 915 l 632 490 l 729 490 l 456 1026 "},"_":{"ha":694,"x_min":0,"x_max":694,"o":"m 0 -104 l 0 -174 l 694 -174 l 694 -104 l 0 -104 "},"`":{"ha":403,"x_min":68,"x_max":361,"o":"m 262 799 l 361 799 l 236 1002 l 68 1002 l 68 990 l 262 799 "},"a":{"ha":760,"x_min":47,"x_max":685,"o":"m 481 65 l 481 0 l 685 0 l 685 117 l 607 117 l 608 468 q 589 581 608 534 q 537 659 571 628 q 454 704 503 689 q 345 718 406 718 q 277 712 311 718 q 210 697 243 707 q 147 673 177 687 q 92 643 117 659 l 134 555 q 170 575 149 566 q 217 591 191 584 q 271 603 242 598 q 332 607 300 607 q 394 598 366 607 q 441 571 421 589 q 471 526 460 553 q 482 461 482 498 l 481 404 q 421 412 454 409 q 339 415 388 415 q 275 411 309 415 q 209 396 241 406 q 148 368 177 385 q 96 325 118 351 q 61 265 74 300 q 47 186 47 231 q 65 106 47 144 q 113 41 82 69 q 188 -3 144 13 q 282 -20 231 -20 q 392 4 344 -20 q 481 65 441 28 m 310 86 q 253 93 279 86 q 209 114 227 100 q 180 149 190 128 q 170 197 170 170 q 182 250 170 227 q 216 289 194 273 q 268 313 238 304 q 335 321 298 321 l 481 321 l 481 162 q 449 133 468 147 q 408 109 430 119 q 360 92 385 98 q 310 86 335 86 "},"b":{"ha":850,"x_min":39,"x_max":787,"o":"m 39 1055 l 39 939 l 140 939 l 140 0 l 267 0 l 267 44 q 345 4 299 20 q 443 -11 391 -11 q 581 16 518 -11 q 690 92 644 43 q 762 211 736 142 q 787 364 787 279 q 764 509 787 444 q 700 621 741 574 q 600 694 658 668 q 473 720 543 720 q 364 699 417 720 q 267 644 311 679 l 267 1055 l 39 1055 m 440 608 q 524 592 485 608 q 593 543 564 575 q 640 465 623 511 q 657 359 657 419 q 639 245 657 294 q 590 164 621 197 q 519 115 559 131 q 436 98 479 98 q 330 116 372 98 q 267 155 288 133 l 267 533 q 345 588 300 568 q 440 608 391 608 "},"c":{"ha":757,"x_min":62,"x_max":703,"o":"m 575 515 l 703 515 l 703 632 l 631 632 q 527 702 587 679 q 401 725 468 725 q 269 697 331 725 q 161 620 208 669 q 89 503 115 571 q 62 353 62 434 q 87 203 62 271 q 158 85 113 134 q 265 8 203 35 q 400 -20 327 -20 q 495 -6 450 -20 q 578 31 541 7 q 646 90 616 56 q 696 168 675 125 l 591 220 q 515 127 563 159 q 401 96 467 96 q 319 114 357 96 q 252 165 281 132 q 206 246 222 199 q 189 353 189 294 q 206 461 189 412 q 251 543 222 509 q 319 595 280 577 q 401 614 357 614 q 503 590 459 614 q 575 515 547 566 "},"d":{"ha":860,"x_min":62,"x_max":807,"o":"m 482 1055 l 482 939 l 578 939 l 578 669 q 497 708 539 697 q 404 720 455 720 q 264 693 327 720 q 156 620 201 667 q 87 506 111 573 q 62 358 62 439 q 88 199 62 269 q 158 82 113 130 q 265 9 203 34 q 397 -16 326 -16 q 499 4 454 -16 q 578 58 544 23 l 578 0 l 807 0 l 807 117 l 704 117 l 704 1055 l 482 1055 m 414 94 q 325 111 366 94 q 255 162 284 128 q 210 245 226 195 q 193 359 193 294 q 210 465 193 419 q 257 543 227 511 q 326 592 286 575 q 410 608 365 608 q 500 595 456 608 q 578 554 544 583 l 578 161 q 508 111 546 127 q 414 94 470 94 "},"e":{"ha":798,"x_min":62,"x_max":693,"o":"m 187 335 l 693 335 q 692 387 693 360 q 688 439 691 413 q 664 543 681 492 q 613 633 646 593 q 526 697 579 673 q 393 721 473 721 q 250 692 311 721 q 146 613 188 663 q 83 496 104 563 q 62 354 62 429 q 87 191 62 261 q 156 75 112 121 q 260 4 199 28 q 392 -20 321 -20 q 537 3 467 -20 q 676 74 607 26 l 625 160 q 516 112 568 127 q 410 97 465 97 q 284 131 340 97 q 204 233 229 165 q 192 280 196 256 q 187 335 187 305 m 385 615 q 463 602 431 615 q 515 564 495 588 q 546 506 536 539 q 558 433 555 473 l 194 433 q 215 509 201 475 q 252 567 229 543 q 308 603 275 590 q 385 615 340 615 "},"f":{"ha":505,"x_min":58,"x_max":589,"o":"m 300 703 l 300 817 q 332 919 300 884 q 420 954 364 954 q 493 946 458 954 q 550 926 528 938 l 589 1017 q 558 1030 575 1023 q 518 1043 541 1037 q 467 1052 496 1048 q 403 1055 439 1055 q 309 1040 351 1055 q 237 995 267 1025 q 191 919 208 964 q 174 812 175 873 l 174 703 l 58 703 l 58 600 l 174 600 l 174 117 l 68 117 l 68 0 l 410 0 l 410 117 l 300 117 l 300 600 l 463 600 l 463 703 l 300 703 "},"g":{"ha":819,"x_min":62,"x_max":708,"o":"m 582 62 l 582 52 q 570 -67 582 -20 q 533 -141 557 -114 q 470 -180 508 -169 q 379 -191 431 -191 q 315 -184 347 -191 q 254 -168 283 -178 q 198 -142 224 -157 q 151 -110 172 -127 l 83 -212 q 152 -257 115 -239 q 228 -287 189 -275 q 307 -304 267 -299 q 383 -310 347 -310 q 629 -224 550 -310 q 708 28 708 -139 l 708 703 l 582 703 l 582 667 q 499 708 542 696 q 404 720 457 720 q 264 693 327 720 q 156 620 201 667 q 87 506 111 573 q 62 358 62 439 q 88 199 62 269 q 158 82 113 130 q 265 9 203 34 q 397 -16 326 -16 q 502 5 456 -16 q 582 62 547 25 m 414 94 q 325 111 366 94 q 255 162 284 128 q 210 245 226 195 q 193 359 193 294 q 210 465 193 419 q 257 543 227 511 q 326 592 286 575 q 410 608 365 608 q 502 595 457 608 q 582 551 547 581 l 582 166 q 554 139 570 152 q 517 116 538 126 q 471 100 496 106 q 414 94 445 94 "},"h":{"ha":918,"x_min":68,"x_max":868,"o":"m 77 1055 l 77 939 l 174 939 l 174 117 l 68 117 l 68 0 l 401 0 l 401 117 l 300 117 l 300 529 q 384 581 339 560 q 472 602 429 602 q 590 560 549 602 q 631 437 631 518 l 631 117 l 534 117 l 534 0 l 868 0 l 868 117 l 762 117 l 762 453 q 745 571 762 521 q 696 652 728 621 q 618 700 664 684 q 517 715 573 715 q 456 709 485 715 q 399 690 427 702 q 348 661 372 677 q 304 625 323 644 l 300 625 l 300 1055 l 77 1055 "},"i":{"ha":446,"x_min":62,"x_max":397,"o":"m 62 703 l 62 586 l 164 586 l 164 117 l 64 117 l 64 0 l 397 0 l 397 117 l 292 117 l 292 703 l 62 703 m 140 951 q 148 917 140 933 q 166 888 155 901 q 195 868 178 876 q 229 861 211 861 q 263 868 247 861 q 291 888 279 876 q 310 917 302 901 q 317 951 317 933 q 310 985 317 969 q 291 1013 302 1001 q 263 1032 279 1025 q 229 1039 247 1039 q 195 1032 211 1039 q 166 1013 178 1025 q 148 985 155 1001 q 140 951 140 969 "},"j":{"ha":410,"x_min":41,"x_max":301,"o":"m 57 703 l 57 586 l 157 586 l 157 -40 q 129 -168 157 -119 q 41 -225 102 -216 l 54 -319 q 152 -299 109 -318 q 224 -246 195 -280 q 269 -163 254 -212 q 285 -54 285 -115 l 285 703 l 57 703 m 140 951 q 147 920 140 935 q 164 893 153 905 q 190 876 175 882 q 221 869 204 869 q 252 876 237 869 q 277 893 267 882 q 295 920 288 905 q 301 951 301 935 q 295 982 301 968 q 277 1007 288 996 q 252 1024 267 1018 q 221 1031 237 1031 q 190 1024 204 1031 q 164 1007 175 1018 q 147 982 153 996 q 140 951 140 968 "},"k":{"ha":865,"x_min":62,"x_max":838,"o":"m 62 1055 l 62 939 l 182 939 l 182 117 l 66 117 l 66 0 l 367 0 l 367 117 l 309 117 l 309 314 l 401 314 l 689 0 l 838 0 l 838 117 l 753 117 l 519 366 l 733 586 l 822 586 l 822 703 l 555 703 l 555 586 l 597 586 l 431 414 l 309 414 l 309 939 l 310 939 l 310 1055 l 62 1055 "},"l":{"ha":452,"x_min":62,"x_max":396,"o":"m 62 1055 l 62 939 l 164 939 l 164 117 l 62 117 l 62 0 l 396 0 l 396 117 l 290 117 l 290 1055 l 62 1055 "},"m":{"ha":1383,"x_min":68,"x_max":1322,"o":"m 68 703 l 68 586 l 165 586 l 165 117 l 68 117 l 68 0 l 396 0 l 396 117 l 297 117 l 297 528 q 382 581 337 559 q 471 602 427 602 q 588 560 547 602 q 629 437 629 518 l 629 117 l 530 117 l 530 0 l 858 0 l 858 117 l 761 117 l 761 525 q 842 580 795 558 q 935 602 890 602 q 1053 560 1012 602 q 1093 437 1093 518 l 1093 117 l 994 117 l 994 0 l 1322 0 l 1322 117 l 1225 117 l 1225 453 q 1208 571 1225 521 q 1160 652 1192 621 q 1082 700 1128 684 q 980 715 1037 715 q 909 706 943 715 q 845 681 876 696 q 785 644 814 665 q 731 600 757 623 q 646 687 701 659 q 515 715 591 715 q 453 708 483 715 q 395 688 422 701 q 341 657 367 675 q 293 621 316 640 l 292 621 l 292 703 l 68 703 "},"n":{"ha":926,"x_min":68,"x_max":859,"o":"m 530 117 l 530 0 l 859 0 l 859 117 l 761 117 l 761 453 q 744 571 761 521 q 694 652 726 621 q 617 700 663 684 q 515 715 572 715 q 452 708 482 715 q 394 688 422 701 q 341 657 366 675 q 293 620 315 640 l 292 620 l 292 703 l 68 703 l 68 586 l 165 586 l 165 117 l 68 117 l 68 0 l 396 0 l 396 117 l 297 117 l 297 528 q 382 581 337 559 q 471 602 427 602 q 588 560 547 602 q 629 437 629 518 l 629 117 l 530 117 "},"o":{"ha":827,"x_min":58,"x_max":762,"o":"m 58 351 q 85 200 59 269 q 157 82 111 132 q 267 6 203 33 q 411 -21 332 -21 q 554 6 489 -21 q 665 83 618 34 q 736 202 711 133 q 762 353 762 271 q 736 505 762 436 q 665 622 711 573 q 554 696 618 670 q 411 723 489 723 q 269 696 334 723 q 158 621 205 670 q 85 503 111 572 q 58 351 59 435 m 192 351 q 209 465 192 415 q 257 547 227 514 q 327 597 287 581 q 411 614 366 614 q 498 597 458 614 q 569 547 539 581 q 615 465 598 514 q 632 351 632 415 q 615 241 632 290 q 568 158 598 193 q 498 106 538 124 q 411 87 458 87 q 327 106 366 87 q 257 159 287 125 q 209 242 227 193 q 192 351 192 291 "},"p":{"ha":847,"x_min":40,"x_max":785,"o":"m 40 703 l 40 586 l 138 586 l 138 -203 l 41 -203 l 41 -319 l 375 -319 l 375 -203 l 265 -203 l 265 24 q 345 -4 303 7 q 440 -16 387 -16 q 578 12 515 -16 q 687 90 642 40 q 759 210 733 140 q 785 364 785 279 q 762 509 785 444 q 697 621 739 574 q 597 694 655 668 q 471 720 540 720 q 361 699 414 720 q 264 644 309 679 l 264 703 l 40 703 m 437 608 q 522 592 482 608 q 590 543 561 575 q 637 465 620 511 q 654 359 654 419 q 636 245 654 294 q 587 162 618 195 q 517 111 557 128 q 433 94 477 94 q 329 113 371 94 q 265 154 288 131 l 265 534 q 343 589 298 569 q 437 608 389 608 "},"q":{"ha":818,"x_min":62,"x_max":807,"o":"m 473 -203 l 473 -319 l 807 -319 l 807 -203 l 701 -203 l 701 703 l 575 703 l 575 671 q 496 708 536 697 q 404 720 455 720 q 264 693 327 720 q 156 620 201 667 q 87 506 111 573 q 62 358 62 439 q 88 199 62 269 q 158 82 113 130 q 265 9 203 34 q 397 -16 326 -16 q 497 3 453 -16 q 575 55 541 22 l 575 -203 l 473 -203 m 414 94 q 325 111 366 94 q 255 162 284 128 q 210 245 226 195 q 193 359 193 294 q 210 465 193 418 q 257 543 227 511 q 326 592 286 575 q 410 608 365 608 q 498 596 455 608 q 575 556 541 584 l 575 158 q 511 113 551 132 q 414 94 471 94 "},"r":{"ha":652,"x_min":68,"x_max":573,"o":"m 573 554 l 573 707 q 511 708 542 708 q 444 708 479 708 q 395 700 418 708 q 354 679 372 692 q 320 646 335 665 q 292 606 304 627 l 292 703 l 68 703 l 68 586 l 165 586 l 165 117 l 68 117 l 68 0 l 416 0 l 416 117 l 297 117 l 297 456 q 319 519 304 492 q 355 563 334 546 q 398 589 375 581 q 444 597 422 597 l 444 554 l 573 554 "},"s":{"ha":673,"x_min":56,"x_max":612,"o":"m 473 514 l 612 514 l 612 631 l 547 631 q 455 703 506 682 q 329 724 404 724 q 225 708 271 724 q 148 665 180 692 q 100 600 117 637 q 83 517 83 562 q 123 404 83 449 q 245 330 163 359 l 379 279 q 454 237 432 260 q 476 179 476 213 q 465 139 476 157 q 436 109 454 121 q 393 90 417 96 q 342 83 368 83 q 289 90 315 83 q 242 109 262 96 q 209 142 221 121 q 196 192 196 163 l 56 192 l 56 75 l 126 75 q 205 5 154 32 q 339 -21 257 -21 q 446 -6 398 -21 q 529 37 494 9 q 582 103 563 64 q 600 189 600 142 q 560 309 600 259 q 433 389 520 359 l 298 436 q 227 474 248 454 q 205 530 205 495 q 215 567 205 551 q 240 595 224 584 q 279 613 256 607 q 329 619 302 619 q 379 613 353 619 q 426 595 405 608 q 460 563 447 583 q 473 514 473 543 "},"t":{"ha":517,"x_min":35,"x_max":482,"o":"m 271 703 l 271 929 l 148 871 l 148 703 l 35 703 l 35 600 l 146 600 l 144 214 q 156 103 144 147 q 191 32 168 58 q 249 -6 214 5 q 329 -17 283 -17 q 414 -7 378 -17 q 482 20 450 3 l 453 104 q 406 87 427 92 q 355 82 384 82 q 308 92 329 82 q 277 127 287 102 q 268 195 268 153 l 270 600 l 436 600 l 436 703 l 271 703 "},"u":{"ha":916,"x_min":41,"x_max":795,"o":"m 491 703 l 491 586 l 585 586 l 585 158 q 499 117 545 132 q 412 102 453 102 q 304 143 342 102 q 267 265 267 184 l 267 703 l 41 703 l 41 586 l 136 586 l 136 250 q 152 132 136 182 q 198 51 168 83 q 272 3 229 18 q 368 -12 315 -12 q 487 8 431 -12 q 591 65 543 28 l 591 0 l 795 0 l 795 117 l 718 117 l 718 703 l 491 703 "},"v":{"ha":746,"x_min":14,"x_max":713,"o":"m 14 703 l 14 586 l 69 586 l 298 -11 l 423 -11 l 653 586 l 713 586 l 713 703 l 491 703 l 491 586 l 534 586 l 364 102 l 191 586 l 256 586 l 256 703 l 14 703 "},"w":{"ha":1112,"x_min":14,"x_max":1071,"o":"m 14 703 l 14 586 l 74 586 l 265 -11 l 383 -11 l 542 550 l 701 -11 l 818 -11 l 1010 586 l 1071 586 l 1071 703 l 848 703 l 848 586 l 889 586 l 761 139 l 600 703 l 494 703 l 326 138 l 203 586 l 236 586 l 236 703 l 14 703 "},"x":{"ha":736,"x_min":35,"x_max":704,"o":"m 471 117 l 471 0 l 704 0 l 704 117 l 652 117 l 442 357 l 641 586 l 701 586 l 701 703 l 468 703 l 468 586 l 502 586 l 371 419 l 241 586 l 268 586 l 268 703 l 35 703 l 35 586 l 106 586 l 307 366 l 93 117 l 36 117 l 36 0 l 269 0 l 269 117 l 235 117 l 371 290 l 511 117 l 471 117 "},"y":{"ha":798,"x_min":21,"x_max":725,"o":"m 21 703 l 21 586 l 78 586 l 313 -9 l 238 -203 l 153 -203 l 153 -319 l 436 -319 l 436 -203 l 340 -203 l 652 586 l 725 586 l 725 703 l 458 703 l 458 586 l 541 586 l 369 138 l 204 586 l 288 586 l 288 703 l 21 703 "},"z":{"ha":627,"x_min":52,"x_max":576,"o":"m 52 78 l 52 0 l 576 0 l 576 225 l 446 225 l 446 106 l 205 106 l 561 623 l 561 703 l 58 703 l 58 498 l 183 498 l 183 597 l 408 597 l 52 78 "},"{":{"ha":489,"x_min":90,"x_max":440,"o":"m 90 490 l 90 404 q 140 389 119 404 q 176 348 161 373 q 197 290 190 322 q 204 224 204 258 l 204 -77 q 217 -153 204 -119 q 249 -209 229 -186 q 295 -244 269 -232 q 347 -256 321 -256 l 440 -256 l 440 -170 l 393 -170 q 343 -134 357 -170 q 329 -35 329 -98 l 329 249 q 320 323 329 290 q 296 380 311 356 q 260 421 281 405 q 215 446 239 437 l 215 449 q 260 474 239 458 q 296 515 281 490 q 320 572 311 539 q 329 646 329 604 l 329 937 q 343 1036 329 1000 q 393 1072 357 1072 l 440 1072 l 440 1157 l 347 1157 q 295 1145 321 1157 q 249 1110 269 1133 q 217 1054 229 1087 q 204 978 204 1021 l 204 671 q 197 605 204 637 q 176 547 190 572 q 140 506 161 522 q 90 490 119 490 "},"|":{"ha":309,"x_min":103,"x_max":208,"o":"m 103 1171 l 103 -183 l 208 -183 l 208 1171 l 103 1171 "},"}":{"ha":489,"x_min":49,"x_max":399,"o":"m 49 -256 l 142 -256 q 194 -244 168 -256 q 240 -209 220 -232 q 272 -153 260 -186 q 285 -77 285 -119 l 285 224 q 292 290 285 258 q 313 348 299 322 q 349 389 328 373 q 399 404 370 404 l 399 490 q 349 506 370 490 q 313 547 328 522 q 292 605 299 572 q 285 671 285 637 l 285 978 q 272 1054 285 1021 q 240 1110 260 1087 q 194 1145 220 1133 q 142 1157 168 1157 l 49 1157 l 49 1072 l 96 1072 q 146 1036 132 1072 q 160 937 160 1000 l 160 646 q 169 572 160 604 q 193 515 178 539 q 229 474 208 490 q 273 449 250 458 l 273 446 q 229 421 250 437 q 193 380 208 405 q 169 323 178 356 q 160 249 160 290 l 160 -35 q 146 -134 160 -98 q 96 -170 132 -170 l 49 -170 l 49 -256 "},"~":{"ha":833,"x_min":96,"x_max":737,"o":"m 96 328 l 146 250 q 209 330 180 307 q 268 353 239 353 q 306 346 285 353 q 352 328 328 338 q 402 304 376 317 q 455 281 428 292 q 510 263 483 270 q 564 256 537 256 q 666 287 625 256 q 737 375 707 318 l 688 453 q 624 373 654 397 q 566 350 595 350 q 505 365 540 350 q 431 398 471 380 q 350 432 392 416 q 269 447 309 447 q 168 416 209 447 q 96 328 126 385 "},"…":{"ha":1389,"x_min":139,"x_max":1251,"o":"m 139 83 q 147 45 139 63 q 169 13 155 26 q 200 -9 182 -1 q 239 -17 218 -17 q 278 -9 260 -17 q 310 13 296 -1 q 332 45 324 26 q 340 83 340 63 q 332 122 340 104 q 310 154 324 140 q 278 175 296 168 q 239 183 260 183 q 200 175 218 183 q 169 154 182 168 q 147 122 155 140 q 139 83 139 104 m 595 83 q 603 45 595 63 q 624 13 610 26 q 656 -9 638 -1 q 694 -17 674 -17 q 734 -9 715 -17 q 766 13 752 -1 q 788 45 780 26 q 796 83 796 63 q 788 122 796 104 q 766 154 780 140 q 734 175 752 168 q 694 183 715 183 q 656 175 674 183 q 624 154 638 168 q 603 122 610 140 q 595 83 595 104 m 1050 83 q 1058 45 1050 63 q 1080 13 1066 26 q 1112 -9 1093 -1 q 1150 -17 1130 -17 q 1190 -9 1171 -17 q 1221 13 1208 -1 q 1243 45 1235 26 q 1251 83 1251 63 q 1243 122 1251 104 q 1221 154 1235 140 q 1190 175 1208 168 q 1150 183 1171 183 q 1112 175 1130 183 q 1080 154 1093 168 q 1058 122 1066 140 q 1050 83 1050 104 "},"‘":{"ha":411,"x_min":77,"x_max":335,"o":"m 245 1055 l 77 717 l 205 664 l 335 1013 l 245 1055 "},"’":{"ha":411,"x_min":62,"x_max":336,"o":"m 187 1061 l 62 675 l 160 639 l 336 1003 l 187 1061 "},"“":{"ha":722,"x_min":87,"x_max":635,"o":"m 546 1055 l 376 717 l 505 664 l 635 1013 l 546 1055 m 257 1055 l 87 717 l 216 664 l 346 1013 l 257 1055 "},"”":{"ha":697,"x_min":62,"x_max":610,"o":"m 151 664 l 321 1003 l 192 1055 l 62 707 l 151 664 m 440 664 l 610 1003 l 481 1055 l 351 707 l 440 664 "},"‚":{"ha":386,"x_min":14,"x_max":288,"o":"m 139 192 l 14 -195 l 111 -231 l 288 134 l 139 192 "},"„":{"ha":682,"x_min":14,"x_max":600,"o":"m 139 192 l 14 -195 l 111 -231 l 288 134 l 139 192 m 452 192 l 326 -195 l 424 -231 l 600 134 l 452 192 "},"ʼ":{"ha":231,"x_min":14,"x_max":233,"o":"m 90 1031 l 14 774 l 111 737 l 233 974 l 90 1031 "},"–":{"ha":694,"x_min":0,"x_max":694,"o":"m 0 439 l 0 329 l 694 329 l 694 439 l 0 439 "},"—":{"ha":1389,"x_min":0,"x_max":1389,"o":"m 0 439 l 0 329 l 1389 329 l 1389 439 l 0 439 "},"¦":{"ha":347,"x_min":103,"x_max":208,"o":"m 103 1173 l 103 664 l 208 664 l 208 1173 l 103 1173 m 103 326 l 103 -182 l 208 -182 l 208 326 l 103 326 "},"‹":{"ha":418,"x_min":69,"x_max":349,"o":"m 349 117 l 193 383 l 349 650 l 218 650 l 69 383 l 218 117 l 349 117 "},"›":{"ha":418,"x_min":69,"x_max":349,"o":"m 225 383 l 69 117 l 200 117 l 349 383 l 200 650 l 69 650 l 225 383 "},"«":{"ha":705,"x_min":69,"x_max":636,"o":"m 349 117 l 193 383 l 349 650 l 218 650 l 69 383 l 218 117 l 349 117 m 636 117 l 481 383 l 636 650 l 505 650 l 357 383 l 505 117 l 636 117 "},"»":{"ha":705,"x_min":69,"x_max":636,"o":"m 225 383 l 69 117 l 200 117 l 349 383 l 200 650 l 69 650 l 225 383 m 513 383 l 357 117 l 488 117 l 636 383 l 488 650 l 357 650 l 513 383 "},"°":{"ha":463,"x_min":69,"x_max":393,"o":"m 231 1178 q 168 1165 197 1178 q 117 1130 138 1152 q 82 1078 95 1107 q 69 1015 69 1048 q 82 953 69 982 q 117 902 95 924 q 168 867 138 880 q 231 854 197 854 q 293 867 264 854 q 345 902 323 880 q 380 953 368 924 q 393 1015 393 982 q 380 1078 393 1048 q 345 1130 368 1107 q 293 1165 323 1152 q 231 1178 264 1178 m 139 1015 q 146 1051 139 1034 q 166 1080 153 1067 q 195 1101 178 1093 q 231 1108 212 1108 q 266 1101 250 1108 q 296 1080 283 1093 q 316 1051 309 1067 q 323 1015 323 1034 q 316 980 323 996 q 296 950 309 963 q 266 931 283 938 q 231 924 250 924 q 195 931 212 924 q 166 950 178 938 q 146 980 153 963 q 139 1015 139 996 "},"·":{"ha":415,"x_min":118,"x_max":294,"o":"m 118 452 q 125 417 118 433 q 144 388 132 400 q 172 368 156 376 q 207 361 189 361 q 240 368 224 361 q 268 388 256 376 q 287 417 280 400 q 294 452 294 433 q 287 485 294 469 q 268 513 280 501 q 240 532 256 525 q 207 539 224 539 q 172 532 189 539 q 144 513 156 525 q 125 485 132 501 q 118 452 118 469 "},"•":{"ha":550,"x_min":104,"x_max":446,"o":"m 104 529 q 118 462 104 493 q 154 408 131 431 q 208 371 177 385 q 275 358 239 358 q 342 371 311 358 q 396 408 373 385 q 432 462 419 431 q 446 529 446 493 q 432 596 446 565 q 396 650 419 627 q 342 687 373 673 q 275 700 311 700 q 208 687 239 700 q 154 650 177 673 q 118 595 131 627 q 104 529 104 564 "},"ˆ":{"ha":583,"x_min":147,"x_max":530,"o":"m 147 798 l 248 798 l 339 903 l 429 798 l 530 798 l 359 1010 l 317 1010 l 147 798 "},"˜":{"ha":677,"x_min":60,"x_max":549,"o":"m 212 960 q 165 954 189 960 q 121 936 142 949 q 85 902 101 923 q 60 848 68 880 l 134 812 q 147 842 138 831 q 165 858 155 852 q 186 864 176 863 q 207 865 197 865 q 248 855 229 865 q 289 832 267 844 q 337 809 311 820 q 401 799 363 799 q 496 830 456 799 q 549 920 535 862 l 468 943 q 444 902 462 915 q 407 889 426 889 q 359 900 380 889 q 317 924 338 911 q 271 948 296 937 q 212 960 246 960 "},"¯":{"ha":541,"x_min":26,"x_max":541,"o":"m 541 833 l 541 913 l 26 913 l 26 833 l 541 833 "},"˘":{"ha":684,"x_min":81,"x_max":581,"o":"m 330 779 q 426 796 381 779 q 504 843 471 813 q 558 914 538 873 q 581 1003 578 955 l 498 1003 q 484 947 497 973 q 449 900 471 920 q 396 869 427 880 q 330 857 366 857 q 264 869 295 857 q 212 901 234 881 q 176 947 189 921 q 163 1003 163 974 l 81 1003 q 103 914 83 955 q 156 843 123 873 q 234 796 190 813 q 330 779 279 779 "},"¸":{"ha":637,"x_min":123,"x_max":403,"o":"m 123 -205 l 131 -293 q 224 -279 180 -293 q 303 -238 268 -264 q 365 -172 339 -211 q 403 -83 391 -133 l 301 -53 q 281 -112 296 -84 q 244 -159 267 -139 q 191 -192 221 -180 q 123 -205 161 -205 "},"˝":{"ha":909,"x_min":251,"x_max":722,"o":"m 722 1002 l 602 1002 l 460 799 l 564 799 l 722 1002 m 504 1002 l 383 1002 l 251 799 l 353 799 l 504 1002 "},"˛":{"ha":366,"x_min":20,"x_max":330,"o":"m 318 20 l 260 72 q 215 56 240 66 q 162 31 189 46 q 110 -4 136 16 q 64 -50 84 -24 q 32 -105 44 -75 q 20 -170 20 -135 q 34 -230 20 -204 q 74 -274 48 -256 q 134 -301 99 -292 q 210 -310 168 -310 q 243 -307 225 -310 q 279 -300 262 -304 q 309 -291 296 -296 q 330 -282 323 -286 l 297 -170 q 265 -180 283 -176 q 221 -184 247 -184 q 198 -182 209 -184 q 178 -175 186 -180 q 163 -161 169 -170 q 158 -139 158 -152 q 166 -96 158 -116 q 193 -56 174 -75 q 243 -18 212 -37 q 318 20 273 0 "},"ˇ":{"ha":583,"x_min":151,"x_max":526,"o":"m 526 1009 l 431 1009 l 339 876 l 249 1009 l 151 1009 l 322 770 l 355 770 l 526 1009 "},"´":{"ha":437,"x_min":57,"x_max":364,"o":"m 201 1002 l 57 799 l 161 799 l 364 990 l 364 1002 l 201 1002 "},"¨":{"ha":415,"x_min":26,"x_max":510,"o":"m 26 922 q 34 888 26 904 q 53 859 41 871 q 80 839 64 846 q 114 832 96 832 q 146 839 131 832 q 174 859 162 846 q 192 888 185 871 q 199 922 199 904 q 192 956 199 940 q 174 984 185 972 q 146 1003 162 996 q 114 1010 131 1010 q 80 1003 96 1010 q 53 984 64 996 q 34 956 41 972 q 26 922 26 940 m 338 922 q 345 888 338 904 q 364 859 352 871 q 392 839 376 846 q 425 832 408 832 q 457 839 442 832 q 485 859 473 846 q 503 888 496 871 q 510 922 510 904 q 503 956 510 940 q 485 984 496 972 q 457 1003 473 996 q 425 1010 442 1010 q 392 1003 408 1010 q 364 984 376 996 q 345 956 352 972 q 338 922 338 940 "},"˚":{"ha":814,"x_min":240,"x_max":587,"o":"m 343 911 q 349 938 343 925 q 365 961 355 951 q 387 976 374 970 q 414 982 399 982 q 441 976 428 982 q 464 961 454 970 q 479 938 473 951 q 485 911 485 925 q 479 884 485 897 q 464 862 473 871 q 441 846 454 852 q 414 840 428 840 q 387 846 399 840 q 365 862 374 852 q 349 884 355 871 q 343 911 343 897 m 414 1084 q 347 1070 378 1084 q 292 1033 315 1057 q 254 978 268 1010 q 240 911 240 946 q 254 844 240 876 q 292 789 268 812 q 347 751 315 765 q 414 737 378 737 q 481 751 449 737 q 536 789 513 765 q 573 844 559 812 q 587 911 587 876 q 573 978 587 946 q 536 1033 559 1010 q 481 1070 513 1057 q 414 1084 449 1084 "},"˙":{"ha":415,"x_min":118,"x_max":294,"o":"m 118 951 q 125 917 118 933 q 144 888 132 901 q 172 868 156 876 q 207 861 189 861 q 240 868 224 861 q 268 888 256 876 q 287 917 280 901 q 294 951 294 933 q 287 985 294 969 q 268 1013 280 1001 q 240 1032 256 1025 q 207 1039 224 1039 q 172 1032 189 1039 q 144 1013 156 1025 q 125 985 132 1001 q 118 951 118 969 "},"Æ":{"ha":1299,"x_min":-1,"x_max":1260,"o":"m -1 117 l -1 0 l 332 0 l 332 117 l 221 117 l 321 289 l 672 289 l 672 117 l 587 117 l 587 0 l 1260 0 l 1260 290 l 1121 290 l 1121 117 l 806 117 l 806 468 l 1063 468 l 1063 585 l 806 585 l 806 911 l 1121 911 l 1121 737 l 1260 737 l 1260 1028 l 624 1028 l 71 117 l -1 117 m 672 406 l 390 406 l 672 890 l 672 406 "},"æ":{"ha":1210,"x_min":35,"x_max":1099,"o":"m 326 411 q 262 407 296 411 q 196 392 229 402 q 135 365 164 382 q 83 323 105 348 q 48 264 61 298 q 35 186 35 230 q 52 106 35 144 q 102 41 70 69 q 181 -3 135 13 q 283 -20 227 -20 q 358 -12 321 -20 q 429 12 395 -3 q 492 48 463 26 q 543 96 521 70 q 652 9 587 38 q 798 -20 718 -20 q 943 3 873 -20 q 1082 74 1013 26 l 1031 160 q 922 112 974 127 q 815 97 870 97 q 690 131 745 97 q 620 199 635 165 q 599 266 605 233 q 593 335 593 298 l 1099 335 q 1098 387 1099 360 q 1093 439 1097 413 q 1069 543 1086 492 q 1018 633 1052 593 q 931 697 985 673 q 799 721 878 721 q 659 694 719 721 q 557 619 599 667 q 467 694 524 670 q 332 718 410 718 q 264 712 298 718 q 197 697 230 707 q 134 673 164 687 q 79 643 104 659 l 121 555 q 157 575 136 566 q 204 591 178 584 q 258 603 229 598 q 319 607 288 607 q 381 598 353 607 q 430 571 410 589 q 460 526 450 553 q 471 461 471 498 l 470 399 l 470 397 q 326 411 416 411 m 297 86 q 240 93 266 86 q 196 115 214 100 q 167 150 177 129 q 157 200 157 172 q 169 253 157 230 q 203 292 181 276 q 255 315 225 307 q 322 323 286 323 l 469 323 q 498 176 473 240 q 413 111 464 136 q 297 86 363 86 m 790 615 q 869 602 837 615 q 921 564 901 588 q 951 506 941 539 q 964 433 961 473 l 600 433 q 620 509 606 475 q 657 567 634 543 q 713 603 680 590 q 790 615 746 615 "},"Œ":{"ha":1584,"x_min":49,"x_max":1544,"o":"m 543 -21 l 543 -21 q 747 23 656 -21 q 905 144 839 66 l 905 0 l 1544 0 l 1544 290 l 1406 290 l 1406 117 l 1039 117 l 1039 465 l 1348 465 l 1348 582 l 1039 582 l 1039 911 l 1406 911 l 1406 737 l 1544 737 l 1544 1028 l 905 1028 l 905 885 q 747 1005 839 961 q 543 1048 656 1048 q 344 1007 435 1048 q 188 893 253 965 q 85 723 122 821 q 49 514 49 625 q 85 306 49 403 q 187 135 121 208 q 344 21 253 62 q 543 -21 435 -21 m 543 107 l 543 107 q 397 140 463 107 q 285 229 332 172 q 213 358 239 285 q 187 514 187 432 q 212 670 187 596 q 284 800 237 743 q 396 889 330 856 q 543 922 463 922 q 689 889 624 922 q 800 800 754 856 q 871 669 846 743 q 896 514 896 595 q 871 358 896 432 q 800 229 846 285 q 689 140 754 172 q 543 107 624 107 "},"œ":{"ha":1337,"x_min":58,"x_max":1272,"o":"m 58 351 q 85 200 59 269 q 157 82 111 132 q 267 6 203 33 q 411 -21 332 -21 q 554 6 489 -21 q 665 83 618 34 q 736 202 711 133 q 762 353 762 271 q 736 505 762 436 q 665 622 711 573 q 554 696 618 670 q 411 723 489 723 q 269 696 334 723 q 158 621 205 670 q 85 503 111 572 q 58 351 59 435 m 192 351 q 209 465 192 415 q 257 547 227 514 q 327 597 287 581 q 411 614 366 614 q 498 597 458 614 q 569 547 539 581 q 615 465 598 514 q 632 351 632 415 q 615 241 632 290 q 568 158 598 193 q 498 106 538 124 q 411 87 458 87 q 327 106 366 87 q 257 159 287 125 q 209 242 227 193 q 192 351 192 291 m 766 335 l 1272 335 q 1271 387 1272 360 q 1267 439 1270 413 q 1243 543 1260 492 q 1192 633 1225 593 q 1105 697 1158 673 q 972 721 1052 721 q 829 692 890 721 q 725 613 767 663 q 663 496 684 563 q 642 354 642 429 q 666 191 642 261 q 735 75 691 121 q 839 4 779 28 q 971 -20 900 -20 q 1116 3 1046 -20 q 1255 74 1186 26 l 1204 160 q 1096 112 1147 127 q 989 97 1044 97 q 864 131 919 97 q 783 233 808 165 q 771 280 775 256 q 766 335 766 305 m 964 615 q 1042 602 1010 615 q 1095 564 1074 588 q 1125 506 1115 539 q 1137 433 1135 473 l 773 433 q 794 509 780 475 q 831 567 808 543 q 887 603 854 590 q 964 615 920 615 "},"þ":{"ha":850,"x_min":37,"x_max":782,"o":"m 39 1069 l 39 953 l 135 953 l 135 -203 l 37 -203 l 37 -319 l 371 -319 l 371 -203 l 261 -203 l 261 44 q 339 4 294 19 q 437 -11 385 -11 q 576 16 513 -11 q 685 92 639 43 q 756 211 730 142 q 782 364 782 279 q 759 509 782 444 q 694 621 736 574 q 595 694 652 668 q 468 720 537 720 q 359 699 412 720 q 261 644 306 679 l 261 1069 l 39 1069 m 435 608 q 519 592 479 608 q 588 543 558 575 q 634 465 617 511 q 652 359 652 419 q 633 245 652 294 q 585 164 615 197 q 514 115 554 131 q 431 98 474 98 q 325 116 367 98 q 261 155 283 133 l 261 533 q 340 588 294 568 q 435 608 385 608 "},"Þ":{"ha":897,"x_min":71,"x_max":838,"o":"m 72 1028 l 72 911 l 165 911 l 165 117 l 71 117 l 71 0 l 404 0 l 404 117 l 298 117 l 298 268 l 518 268 q 649 290 590 268 q 750 349 708 311 q 814 436 791 386 q 838 542 838 486 q 814 662 838 610 q 748 749 790 713 q 647 802 705 784 q 521 819 589 819 l 298 820 l 298 911 l 406 911 l 406 1028 l 72 1028 m 298 703 l 504 703 q 609 687 571 703 q 672 637 646 671 q 697 542 697 604 q 684 471 697 502 q 647 420 671 441 q 592 390 624 400 q 521 379 559 379 l 298 379 l 298 703 "},"Ø":{"ha":1080,"x_min":45,"x_max":1046,"o":"m 178 148 l 45 -23 l 180 -23 l 256 74 q 388 4 315 28 q 545 -21 460 -21 q 681 -2 616 -21 q 801 52 746 17 q 900 136 856 87 q 974 244 943 184 q 1021 372 1004 303 q 1038 514 1038 440 q 1001 726 1038 628 q 897 897 964 823 l 1046 1088 l 911 1088 l 816 966 q 690 1027 758 1005 q 545 1048 623 1048 q 408 1029 472 1048 q 288 976 343 1010 q 190 893 233 941 q 115 785 146 844 q 68 656 85 725 q 52 514 52 588 q 84 313 52 407 q 178 148 117 220 m 545 107 q 432 126 484 107 q 338 179 380 144 l 811 786 q 875 661 852 731 q 897 514 897 591 q 872 358 897 432 q 802 229 848 285 q 690 140 755 173 q 545 107 625 107 m 265 258 q 210 377 229 312 q 191 514 191 442 q 216 670 191 595 q 287 800 241 744 q 398 889 333 856 q 545 922 464 922 q 647 906 600 922 q 734 862 694 890 l 265 258 "},"ø":{"ha":827,"x_min":35,"x_max":821,"o":"m 144 98 l 35 -41 l 170 -41 l 224 28 q 311 -8 264 5 q 412 -21 358 -21 q 557 6 492 -21 q 668 82 623 33 q 739 200 714 131 q 764 353 764 269 q 741 495 764 431 q 678 608 719 559 l 821 791 l 687 791 l 597 676 q 511 711 557 699 q 412 724 465 724 q 271 696 335 724 q 160 620 206 669 q 88 503 113 571 q 62 351 62 434 q 83 211 62 275 q 144 98 104 147 m 598 506 q 624 437 615 475 q 633 351 633 398 q 616 242 633 290 q 570 159 600 193 q 499 107 540 125 q 412 89 459 89 q 353 98 381 89 q 299 123 324 106 l 598 506 m 227 204 q 202 272 211 235 q 193 351 193 309 q 211 465 193 415 q 258 547 228 514 q 328 598 288 581 q 412 615 368 615 q 472 608 444 615 q 525 585 500 600 l 227 204 "},"Ð":{"ha":1028,"x_min":86,"x_max":979,"o":"m 94 1028 l 94 911 l 200 911 l 200 575 l 86 575 l 86 458 l 200 458 l 200 117 l 94 117 l 94 0 l 485 0 q 681 40 590 0 q 838 151 771 81 q 942 315 904 221 q 979 517 979 410 q 942 716 979 623 q 838 879 904 810 q 681 988 771 947 q 485 1028 590 1028 l 94 1028 m 334 458 l 460 458 l 460 575 l 334 575 l 334 911 l 493 911 q 627 880 564 911 q 737 797 690 850 q 810 672 783 743 q 838 517 838 600 q 810 360 838 433 q 737 233 783 288 q 627 148 690 179 q 493 117 564 117 l 334 117 l 334 458 "},"ð":{"ha":861,"x_min":64,"x_max":781,"o":"m 452 1035 l 293 1035 l 384 884 l 310 860 l 345 749 l 446 781 l 522 655 q 447 675 480 673 q 387 678 414 678 q 267 654 325 678 q 163 589 208 631 q 91 488 118 547 q 64 359 64 429 q 93 205 64 273 q 172 92 122 138 q 287 21 221 45 q 425 -3 352 -3 q 558 22 494 -3 q 672 93 623 47 q 751 201 722 138 q 781 342 781 264 q 758 460 781 402 q 701 582 736 519 l 570 821 l 663 851 l 627 962 l 512 925 l 452 1035 m 440 567 q 519 551 481 567 q 588 506 558 536 q 636 435 618 477 q 654 340 654 393 q 637 245 654 288 q 588 175 619 203 q 514 131 557 146 q 422 115 472 115 q 334 132 376 115 q 260 178 292 148 q 209 249 228 208 q 191 340 191 290 q 211 438 191 396 q 266 509 231 481 q 345 552 300 538 q 440 567 390 567 "},"ﬁ":{"ha":940,"x_min":47,"x_max":892,"o":"m 47 703 l 47 600 l 163 600 l 163 117 l 65 117 l 65 0 l 399 0 l 399 117 l 289 117 l 289 600 l 452 600 l 452 703 l 289 703 l 289 817 q 321 920 289 885 q 410 954 353 954 q 482 946 447 954 q 539 926 517 937 l 578 1017 q 507 1043 550 1031 q 392 1055 464 1055 q 298 1040 340 1055 q 226 995 256 1025 q 179 919 196 965 q 163 812 163 873 l 163 703 l 47 703 m 557 703 l 557 586 l 659 586 l 659 117 l 558 117 l 558 0 l 892 0 l 892 117 l 786 117 l 786 703 l 557 703 m 635 951 l 635 951 q 661 888 635 916 q 724 861 688 861 q 758 868 742 861 q 786 887 774 875 q 804 917 798 900 q 811 951 811 933 q 804 986 811 970 q 786 1013 798 1002 q 758 1032 774 1025 q 724 1039 742 1039 q 661 1013 688 1039 q 635 951 635 987 "},"ﬂ":{"ha":818,"x_min":28,"x_max":770,"o":"m 289 703 l 289 817 q 321 920 289 885 q 410 954 353 954 q 480 946 446 954 q 538 926 515 937 l 538 0 l 770 0 l 770 117 l 664 117 l 664 1055 l 538 1055 l 538 1034 q 476 1049 511 1043 q 392 1055 440 1055 q 298 1040 340 1055 q 226 995 256 1025 q 180 919 196 965 q 164 812 164 873 l 164 703 l 28 703 l 28 600 l 164 600 l 164 117 l 65 117 l 65 0 l 399 0 l 399 117 l 289 117 l 289 600 l 452 600 l 452 703 l 289 703 "},"µ":{"ha":812,"x_min":107,"x_max":768,"o":"m 690 117 l 690 703 l 558 703 l 558 158 q 472 117 517 132 q 385 102 426 102 q 277 143 315 102 q 240 265 240 184 l 240 703 l 107 703 l 107 -319 l 240 -319 l 240 5 q 340 -12 283 -12 q 460 8 404 -12 q 564 65 516 28 l 564 0 l 768 0 l 768 117 l 690 117 "},"ß":{"ha":846,"x_min":11,"x_max":792,"o":"m 399 654 l 399 528 l 453 528 q 533 511 495 528 q 600 469 571 494 q 645 405 628 444 q 662 321 662 366 q 646 245 662 284 q 601 178 629 207 q 534 132 572 149 q 452 115 496 115 q 425 117 438 115 q 399 122 412 119 l 399 -5 q 452 -9 425 -9 q 584 15 522 -9 q 692 84 646 39 q 765 191 739 129 q 792 321 792 253 q 781 409 792 368 q 750 484 770 451 q 702 547 730 517 q 640 599 674 576 q 666 630 653 612 q 689 669 679 647 q 705 717 699 691 q 711 774 711 743 q 689 883 711 831 q 626 974 666 935 q 532 1034 587 1012 q 415 1055 478 1055 q 296 1031 347 1055 q 209 968 244 1007 q 155 882 174 930 q 136 786 136 833 l 136 117 l 11 117 l 11 0 l 269 0 l 269 770 q 279 834 269 805 q 308 884 290 863 q 354 917 327 905 q 414 929 381 929 q 482 918 451 929 q 535 886 513 907 q 569 836 557 865 q 581 772 581 806 q 573 731 581 751 q 550 695 565 711 q 515 667 535 679 q 452 654 495 656 l 399 654 "},"ı":{"ha":446,"x_min":62,"x_max":397,"o":"m 62 703 l 62 586 l 164 586 l 164 117 l 64 117 l 64 0 l 397 0 l 397 117 l 292 117 l 292 703 l 62 703 "},"¹":{"ha":345,"x_min":22,"x_max":264,"o":"m 62 646 l 62 570 l 264 570 l 264 646 l 210 646 l 210 1071 l 170 1071 l 22 990 l 22 896 l 118 947 l 118 646 l 62 646 "},"²":{"ha":458,"x_min":36,"x_max":370,"o":"m 37 640 l 37 571 l 368 571 l 368 653 l 156 653 l 315 812 q 357 869 344 841 q 370 924 370 898 q 357 985 370 958 q 321 1031 344 1012 q 269 1061 299 1050 q 203 1071 238 1071 q 139 1060 169 1071 q 85 1029 109 1049 q 49 980 62 1008 q 36 916 36 951 l 121 916 q 144 968 122 948 q 201 989 165 989 q 234 983 219 989 q 258 969 248 978 q 274 948 269 960 q 279 924 279 937 q 262 874 279 898 q 224 828 245 850 l 37 640 "},"³":{"ha":428,"x_min":35,"x_max":386,"o":"m 290 925 q 269 878 290 897 q 208 860 247 860 l 171 860 l 171 787 l 210 787 q 273 769 248 787 q 297 715 297 750 q 290 687 297 700 q 272 665 283 675 q 245 651 260 656 q 212 646 229 646 q 153 663 176 646 q 125 713 130 680 l 35 713 q 50 649 35 677 q 89 603 64 622 q 144 573 113 583 q 208 564 176 564 q 278 575 245 564 q 335 607 311 587 q 372 656 359 628 q 386 717 386 684 q 366 785 386 757 q 317 826 345 813 q 363 870 348 843 q 379 929 379 897 q 367 983 379 958 q 331 1029 354 1009 q 277 1060 309 1048 q 207 1072 245 1072 q 142 1060 172 1072 q 91 1028 113 1048 q 56 982 69 1008 q 41 925 43 955 l 131 925 q 139 955 131 943 q 159 976 147 968 q 184 988 170 984 q 208 991 197 991 q 243 985 228 991 q 269 969 258 979 q 285 948 279 960 q 290 925 290 936 "},"º":{"ha":633,"x_min":69,"x_max":564,"o":"m 69 825 q 87 727 69 772 q 137 650 104 682 q 215 599 170 617 q 317 581 261 581 q 418 600 372 581 q 496 650 463 618 q 546 728 528 683 q 564 827 564 773 q 546 926 564 881 q 495 1003 528 970 q 417 1054 463 1036 q 317 1072 372 1072 q 216 1053 262 1072 q 138 1001 171 1034 q 87 923 106 968 q 69 825 69 878 m 172 825 q 184 892 172 863 q 215 940 195 921 q 261 970 235 960 q 317 980 287 980 q 374 970 347 980 q 419 940 400 960 q 450 892 439 921 q 461 825 461 863 q 450 762 461 790 q 419 713 439 733 q 374 682 400 693 q 317 671 347 671 q 261 682 287 671 q 215 713 235 693 q 184 762 195 733 q 172 825 172 790 "},"ª":{"ha":568,"x_min":69,"x_max":528,"o":"m 374 639 l 374 601 l 528 601 l 528 690 l 472 690 l 472 902 q 459 979 472 947 q 421 1031 446 1011 q 361 1062 396 1052 q 282 1072 326 1072 q 184 1057 233 1072 q 97 1019 136 1042 l 131 954 q 190 976 155 967 q 269 985 225 985 q 345 965 316 985 q 374 898 374 944 l 374 865 q 329 871 353 869 q 272 874 304 874 q 200 866 237 874 q 135 840 164 858 q 87 794 106 823 q 69 727 69 766 q 81 673 69 699 q 116 629 94 648 q 169 599 138 610 q 237 588 200 588 q 313 602 280 588 q 374 639 345 616 m 254 667 q 190 685 214 667 q 165 735 165 702 q 173 765 165 752 q 195 787 181 778 q 227 800 208 795 q 268 805 246 805 l 374 805 l 374 713 q 323 681 355 694 q 254 667 291 667 "},"¡":{"ha":463,"x_min":143,"x_max":319,"o":"m 143 685 q 150 650 143 667 q 169 622 157 634 q 197 602 181 609 q 232 595 214 595 q 266 602 250 595 q 293 622 281 609 q 312 650 305 634 q 319 685 319 667 q 312 719 319 703 q 293 746 305 734 q 266 765 281 758 q 232 772 250 772 q 197 765 214 772 q 169 746 181 758 q 150 719 157 734 q 143 685 143 703 m 171 472 l 143 -319 l 319 -319 l 292 472 l 171 472 "},"¿":{"ha":699,"x_min":5,"x_max":599,"o":"m 275 693 q 282 659 275 675 q 301 630 290 642 q 330 610 313 617 q 364 603 346 603 q 398 610 382 603 q 426 630 414 617 q 445 659 437 642 q 452 693 452 675 q 445 727 452 711 q 426 754 437 743 q 398 773 414 766 q 364 781 382 781 q 330 773 346 781 q 301 754 313 766 q 282 727 290 743 q 275 693 275 711 m 422 529 l 300 529 q 297 439 300 477 q 288 371 294 401 q 271 319 281 342 q 242 277 260 297 q 201 239 225 258 q 146 197 178 220 q 41 91 77 149 q 5 -37 5 32 q 24 -140 5 -91 q 78 -227 43 -189 q 166 -286 114 -264 q 288 -309 219 -309 q 410 -286 354 -309 q 506 -225 465 -263 q 571 -136 547 -186 q 599 -28 595 -85 l 479 -20 q 470 -71 479 -41 q 438 -127 460 -100 q 379 -173 416 -154 q 288 -192 342 -192 q 228 -178 256 -192 q 179 -143 199 -165 q 146 -92 158 -121 q 134 -33 134 -64 q 145 27 134 2 q 177 73 157 52 q 228 117 198 94 q 293 170 257 139 q 358 237 333 203 q 398 312 384 271 q 417 406 412 353 q 422 529 422 458 "},"А":{"ha":1046,"x_min":7,"x_max":1039,"o":"m 705 117 l 705 0 l 1039 0 l 1039 117 l 936 117 l 616 1028 l 416 1028 l 96 117 l 7 117 l 7 0 l 340 0 l 340 117 l 235 117 l 314 350 l 709 350 l 791 117 l 705 117 m 353 463 l 510 922 l 670 463 l 353 463 "},"Б":{"ha":917,"x_min":81,"x_max":847,"o":"m 81 117 l 81 0 l 526 0 q 656 24 597 0 q 757 91 714 49 q 824 188 800 132 q 847 306 847 243 q 824 422 847 368 q 760 515 802 476 q 659 576 718 554 q 528 599 600 599 l 310 599 l 310 917 l 682 917 l 682 757 l 821 757 l 821 1028 l 97 1028 l 97 917 l 176 917 l 176 117 l 81 117 m 310 482 l 517 482 q 602 468 566 482 q 661 428 637 453 q 696 370 685 403 q 707 298 707 336 q 657 168 707 218 q 522 117 607 117 l 310 117 l 310 482 "},"В":{"ha":897,"x_min":97,"x_max":865,"o":"m 97 117 l 97 0 l 566 0 q 683 24 628 0 q 778 89 737 47 q 842 186 819 130 q 865 306 865 241 q 855 370 865 338 q 825 429 844 401 q 779 480 806 456 q 719 521 752 503 q 823 608 787 553 q 860 728 860 662 q 837 846 860 791 q 772 941 813 901 q 677 1005 732 981 q 559 1028 622 1028 l 97 1029 l 97 911 l 195 911 l 195 117 l 97 117 m 328 457 l 567 457 q 627 444 599 457 q 676 410 655 431 q 709 360 696 388 q 721 302 721 332 q 709 235 721 268 q 676 175 697 201 q 627 133 655 149 q 567 117 600 117 l 328 117 l 328 457 m 328 911 l 561 911 q 621 895 593 911 q 670 854 649 880 q 703 797 691 829 q 715 732 715 765 q 703 673 715 701 q 670 623 691 644 q 622 588 650 601 q 561 575 593 575 l 328 575 l 328 911 "},"Г":{"ha":833,"x_min":97,"x_max":825,"o":"m 97 117 l 97 0 l 431 0 l 431 117 l 325 117 l 325 917 l 686 917 l 686 757 l 825 757 l 825 1028 l 98 1028 l 98 917 l 192 917 l 192 117 l 97 117 "},"Д":{"ha":1099,"x_min":41,"x_max":1002,"o":"m 41 117 l 41 -236 l 174 -236 l 174 0 l 868 0 l 868 -236 l 1002 -236 l 1002 117 l 903 117 l 903 911 l 1002 911 l 1002 1028 l 164 1028 l 164 911 l 272 911 l 272 498 q 264 357 272 424 q 233 239 256 290 q 174 155 211 187 q 77 117 136 122 l 41 117 m 403 489 l 403 911 l 770 911 l 770 117 l 289 117 q 374 260 346 168 q 403 489 403 351 "},"Е":{"ha":872,"x_min":97,"x_max":833,"o":"m 97 1028 l 97 911 l 195 911 l 195 117 l 97 117 l 97 0 l 833 0 l 833 290 l 694 290 l 694 117 l 328 117 l 328 465 l 636 465 l 636 582 l 328 582 l 328 911 l 694 911 l 694 737 l 833 737 l 833 1028 l 97 1028 "},"Ж":{"ha":1438,"x_min":54,"x_max":1385,"o":"m 555 117 l 555 0 l 889 0 l 889 117 l 783 117 l 783 469 l 860 469 l 1124 117 l 1124 0 l 1385 0 l 1385 117 l 1275 117 l 954 529 l 1283 911 l 1364 911 l 1364 1028 l 1143 1028 l 1143 911 l 871 586 l 783 586 l 783 911 l 890 911 l 890 1028 l 557 1028 l 557 911 l 650 911 l 650 586 l 563 586 l 297 911 l 297 1028 l 74 1028 l 74 911 l 154 911 l 477 530 l 171 117 l 54 117 l 54 0 l 318 0 l 318 117 l 574 469 l 650 469 l 650 117 l 555 117 "},"З":{"ha":821,"x_min":62,"x_max":737,"o":"m 62 338 l 62 221 l 102 221 q 149 121 119 164 q 219 49 179 78 q 307 5 258 20 q 411 -9 355 -9 q 538 14 479 -9 q 642 78 597 37 q 712 176 686 119 q 737 300 737 233 q 691 454 737 393 q 582 541 646 515 q 693 639 660 579 q 726 766 726 699 q 704 870 726 819 q 639 961 681 921 q 538 1024 597 1000 q 407 1048 479 1048 q 238 997 313 1048 q 126 865 163 945 l 69 865 l 69 749 l 236 749 l 236 815 q 253 849 240 829 q 289 886 267 868 q 342 917 311 904 q 408 930 372 930 q 492 914 457 930 q 551 871 528 897 q 586 816 575 846 q 597 760 597 786 q 584 693 597 724 q 546 640 571 663 q 486 603 521 616 q 406 590 450 590 l 358 590 l 358 488 l 416 488 q 491 474 456 488 q 553 437 526 461 q 594 378 579 412 q 610 301 610 343 q 594 227 610 261 q 553 167 579 192 q 493 127 526 142 q 425 113 460 113 q 299 146 349 113 q 229 239 250 179 l 229 338 l 62 338 "},"И":{"ha":1250,"x_min":97,"x_max":1153,"o":"m 97 1028 l 97 911 l 199 911 l 199 117 l 98 117 l 98 0 l 351 0 l 923 861 l 923 117 l 819 117 l 819 0 l 1153 0 l 1153 117 l 1057 117 l 1057 911 l 1153 911 l 1153 1028 l 898 1028 l 329 164 l 329 911 l 437 911 l 437 1028 l 97 1028 "},"К":{"ha":1060,"x_min":97,"x_max":1014,"o":"m 778 911 l 329 525 l 737 117 l 737 0 l 1014 0 l 1014 117 l 904 117 l 483 532 l 933 911 l 1014 911 l 1014 1028 l 778 1028 l 778 911 m 98 1028 l 98 911 l 195 911 l 195 117 l 97 117 l 97 0 l 431 0 l 431 117 l 328 117 l 328 911 l 432 911 l 432 1028 l 98 1028 "},"Л":{"ha":1117,"x_min":21,"x_max":1019,"o":"m 686 117 l 686 0 l 1019 0 l 1019 117 l 921 117 l 921 911 l 1019 911 l 1019 1028 l 179 1028 l 179 911 l 294 911 q 294 705 294 807 q 294 498 294 603 q 289 368 294 431 q 268 253 283 304 q 223 164 252 201 q 149 111 195 126 l 149 211 l 21 211 l 21 0 l 139 0 q 260 38 207 0 q 348 143 313 75 q 402 305 383 211 q 421 510 421 399 l 421 911 l 787 911 l 787 117 l 686 117 "},"М":{"ha":1475,"x_min":97,"x_max":1388,"o":"m 97 117 l 97 0 l 431 0 l 431 117 l 325 117 l 325 908 l 689 0 l 804 0 l 1164 906 l 1164 117 l 1054 117 l 1054 0 l 1388 0 l 1388 117 l 1291 117 l 1291 899 l 1388 899 l 1388 1028 l 1079 1028 l 749 140 l 422 1028 l 97 1028 l 97 899 l 195 899 l 195 117 l 97 117 "},"Н":{"ha":1250,"x_min":97,"x_max":1153,"o":"m 819 1028 l 819 911 l 922 911 l 922 600 l 328 600 l 328 911 l 431 911 l 431 1028 l 97 1028 l 97 911 l 195 911 l 195 117 l 97 117 l 97 0 l 431 0 l 431 117 l 328 117 l 328 486 l 922 486 l 922 117 l 819 117 l 819 0 l 1153 0 l 1153 117 l 1055 117 l 1055 911 l 1153 911 l 1153 1028 l 819 1028 "},"О":{"ha":1086,"x_min":49,"x_max":1035,"o":"m 542 -20 q 741 21 650 -20 q 897 136 831 63 q 999 306 962 208 q 1035 514 1035 403 q 999 723 1035 625 q 898 893 963 821 q 742 1007 833 965 q 542 1048 651 1048 q 343 1007 433 1048 q 187 893 252 965 q 85 723 121 821 q 49 514 49 625 q 85 306 49 406 q 190 132 121 205 q 347 19 259 59 q 542 -20 435 -20 m 542 106 q 398 139 461 106 q 289 221 334 172 q 215 345 243 271 q 187 514 187 419 q 212 670 187 595 q 283 800 237 744 q 395 889 330 856 q 542 922 461 922 q 677 893 612 922 q 792 809 743 863 q 868 676 841 755 q 896 514 896 598 q 871 358 896 432 q 800 228 846 284 q 688 139 753 172 q 542 106 623 106 "},"П":{"ha":1195,"x_min":97,"x_max":1097,"o":"m 98 1028 l 98 911 l 195 911 l 195 117 l 97 117 l 97 0 l 431 0 l 431 117 l 328 117 l 328 911 l 867 911 l 867 117 l 764 117 l 764 0 l 1097 0 l 1097 117 l 1000 117 l 1000 911 l 1097 911 l 1097 1028 l 98 1028 "},"Р":{"ha":863,"x_min":97,"x_max":829,"o":"m 97 1028 l 97 911 l 195 911 l 195 117 l 97 117 l 97 0 l 431 0 l 431 117 l 328 117 l 328 476 l 510 476 q 641 498 582 476 q 741 557 699 519 q 806 644 783 594 q 829 750 829 694 q 806 870 829 818 q 740 957 783 922 q 640 1010 698 992 q 513 1028 582 1028 l 97 1028 m 328 911 l 496 911 q 643 868 597 911 q 689 750 689 826 q 676 680 689 710 q 639 629 663 649 q 584 598 616 608 q 513 587 551 587 l 328 587 l 328 911 "},"С":{"ha":1019,"x_min":49,"x_max":981,"o":"m 827 757 l 972 757 l 972 878 l 901 878 q 818 958 866 921 q 702 1022 770 995 q 539 1048 633 1048 q 343 1007 433 1048 q 187 893 252 965 q 85 723 121 821 q 49 515 49 625 q 85 306 49 406 q 190 132 121 205 q 347 19 259 59 q 541 -20 435 -20 q 741 21 650 -20 q 893 131 831 63 q 981 273 955 199 l 861 329 q 726 158 805 210 q 539 106 646 106 q 397 139 460 106 q 289 221 334 172 q 214 345 243 271 q 186 515 186 419 q 212 670 186 597 q 284 800 237 744 q 395 889 330 856 q 539 922 460 922 q 706 878 631 922 q 827 757 781 834 "},"Т":{"ha":972,"x_min":28,"x_max":945,"o":"m 307 117 l 307 0 l 640 0 l 640 117 l 534 117 l 534 917 l 806 917 l 806 757 l 945 757 l 945 1028 l 28 1028 l 28 757 l 167 757 l 167 917 l 401 917 l 401 117 l 307 117 "},"У":{"ha":882,"x_min":16,"x_max":873,"o":"m 590 1028 l 590 911 l 679 911 l 464 385 l 241 911 l 326 911 l 326 1028 l 16 1028 l 16 911 l 100 911 q 253 576 176 743 q 406 241 329 410 l 394 215 q 355 143 374 168 q 318 106 336 118 q 283 92 300 94 q 250 90 267 90 l 250 211 l 122 211 l 122 0 l 125 0 q 187 -10 147 -7 q 258 -14 227 -14 q 346 5 308 -14 q 416 58 385 24 q 473 139 447 92 q 525 245 500 187 l 812 911 l 873 911 l 873 1028 l 590 1028 "},"Ф":{"ha":1044,"x_min":24,"x_max":1023,"o":"m 368 1083 l 368 981 l 456 981 l 456 899 l 446 899 q 270 873 349 899 q 137 801 192 847 q 53 691 82 755 q 24 549 24 627 q 54 408 24 472 q 140 297 85 343 q 274 224 196 250 q 446 199 351 199 l 456 199 l 456 117 l 354 117 l 354 0 l 688 0 l 688 117 l 589 117 l 589 199 l 602 199 q 773 224 696 199 q 907 297 851 250 q 993 408 962 343 q 1023 549 1023 472 q 993 691 1023 627 q 907 801 962 755 q 775 873 852 847 q 602 899 697 899 l 589 899 l 589 981 l 673 981 l 673 1083 l 368 1083 m 589 790 l 603 790 q 736 771 682 790 q 824 721 790 753 q 872 644 857 689 q 886 547 886 599 q 871 451 886 494 q 822 375 856 407 q 735 326 789 343 q 603 309 681 309 l 589 309 l 589 790 m 161 547 l 161 547 q 177 645 161 600 q 226 721 192 689 q 314 771 260 753 q 444 790 368 790 l 456 790 l 456 309 l 444 309 q 315 326 368 309 q 227 375 261 343 q 177 451 193 407 q 161 547 161 494 "},"Х":{"ha":1053,"x_min":115,"x_max":978,"o":"m 644 1028 l 644 911 l 752 911 l 550 629 l 350 911 l 449 911 l 449 1028 l 115 1028 l 115 911 l 199 911 l 475 526 l 182 117 l 115 117 l 115 0 l 449 0 l 449 117 l 329 117 l 550 422 l 770 117 l 644 117 l 644 0 l 978 0 l 978 117 l 914 117 l 624 525 l 902 911 l 978 911 l 978 1028 l 644 1028 "},"Ц":{"ha":1208,"x_min":97,"x_max":1154,"o":"m 778 1028 l 778 911 l 880 911 l 880 110 l 328 110 l 328 911 l 431 911 l 431 1028 l 97 1028 l 97 911 l 195 911 l 195 110 l 97 110 l 97 0 l 1026 0 l 1026 -236 l 1154 -236 l 1154 110 l 1014 110 l 1014 911 l 1111 911 l 1111 1028 l 778 1028 "},"Ч":{"ha":1069,"x_min":47,"x_max":972,"o":"m 47 1028 l 47 911 l 135 911 l 135 623 q 158 488 135 541 q 225 406 182 436 q 332 365 269 376 q 473 354 395 354 q 608 368 541 354 q 742 403 676 382 l 742 117 l 639 117 l 639 0 l 972 0 l 972 117 l 875 117 l 875 911 l 972 911 l 972 1028 l 639 1028 l 639 911 l 742 911 l 742 525 q 608 489 675 503 q 473 475 541 475 q 376 481 415 475 q 312 506 336 488 q 278 559 288 525 q 268 648 268 593 l 268 911 l 364 911 l 364 1028 l 47 1028 "},"Ш":{"ha":1586,"x_min":97,"x_max":1489,"o":"m 98 1028 l 98 911 l 196 911 l 196 110 l 97 110 l 97 0 l 1486 0 l 1486 110 l 1386 110 l 1386 911 l 1489 911 l 1489 1028 l 1156 1028 l 1156 911 l 1253 911 l 1253 110 l 859 110 l 859 911 l 954 911 l 954 1028 l 621 1028 l 621 911 l 725 911 l 725 110 l 329 110 l 329 911 l 432 911 l 432 1028 l 98 1028 "},"Щ":{"ha":1586,"x_min":97,"x_max":1546,"o":"m 1156 1028 l 1156 911 l 1253 911 l 1253 110 l 859 110 l 859 911 l 954 911 l 954 1028 l 621 1028 l 621 911 l 725 911 l 725 110 l 329 110 l 329 911 l 432 911 l 432 1028 l 98 1028 l 98 911 l 196 911 l 196 110 l 97 110 l 97 0 l 1418 0 l 1418 -236 l 1546 -236 l 1546 110 l 1386 110 l 1386 911 l 1489 911 l 1489 1028 l 1156 1028 "},"Ъ":{"ha":1090,"x_min":22,"x_max":1039,"o":"m 272 117 l 272 0 l 718 0 q 847 24 789 0 q 948 91 905 49 q 1015 188 991 132 q 1039 306 1039 243 q 1016 422 1039 368 q 951 515 993 476 q 850 576 909 554 q 720 599 791 599 l 501 599 l 501 917 l 612 917 l 612 1028 l 22 1028 l 22 757 l 161 757 l 161 917 l 368 917 l 368 117 l 272 117 m 501 482 l 708 482 q 793 468 757 482 q 853 428 829 453 q 887 370 876 403 q 899 298 899 336 q 849 168 899 218 q 714 117 799 117 l 501 117 l 501 482 "},"Ы":{"ha":1308,"x_min":79,"x_max":1232,"o":"m 81 1028 l 81 911 l 175 911 l 175 117 l 79 117 l 79 0 l 525 0 q 654 24 596 0 q 756 91 713 49 q 822 188 799 132 q 846 306 846 243 q 823 422 846 368 q 759 515 800 476 q 658 576 717 554 q 526 599 599 599 l 309 599 l 309 911 l 414 911 l 414 1028 l 81 1028 m 899 1028 l 899 911 l 991 911 l 991 117 l 897 117 l 897 0 l 1231 0 l 1231 117 l 1125 117 l 1125 911 l 1232 911 l 1232 1028 l 899 1028 m 309 482 l 515 482 q 600 468 564 482 q 660 428 636 453 q 694 370 684 403 q 705 298 705 336 q 655 168 705 218 q 521 117 606 117 l 309 117 l 309 482 "},"Ь":{"ha":915,"x_min":97,"x_max":863,"o":"m 100 1028 l 100 911 l 193 911 l 193 117 l 97 117 l 97 0 l 543 0 q 672 24 614 0 q 773 91 730 49 q 840 188 817 132 q 863 306 863 243 q 841 422 863 368 q 776 515 818 476 q 675 576 734 554 q 544 599 616 599 l 326 599 l 326 911 l 433 911 l 433 1028 l 100 1028 m 326 482 l 533 482 q 617 468 581 482 q 677 428 654 453 q 712 370 701 403 q 723 298 723 336 q 673 168 723 218 q 538 117 623 117 l 326 117 l 326 482 "},"Э":{"ha":1086,"x_min":104,"x_max":1010,"o":"m 338 575 l 338 460 l 871 460 q 840 329 867 392 q 770 216 814 265 q 666 138 726 167 q 533 109 606 109 q 432 123 476 109 q 351 167 387 138 q 283 238 314 196 q 227 335 253 281 l 104 279 q 176 158 135 212 q 269 63 216 103 q 388 2 322 24 q 533 -20 454 -20 q 731 23 643 -20 q 881 140 819 66 q 977 310 943 214 q 1010 515 1010 407 q 977 720 1010 624 q 881 889 943 817 q 730 1005 818 962 q 533 1047 642 1047 q 419 1035 469 1047 q 327 1001 368 1023 q 249 948 285 979 q 178 878 212 917 l 114 878 l 114 757 l 260 757 q 308 827 282 796 q 366 878 334 857 q 440 910 399 899 q 533 921 481 921 q 662 894 604 921 q 763 820 720 867 q 834 709 807 772 q 869 575 861 646 l 338 575 "},"Ю":{"ha":1529,"x_min":97,"x_max":1479,"o":"m 98 1028 l 98 911 l 192 911 l 192 117 l 97 117 l 97 0 l 431 0 l 431 117 l 325 117 l 325 485 l 492 485 q 535 287 497 379 q 639 126 574 195 q 792 19 704 58 q 986 -21 880 -21 q 1185 21 1095 -21 q 1341 135 1275 62 q 1443 306 1407 208 q 1479 514 1479 403 q 1443 723 1479 625 q 1342 893 1407 821 q 1186 1007 1276 965 q 986 1048 1096 1048 q 806 1015 889 1048 q 659 920 722 981 q 553 779 595 860 q 497 602 511 697 l 325 602 l 325 911 l 432 911 l 432 1028 l 98 1028 m 986 107 l 986 107 q 840 140 905 107 q 729 229 775 172 q 656 358 682 285 q 631 514 631 432 q 656 670 631 596 q 727 800 681 743 q 840 889 774 856 q 986 922 905 922 q 1132 889 1067 922 q 1243 800 1197 856 q 1314 669 1289 743 q 1339 514 1339 595 q 1314 358 1339 432 q 1243 229 1289 285 q 1132 140 1197 172 q 986 107 1067 107 "},"Я":{"ha":993,"x_min":97,"x_max":925,"o":"m 591 117 l 591 0 l 925 0 l 925 117 l 819 117 l 819 911 l 922 911 l 922 1029 l 485 1028 q 355 1010 415 1028 q 251 957 296 991 q 180 870 205 922 q 154 750 154 818 q 168 672 154 711 q 205 600 182 633 q 262 538 229 566 q 336 496 296 511 q 281 439 307 476 q 244 353 256 401 l 187 129 l 98 129 l 97 0 l 297 0 l 374 313 q 438 437 395 397 q 555 476 481 476 l 686 476 l 686 117 l 591 117 m 294 749 l 294 749 q 347 869 294 827 q 501 911 400 911 l 686 911 l 686 587 l 471 587 q 344 628 393 587 q 294 749 294 669 "},"а":{"ha":707,"x_min":47,"x_max":685,"o":"m 481 65 l 481 0 l 685 0 l 685 117 l 607 117 l 608 468 q 589 581 608 534 q 537 659 571 628 q 454 704 503 689 q 345 718 406 718 q 277 712 311 718 q 210 697 243 707 q 147 673 177 687 q 92 643 117 659 l 134 555 q 170 575 149 566 q 217 591 191 584 q 271 603 242 598 q 332 607 300 607 q 394 598 366 607 q 441 571 421 589 q 471 526 460 553 q 482 461 482 498 l 481 404 q 421 412 454 409 q 339 415 388 415 q 275 411 309 415 q 209 396 241 406 q 148 368 177 385 q 96 325 118 351 q 61 265 74 300 q 47 186 47 231 q 65 106 47 144 q 113 41 82 69 q 188 -3 144 13 q 282 -20 231 -20 q 392 4 344 -20 q 481 65 441 28 m 310 86 q 253 93 279 86 q 209 114 227 100 q 180 149 190 128 q 170 197 170 170 q 182 250 170 227 q 216 289 194 273 q 268 313 238 304 q 335 321 298 321 l 481 321 l 481 162 q 449 133 468 147 q 408 109 430 119 q 360 92 385 98 q 310 86 335 86 "},"б":{"ha":831,"x_min":57,"x_max":764,"o":"m 189 608 l 189 644 q 208 733 189 688 q 262 816 227 779 q 348 876 297 852 q 461 900 399 900 l 729 900 l 729 1055 l 578 1055 l 578 1014 l 457 1014 q 297 984 370 1014 q 171 900 224 954 q 89 769 118 846 q 58 602 60 693 q 58 488 58 550 q 57 358 57 425 q 82 213 57 282 q 153 92 107 144 q 264 9 199 40 q 412 -21 330 -21 q 558 6 493 -21 q 668 82 623 33 q 739 200 714 131 q 764 353 764 269 q 742 496 764 428 q 679 614 721 564 q 576 695 637 665 q 433 725 514 725 q 290 694 350 725 q 189 608 229 664 m 412 89 l 412 89 q 327 107 367 89 q 258 161 288 126 q 211 247 228 196 q 193 363 193 297 l 193 374 q 213 473 195 428 q 263 549 232 518 q 334 598 294 581 q 418 615 374 615 q 506 598 465 615 q 575 547 546 581 q 621 465 604 514 q 637 351 637 415 q 620 242 637 290 q 571 159 602 193 q 499 107 541 125 q 412 89 458 89 "},"в":{"ha":850,"x_min":75,"x_max":768,"o":"m 75 0 l 496 0 q 608 15 558 0 q 693 58 658 31 q 748 121 729 85 q 768 200 768 157 q 739 291 768 252 q 656 354 709 330 q 735 412 708 376 q 762 493 762 447 q 689 645 762 587 q 490 703 616 703 l 75 703 l 75 586 l 155 586 l 155 117 l 75 117 l 75 0 m 283 302 l 497 302 q 592 270 561 302 q 623 197 623 237 q 593 137 623 157 q 497 117 562 117 l 283 117 l 283 302 m 283 586 l 492 586 q 587 557 555 586 q 618 486 618 529 q 587 424 618 447 q 492 400 557 400 l 283 400 l 283 586 "},"г":{"ha":718,"x_min":75,"x_max":677,"o":"m 75 117 l 75 0 l 408 0 l 408 117 l 305 117 l 305 591 l 545 591 l 545 460 l 677 460 l 677 703 l 75 703 l 75 591 l 178 591 l 178 117 l 75 117 "},"д":{"ha":975,"x_min":68,"x_max":900,"o":"m 68 115 l 68 -195 l 199 -195 l 199 0 l 769 0 l 769 -195 l 900 -195 l 900 118 l 775 118 l 775 586 l 886 586 l 886 703 l 171 703 l 171 586 l 281 586 l 281 498 q 271 355 281 421 q 238 239 261 289 q 178 158 215 189 q 89 118 142 126 l 68 115 m 403 454 l 403 586 l 647 586 l 647 118 l 281 118 q 373 252 342 167 q 403 454 403 336 "},"е":{"ha":798,"x_min":62,"x_max":693,"o":"m 187 335 l 693 335 q 692 387 693 360 q 688 439 691 413 q 664 543 681 492 q 613 633 646 593 q 526 697 579 673 q 393 721 473 721 q 250 692 311 721 q 146 613 188 663 q 83 496 104 563 q 62 354 62 429 q 87 191 62 261 q 156 75 112 121 q 260 4 199 28 q 392 -20 321 -20 q 537 3 467 -20 q 676 74 607 26 l 625 160 q 516 112 568 127 q 410 97 465 97 q 284 131 340 97 q 204 233 229 165 q 192 280 196 256 q 187 335 187 305 m 385 615 q 463 602 431 615 q 515 564 495 588 q 546 506 536 539 q 558 433 555 473 l 194 433 q 215 509 201 475 q 252 567 229 543 q 308 603 275 590 q 385 615 340 615 "},"ж":{"ha":1239,"x_min":43,"x_max":1197,"o":"m 555 300 l 555 0 l 755 0 l 755 117 l 682 117 l 682 300 l 775 300 l 1048 0 l 1197 0 l 1197 117 l 1112 117 l 893 351 l 1108 586 l 1196 586 l 1196 703 l 929 703 l 929 586 l 975 586 l 804 400 l 682 400 l 682 703 l 482 703 l 482 586 l 555 586 l 555 400 l 436 400 l 264 586 l 311 586 l 311 703 l 43 703 l 43 586 l 131 586 l 347 351 l 127 117 l 43 117 l 43 0 l 297 0 l 297 115 l 465 300 l 555 300 "},"з":{"ha":661,"x_min":29,"x_max":612,"o":"m 479 526 l 479 526 q 431 447 479 471 q 317 422 383 422 l 271 422 l 271 317 l 338 317 q 394 311 367 317 q 442 292 421 304 q 475 260 463 279 q 488 214 488 240 q 475 161 488 183 q 441 125 463 139 q 389 104 419 111 q 326 97 359 97 q 211 126 256 97 q 153 218 165 155 l 29 189 q 65 104 37 142 q 133 40 93 66 q 222 0 172 14 q 326 -14 272 -14 q 438 4 386 -14 q 529 52 490 21 q 590 123 568 82 q 612 212 612 164 q 606 255 612 232 q 586 299 600 278 q 549 339 572 321 q 490 371 525 358 q 549 403 526 383 q 585 445 572 422 q 602 490 597 467 q 606 533 606 514 q 588 610 606 572 q 534 677 570 648 q 447 725 498 707 q 329 743 396 743 q 187 710 250 743 q 87 628 123 676 l 37 628 l 37 511 l 125 511 q 147 511 136 511 q 170 511 158 511 q 184 558 172 536 q 217 596 196 581 q 265 622 237 612 q 329 632 293 632 q 443 604 407 632 q 479 526 479 575 "},"и":{"ha":980,"x_min":75,"x_max":905,"o":"m 75 703 l 75 586 l 169 586 l 169 117 l 76 117 l 76 0 l 309 0 l 686 554 l 686 117 l 572 117 l 572 0 l 905 0 l 905 117 l 814 117 l 814 583 l 905 583 l 905 703 l 665 703 l 297 158 l 297 586 l 408 586 l 408 703 l 75 703 "},"к":{"ha":877,"x_min":75,"x_max":823,"o":"m 75 703 l 75 586 l 182 586 l 182 117 l 75 117 l 75 0 l 375 0 l 375 117 l 308 117 l 308 314 l 401 314 l 675 0 l 823 0 l 823 117 l 739 117 l 519 366 l 733 586 l 822 586 l 822 703 l 555 703 l 555 586 l 597 586 l 430 414 l 308 414 l 308 586 l 375 586 l 375 703 l 75 703 "},"л":{"ha":882,"x_min":36,"x_max":807,"o":"m 473 117 l 473 0 l 807 0 l 807 117 l 708 117 l 708 586 l 796 586 l 796 703 l 146 703 l 146 586 l 239 586 l 237 435 q 227 276 237 339 q 193 178 216 214 q 131 127 170 142 q 36 113 93 113 l 36 -1 l 61 -1 q 149 5 109 -1 q 222 30 189 12 q 281 77 256 47 q 325 154 307 107 q 351 265 342 200 q 359 418 359 330 l 359 586 l 581 586 l 581 117 l 473 117 "},"м":{"ha":1162,"x_min":75,"x_max":1088,"o":"m 754 117 l 754 0 l 1087 0 l 1087 117 l 982 117 l 982 585 l 1088 585 l 1088 703 l 844 703 l 585 225 l 317 703 l 75 703 l 75 585 l 180 585 l 180 117 l 75 117 l 75 0 l 408 0 l 408 117 l 304 117 l 304 473 l 305 473 l 586 -7 l 854 473 l 857 473 l 857 117 l 754 117 "},"н":{"ha":975,"x_min":75,"x_max":901,"o":"m 581 703 l 581 586 l 671 586 l 671 436 l 301 436 l 301 586 l 396 586 l 396 703 l 76 703 l 76 586 l 174 586 l 174 117 l 75 117 l 75 0 l 395 0 l 395 117 l 301 117 l 301 323 l 671 323 l 671 117 l 581 117 l 581 0 l 901 0 l 901 117 l 799 117 l 799 586 l 901 586 l 901 703 l 581 703 "},"о":{"ha":827,"x_min":58,"x_max":762,"o":"m 58 351 q 85 200 59 269 q 157 82 111 132 q 267 6 203 33 q 411 -21 332 -21 q 554 6 489 -21 q 665 83 618 34 q 736 202 711 133 q 762 353 762 271 q 736 505 762 436 q 665 622 711 573 q 554 696 618 670 q 411 723 489 723 q 269 696 334 723 q 158 621 205 670 q 85 503 111 572 q 58 351 59 435 m 192 351 q 209 465 192 415 q 257 547 227 514 q 327 597 287 581 q 411 614 366 614 q 498 597 458 614 q 569 547 539 581 q 615 465 598 514 q 632 351 632 415 q 615 241 632 290 q 568 158 598 193 q 498 106 538 124 q 411 87 458 87 q 327 106 366 87 q 257 159 287 125 q 209 242 227 193 q 192 351 192 291 "},"п":{"ha":934,"x_min":75,"x_max":859,"o":"m 76 703 l 76 586 l 174 586 l 174 117 l 75 117 l 75 0 l 408 0 l 408 117 l 301 117 l 301 586 l 630 586 l 630 117 l 526 117 l 526 0 l 859 0 l 859 117 l 758 117 l 758 586 l 859 586 l 859 703 l 76 703 "},"р":{"ha":847,"x_min":40,"x_max":785,"o":"m 40 703 l 40 586 l 138 586 l 138 -203 l 41 -203 l 41 -319 l 375 -319 l 375 -203 l 265 -203 l 265 24 q 345 -4 303 7 q 440 -16 387 -16 q 578 12 515 -16 q 687 90 642 40 q 759 210 733 140 q 785 364 785 279 q 762 509 785 444 q 697 621 739 574 q 597 694 655 668 q 471 720 540 720 q 361 699 414 720 q 264 644 309 679 l 264 703 l 40 703 m 437 608 q 522 592 482 608 q 590 543 561 575 q 637 465 620 511 q 654 359 654 419 q 636 245 654 294 q 587 162 618 195 q 517 111 557 128 q 433 94 477 94 q 329 113 371 94 q 265 154 288 131 l 265 534 q 343 589 298 569 q 437 608 389 608 "},"с":{"ha":757,"x_min":62,"x_max":703,"o":"m 575 515 l 703 515 l 703 632 l 631 632 q 527 702 587 679 q 401 725 468 725 q 269 697 331 725 q 161 620 208 669 q 89 503 115 571 q 62 353 62 434 q 87 203 62 271 q 158 85 113 134 q 265 8 203 35 q 400 -20 327 -20 q 495 -6 450 -20 q 578 31 541 7 q 646 90 616 56 q 696 168 675 125 l 591 220 q 515 127 563 159 q 401 96 467 96 q 319 114 357 96 q 252 165 281 132 q 206 246 222 199 q 189 353 189 294 q 206 461 189 412 q 251 543 222 509 q 319 595 280 577 q 401 614 357 614 q 503 590 459 614 q 575 515 547 566 "},"т":{"ha":807,"x_min":41,"x_max":766,"o":"m 246 117 l 246 0 l 579 0 l 579 117 l 467 117 l 467 591 l 633 591 l 633 460 l 766 460 l 766 703 l 41 703 l 41 460 l 174 460 l 174 591 l 339 591 l 339 117 l 246 117 "},"у":{"ha":735,"x_min":21,"x_max":725,"o":"m 458 703 l 458 586 l 542 586 l 370 138 l 204 586 l 288 586 l 288 703 l 21 703 l 21 586 l 78 586 l 310 -3 l 304 -18 q 211 -160 265 -118 q 92 -203 157 -203 l 57 -203 l 57 -319 l 89 -319 q 188 -304 143 -319 q 270 -258 233 -289 q 338 -179 307 -227 q 393 -68 368 -132 l 653 586 l 725 586 l 725 703 l 458 703 "},"ф":{"ha":1246,"x_min":62,"x_max":1185,"o":"m 463 1055 l 463 939 l 558 939 l 558 689 q 480 714 521 708 q 392 720 440 720 q 256 694 317 720 q 153 620 196 668 q 86 506 110 572 q 62 358 62 439 q 86 198 62 268 q 152 82 110 129 q 254 9 195 35 q 385 -16 314 -16 q 483 -2 439 -16 q 558 37 526 11 l 558 -203 l 456 -203 l 456 -319 l 789 -319 l 789 -203 l 685 -203 l 685 24 q 761 -2 717 7 q 852 -11 804 -11 q 991 16 929 -11 q 1096 92 1053 43 q 1162 211 1139 142 q 1185 364 1185 279 q 1162 508 1185 443 q 1100 621 1140 574 q 1004 694 1060 668 q 882 720 949 720 q 779 709 829 720 q 685 671 728 699 l 685 1055 l 463 1055 m 848 608 l 848 608 q 929 592 892 608 q 994 543 966 575 q 1038 465 1022 511 q 1054 359 1054 419 q 1037 244 1054 293 q 991 163 1019 195 q 924 115 962 131 q 844 98 886 98 q 745 110 785 98 q 685 140 705 121 l 685 547 q 759 594 717 579 q 848 608 802 608 m 403 94 l 403 94 q 319 111 357 94 q 252 160 281 127 q 209 243 224 193 q 193 359 193 293 q 209 465 193 419 q 253 543 225 511 q 318 592 281 575 q 399 608 355 608 q 484 602 441 608 q 558 567 526 595 l 558 149 q 497 110 536 125 q 403 94 458 94 "},"х":{"ha":736,"x_min":35,"x_max":704,"o":"m 471 117 l 471 0 l 704 0 l 704 117 l 652 117 l 442 357 l 641 586 l 701 586 l 701 703 l 468 703 l 468 586 l 502 586 l 371 419 l 241 586 l 268 586 l 268 703 l 35 703 l 35 586 l 106 586 l 307 366 l 93 117 l 36 117 l 36 0 l 269 0 l 269 117 l 235 117 l 371 290 l 511 117 l 471 117 "},"ц":{"ha":950,"x_min":75,"x_max":886,"o":"m 525 703 l 525 586 l 631 586 l 631 110 l 301 110 l 301 586 l 408 586 l 408 703 l 75 703 l 75 586 l 174 586 l 174 110 l 76 110 l 76 0 l 762 0 l 762 -195 l 886 -195 l 886 110 l 758 110 l 758 586 l 858 586 l 858 703 l 525 703 "},"ч":{"ha":830,"x_min":7,"x_max":755,"o":"m 7 703 l 7 586 l 93 586 l 93 509 q 116 375 93 427 q 178 295 139 323 q 268 256 216 267 q 378 245 319 245 q 457 249 419 245 q 526 258 494 252 l 526 117 l 422 117 l 422 0 l 755 0 l 755 117 l 654 117 l 654 586 l 755 586 l 755 703 l 422 703 l 422 586 l 526 586 l 526 363 q 463 355 497 357 q 385 353 428 353 q 314 358 345 353 q 262 381 283 364 q 231 432 241 399 q 221 521 221 465 l 221 586 l 340 586 l 340 703 l 7 703 "},"ш":{"ha":1344,"x_min":75,"x_max":1269,"o":"m 76 703 l 76 586 l 172 586 l 172 110 l 75 110 l 75 0 l 1269 0 l 1269 110 l 1158 110 l 1158 586 l 1267 586 l 1267 703 l 935 703 l 935 586 l 1030 586 l 1030 110 l 732 110 l 732 586 l 834 586 l 834 703 l 501 703 l 501 586 l 604 586 l 604 110 l 300 110 l 300 586 l 410 586 l 410 703 l 76 703 "},"щ":{"ha":1354,"x_min":75,"x_max":1290,"o":"m 935 703 l 935 586 l 1030 586 l 1030 110 l 732 110 l 732 586 l 834 586 l 834 703 l 501 703 l 501 586 l 604 586 l 604 110 l 300 110 l 300 586 l 410 586 l 410 703 l 76 703 l 76 586 l 172 586 l 172 110 l 75 110 l 75 0 l 1166 0 l 1166 -195 l 1290 -195 l 1290 110 l 1158 110 l 1158 586 l 1267 586 l 1267 703 l 935 703 "},"ъ":{"ha":887,"x_min":41,"x_max":830,"o":"m 203 117 l 203 0 l 580 0 q 677 16 631 0 q 757 62 723 32 q 810 133 791 92 q 830 228 830 175 q 810 322 830 279 q 757 394 791 364 q 676 440 723 424 q 576 457 630 457 l 430 457 l 430 586 l 538 586 l 538 703 l 41 703 l 41 489 l 160 489 l 160 586 l 302 586 l 302 117 l 203 117 m 430 340 l 581 340 q 667 312 631 340 q 702 228 702 283 q 668 145 702 174 q 585 117 634 117 l 430 117 l 430 340 "},"ы":{"ha":1145,"x_min":75,"x_max":1071,"o":"m 75 703 l 75 586 l 173 586 l 173 117 l 75 117 l 75 0 l 451 0 q 548 16 503 0 q 628 62 594 32 q 681 133 662 92 q 701 228 701 175 q 681 322 701 279 q 628 394 662 364 q 548 440 594 424 q 447 457 501 457 l 301 457 l 301 586 l 414 586 l 414 703 l 75 703 m 301 340 l 452 340 q 538 312 503 340 q 573 228 573 283 q 539 145 573 174 q 456 117 505 117 l 301 117 l 301 340 m 737 703 l 737 586 l 838 586 l 838 117 l 737 117 l 737 0 l 1071 0 l 1071 117 l 965 117 l 965 586 l 1071 586 l 1071 703 l 737 703 "},"ь":{"ha":758,"x_min":75,"x_max":701,"o":"m 75 703 l 75 586 l 173 586 l 173 117 l 75 117 l 75 0 l 451 0 q 548 16 503 0 q 628 62 594 32 q 681 133 662 92 q 701 228 701 175 q 681 322 701 279 q 628 394 662 364 q 548 440 594 424 q 447 457 501 457 l 301 457 l 301 586 l 414 586 l 414 703 l 75 703 m 301 340 l 452 340 q 538 312 503 340 q 573 228 573 283 q 539 145 573 174 q 456 117 505 117 l 301 117 l 301 340 "},"э":{"ha":793,"x_min":82,"x_max":729,"o":"m 214 424 l 214 319 l 603 319 q 533 153 596 210 q 383 96 469 96 q 320 103 350 96 q 265 127 290 111 q 220 166 240 143 q 186 220 200 189 l 82 168 q 134 90 103 125 q 203 31 164 56 q 288 -6 241 7 q 385 -20 334 -20 q 523 8 460 -20 q 632 85 586 36 q 703 203 677 135 q 729 353 729 271 q 703 502 729 433 q 630 620 676 571 q 523 697 585 669 q 390 725 461 725 q 264 702 323 725 q 160 632 204 679 l 89 632 l 89 515 l 216 515 q 282 586 241 558 q 390 614 322 614 q 473 598 436 614 q 536 557 510 583 q 579 496 562 530 q 602 424 596 461 l 214 424 "},"ю":{"ha":1146,"x_min":29,"x_max":1097,"o":"m 29 703 l 29 586 l 142 586 l 142 117 l 36 117 l 36 0 l 353 0 l 353 117 l 269 117 l 269 297 l 404 297 q 438 167 411 225 q 510 67 465 109 q 614 2 554 25 q 746 -21 673 -21 q 891 6 827 -21 q 1001 82 956 33 q 1072 200 1047 131 q 1097 353 1097 269 q 1072 504 1097 436 q 999 622 1046 572 q 888 697 953 671 q 746 724 823 724 q 614 701 673 724 q 510 635 554 677 q 437 533 465 593 q 403 401 410 473 l 269 401 l 269 586 l 346 586 l 346 703 l 29 703 m 526 351 l 526 351 q 544 465 526 415 q 591 547 561 514 q 661 598 621 581 q 746 615 701 615 q 833 598 793 615 q 903 547 873 581 q 950 465 933 514 q 966 351 966 415 q 949 242 966 290 q 902 159 932 193 q 832 107 872 125 q 746 89 791 89 q 661 107 701 89 q 591 160 621 125 q 544 242 561 195 q 526 351 526 290 "},"я":{"ha":846,"x_min":35,"x_max":783,"o":"m 450 117 l 450 0 l 783 0 l 783 117 l 677 117 l 677 595 l 750 595 l 750 703 l 550 703 l 550 701 q 390 699 467 701 q 254 679 313 697 q 159 620 195 661 q 123 500 123 578 q 131 453 123 476 q 155 407 139 429 q 193 367 171 385 q 244 340 215 350 q 199 301 221 326 q 167 240 178 275 l 129 117 l 35 117 l 35 0 l 224 0 l 278 189 q 329 274 294 248 q 425 300 364 300 l 550 300 l 550 117 l 450 117 m 249 501 l 249 501 q 284 572 249 549 q 390 595 319 595 l 550 595 l 550 401 l 390 401 q 288 428 328 401 q 249 501 249 454 "},"№":{"ha":1723,"x_min":97,"x_max":1653,"o":"m 730 1028 l 730 911 l 846 911 l 846 182 l 371 1029 l 100 1029 l 100 911 l 192 911 l 192 117 l 97 117 l 97 0 l 431 0 l 431 117 l 325 117 l 325 852 l 803 0 l 977 0 l 977 911 l 1064 911 l 1064 1028 l 730 1028 m 1158 428 l 1158 428 q 1176 329 1158 374 q 1226 252 1194 285 q 1304 201 1258 220 q 1406 183 1350 183 q 1507 201 1461 183 q 1585 252 1553 220 q 1635 330 1617 285 q 1653 429 1653 375 q 1635 528 1653 484 q 1584 605 1617 572 q 1506 655 1552 637 q 1406 673 1459 673 q 1306 655 1352 673 q 1227 604 1260 636 q 1176 526 1194 571 q 1158 428 1158 481 m 1208 117 l 1208 0 l 1609 0 l 1609 117 l 1208 117 m 1261 428 l 1261 428 q 1304 542 1261 503 q 1406 582 1346 582 q 1509 542 1468 582 q 1550 428 1550 503 q 1509 315 1550 357 q 1406 273 1468 273 q 1304 315 1346 273 q 1261 428 1261 357 "},"℮":{"ha":1133,"x_min":69,"x_max":1057,"o":"m 562 -21 l 562 -21 q 780 20 682 -21 q 966 157 878 61 l 876 157 q 744 55 827 94 q 562 16 661 16 q 435 32 492 16 q 337 72 378 49 q 274 120 296 94 q 252 165 252 146 l 252 395 q 257 413 252 410 q 271 416 262 416 l 1057 416 q 1017 607 1053 521 q 918 754 982 693 q 764 848 854 815 q 559 882 673 882 q 375 852 464 882 q 219 767 286 823 q 110 625 151 710 q 69 429 69 541 q 107 241 69 325 q 212 100 146 158 q 368 10 278 41 q 562 -21 458 -21 m 559 846 l 559 846 q 668 834 612 846 q 769 803 724 822 q 844 758 815 783 q 873 705 873 732 l 873 475 q 869 458 873 464 q 850 453 865 453 l 272 453 q 252 475 252 453 l 252 705 q 278 757 252 732 q 347 801 304 782 q 446 833 390 821 q 559 846 501 846 "},"Ω":{"ha":1254,"x_min":118,"x_max":1196,"o":"m 1065 117 l 900 117 l 900 254 q 970 292 929 264 q 1049 365 1011 319 q 1115 474 1088 411 q 1141 619 1141 538 q 1103 788 1141 710 q 997 925 1064 867 q 840 1017 929 983 q 650 1050 750 1050 q 463 1016 550 1050 q 310 924 375 982 q 208 786 245 865 q 171 616 171 707 q 198 473 171 536 q 264 365 225 410 q 343 292 302 319 q 414 254 385 264 l 414 117 l 249 117 l 249 240 l 118 240 l 118 0 l 545 0 l 545 323 q 457 360 500 336 q 382 421 415 385 q 330 508 350 458 q 310 618 310 557 q 337 739 310 682 q 411 838 364 796 q 519 903 457 879 q 652 928 581 928 q 786 903 722 928 q 899 838 850 879 q 976 739 947 796 q 1004 618 1004 682 q 984 508 1004 557 q 931 421 964 458 q 856 360 899 385 q 770 323 814 336 l 770 0 l 1196 0 l 1196 240 l 1065 240 l 1065 117 "},"∆":{"ha":993,"x_min":35,"x_max":958,"o":"m 484 1074 l 35 33 l 35 0 l 958 0 l 958 33 l 521 1074 l 484 1074 m 799 117 l 196 117 l 498 836 l 799 117 "},"∑":{"ha":1032,"x_min":56,"x_max":918,"o":"m 785 47 l 785 -204 l 243 -204 l 657 335 l 258 913 l 785 913 l 785 667 l 918 667 l 918 1028 l 66 1028 l 66 958 l 500 334 l 56 -249 l 56 -321 l 918 -321 l 918 47 l 785 47 "},"Γ":{"ha":833,"x_min":97,"x_max":825,"o":"m 97 117 l 97 0 l 431 0 l 431 117 l 325 117 l 325 917 l 686 917 l 686 757 l 825 757 l 825 1028 l 98 1028 l 98 917 l 192 917 l 192 117 l 97 117 "},"Π":{"ha":1195,"x_min":97,"x_max":1097,"o":"m 98 1028 l 98 911 l 195 911 l 195 117 l 97 117 l 97 0 l 431 0 l 431 117 l 328 117 l 328 911 l 867 911 l 867 117 l 764 117 l 764 0 l 1097 0 l 1097 117 l 1000 117 l 1000 911 l 1097 911 l 1097 1028 l 98 1028 "},"∏":{"ha":1053,"x_min":94,"x_max":1011,"o":"m 94 1028 l 94 911 l 195 911 l 195 -203 l 94 -203 l 94 -319 l 428 -319 l 428 -203 l 328 -203 l 328 911 l 778 911 l 778 -203 l 677 -203 l 677 -319 l 1011 -319 l 1011 -203 l 911 -203 l 911 911 l 1011 911 l 1011 1028 l 94 1028 "},"π":{"ha":937,"x_min":62,"x_max":856,"o":"m 749 -11 l 749 -11 q 808 -5 783 -11 q 856 12 833 1 l 835 121 q 796 107 814 111 q 754 103 778 103 q 711 112 726 103 q 689 136 696 121 q 681 174 682 151 q 679 222 679 196 l 679 586 l 836 586 l 836 703 l 62 703 l 62 586 l 164 586 l 164 117 l 64 117 l 64 0 l 397 0 l 397 117 l 296 117 l 296 586 l 547 586 l 547 200 q 561 105 547 146 q 600 39 574 65 q 663 1 625 14 q 749 -11 700 -11 "},"√":{"ha":924,"x_min":41,"x_max":942,"o":"m 167 586 l 419 0 l 518 0 l 942 1028 l 832 1028 l 517 244 q 498 194 505 215 q 485 158 490 174 q 475 129 479 142 l 472 129 q 453 180 463 154 q 432 233 443 204 q 408 292 421 262 l 239 703 l 41 703 l 43 586 l 167 586 "},"∫":{"ha":494,"x_min":-125,"x_max":578,"o":"m 289 -77 l 289 831 q 321 933 289 899 q 410 968 353 968 q 482 960 447 968 q 539 940 517 951 l 578 1031 q 507 1057 550 1044 q 392 1069 464 1069 q 298 1054 340 1069 q 226 1009 256 1039 q 180 933 196 979 q 164 827 164 888 l 164 -81 q 132 -183 164 -149 q 43 -218 100 -218 q -29 -210 5 -218 q -86 -191 -64 -201 l -125 -281 q -54 -307 -97 -294 q 61 -319 -11 -319 q 155 -304 113 -319 q 227 -259 197 -289 q 273 -183 257 -229 q 289 -77 289 -138 "},"∞":{"ha":1156,"x_min":83,"x_max":1156,"o":"m 363 253 l 363 253 q 512 300 450 253 q 618 422 574 347 q 726 298 663 343 q 879 253 790 253 q 988 276 937 253 q 1076 337 1039 298 q 1134 427 1112 375 q 1156 538 1156 479 q 1134 648 1156 596 q 1076 739 1112 700 q 988 801 1039 778 q 879 823 937 823 q 732 778 796 823 q 623 660 668 733 q 515 780 578 736 q 363 823 452 823 q 252 801 302 823 q 164 740 201 779 q 105 649 126 701 q 83 538 83 597 q 105 427 83 479 q 164 336 126 375 q 252 275 201 297 q 363 253 302 253 m 872 714 l 872 714 q 938 701 907 714 q 993 663 970 688 q 1030 607 1017 639 q 1043 538 1043 575 q 1030 470 1043 501 q 993 414 1017 439 q 938 376 970 390 q 872 363 907 363 q 751 412 800 363 q 676 538 701 461 q 673 545 673 541 q 749 665 699 616 q 872 714 799 714 m 364 363 l 364 363 q 297 376 328 363 q 244 414 267 390 q 208 470 221 439 q 195 538 195 501 q 208 607 195 575 q 244 663 221 639 q 297 701 267 688 q 364 714 328 714 q 431 700 399 714 q 488 663 463 686 q 534 610 514 640 q 566 547 554 581 l 562 538 q 488 413 536 463 q 364 363 439 363 "},"≠":{"ha":625,"x_min":58,"x_max":567,"o":"m 58 532 l 58 436 l 278 436 l 228 302 l 58 302 l 58 207 l 192 207 l 123 40 l 224 40 l 292 207 l 567 207 l 567 302 l 328 302 l 378 436 l 567 436 l 567 532 l 414 532 l 481 711 l 380 711 l 314 532 l 58 532 "},"≈":{"ha":833,"x_min":96,"x_max":737,"o":"m 96 242 l 146 165 q 209 244 180 221 q 268 267 239 267 q 306 260 285 267 q 352 242 328 253 q 402 219 376 231 q 455 195 428 206 q 510 177 483 184 q 564 170 537 170 q 666 201 625 170 q 737 290 707 233 l 688 368 q 624 288 654 311 q 566 264 595 264 q 505 280 540 264 q 431 313 471 295 q 350 346 392 331 q 269 361 309 361 q 168 330 209 361 q 96 242 126 299 m 96 468 l 146 391 q 209 470 180 447 q 268 493 239 493 q 306 486 285 493 q 352 468 328 479 q 402 445 376 457 q 455 421 428 432 q 510 403 483 410 q 564 396 537 396 q 666 427 625 396 q 737 515 707 458 l 688 593 q 624 514 654 537 q 566 490 595 490 q 505 506 540 490 q 431 539 471 521 q 350 572 392 557 q 269 587 309 587 q 168 556 209 587 q 96 468 126 525 "},"×":{"ha":884,"x_min":90,"x_max":783,"o":"m 356 458 l 90 140 l 203 65 l 444 354 l 681 69 l 783 150 l 528 455 l 781 758 l 672 836 l 441 559 l 201 846 l 103 762 l 356 458 "},"÷":{"ha":764,"x_min":35,"x_max":729,"o":"m 281 615 q 288 581 281 597 q 307 552 295 564 q 335 532 319 539 q 370 525 351 525 q 403 532 387 525 q 431 552 419 539 q 450 581 443 564 q 457 615 457 597 q 450 649 457 633 q 431 676 443 665 q 403 695 419 688 q 370 703 387 703 q 335 695 351 703 q 307 676 319 688 q 288 649 295 665 q 281 615 281 633 m 281 82 q 288 47 281 64 q 307 19 295 31 q 335 -1 319 6 q 370 -8 351 -8 q 403 -1 387 -8 q 431 19 419 6 q 450 47 443 31 q 457 82 457 64 q 450 116 457 100 q 431 143 443 132 q 403 162 419 155 q 370 170 387 170 q 335 162 351 170 q 307 143 319 155 q 288 116 295 132 q 281 82 281 100 m 35 416 l 35 307 l 729 307 l 729 416 l 35 416 "},"◊":{"ha":802,"x_min":69,"x_max":732,"o":"m 69 538 l 364 0 l 428 0 l 732 536 l 435 1060 l 367 1060 l 69 538 m 396 163 l 197 536 l 396 900 l 603 533 l 396 163 "},"+":{"ha":889,"x_min":97,"x_max":791,"o":"m 97 536 l 97 412 l 382 412 l 382 126 l 505 126 l 505 412 l 791 412 l 791 536 l 505 536 l 505 821 l 382 821 l 382 536 l 97 536 "},"±":{"ha":833,"x_min":69,"x_max":764,"o":"m 69 606 l 69 482 l 354 482 l 354 210 l 478 210 l 478 482 l 764 482 l 764 606 l 478 606 l 478 890 l 354 890 l 354 606 l 69 606 m 69 110 l 69 0 l 764 0 l 764 110 l 69 110 "},"−":{"ha":729,"x_min":35,"x_max":729,"o":"m 35 439 l 35 329 l 729 329 l 729 439 l 35 439 "},"≤":{"ha":623,"x_min":20,"x_max":557,"o":"m 20 616 l 20 541 l 557 329 l 557 425 l 136 579 l 557 726 l 557 823 l 20 616 m 20 302 l 20 207 l 529 207 l 529 302 l 20 302 "},"≥":{"ha":623,"x_min":50,"x_max":587,"o":"m 587 541 l 587 616 l 51 823 l 51 726 l 471 579 l 51 425 l 51 329 l 587 541 m 50 302 l 50 207 l 587 207 l 587 302 l 50 302 "},"¬":{"ha":823,"x_min":33,"x_max":775,"o":"m 775 677 l 33 677 l 33 553 l 652 553 l 652 293 l 775 293 l 775 677 "},"⁄":{"ha":950,"x_min":-29,"x_max":971,"o":"m 836 1069 l -29 -41 l 106 -41 l 971 1069 l 836 1069 "},"¼":{"ha":1381,"x_min":0,"x_max":1129,"o":"m 865 1069 l 0 -41 l 135 -41 l 1000 1069 l 865 1069 m 732 205 l 734 132 l 962 132 l 962 0 l 1053 0 l 1053 132 l 1129 132 l 1129 207 l 1053 207 l 1053 318 l 962 318 l 962 207 l 838 207 l 1023 515 l 922 515 l 732 205 m 43 615 l 43 528 l 262 528 l 262 615 l 208 615 l 208 1032 l 160 1032 l 13 950 l 13 840 l 100 889 l 100 615 l 43 615 "},"½":{"ha":1305,"x_min":0,"x_max":1048,"o":"m 865 1069 l 0 -41 l 135 -41 l 1000 1069 l 865 1069 m 705 82 l 705 0 l 1046 0 l 1046 96 l 842 96 l 998 256 q 1035 306 1021 281 q 1048 359 1048 331 q 1034 424 1048 395 q 997 471 1021 452 q 943 500 974 490 q 877 510 911 510 q 809 499 841 510 q 754 467 777 488 q 717 415 730 446 q 703 347 703 385 l 802 347 q 821 396 802 376 q 874 415 840 415 q 924 398 905 415 q 942 357 942 380 q 928 313 942 335 q 890 269 913 290 l 705 82 m 52 615 l 52 528 l 271 528 l 271 615 l 216 615 l 216 1032 l 168 1032 l 21 950 l 21 840 l 109 889 l 109 615 l 52 615 "},"¾":{"ha":1312,"x_min":0,"x_max":1058,"o":"m 907 1069 l 41 -41 l 176 -41 l 1042 1069 l 907 1069 m 253 888 q 234 844 253 861 q 182 827 216 827 l 136 827 l 136 750 l 180 750 q 238 731 217 750 q 260 684 260 713 q 254 657 260 669 q 238 634 248 644 q 213 619 227 625 q 183 614 199 614 q 128 631 149 614 q 102 679 107 648 l 0 679 q 15 613 0 642 q 54 564 29 585 q 111 533 79 544 q 180 522 144 522 q 252 535 219 522 q 310 569 286 547 q 348 621 334 591 q 362 682 362 650 q 357 718 362 701 q 343 749 352 734 q 323 773 334 763 q 298 790 311 784 q 341 833 326 806 q 355 893 355 860 q 342 949 355 922 q 306 996 329 976 q 250 1028 282 1017 q 179 1040 217 1040 q 111 1028 142 1040 q 57 995 79 1016 q 22 946 35 975 q 8 886 9 918 l 110 886 q 117 915 110 903 q 134 934 123 926 q 157 945 144 942 q 179 949 169 949 q 211 943 197 949 q 234 928 225 937 q 248 908 243 919 q 253 888 253 898 m 661 205 l 663 132 l 890 132 l 890 0 l 982 0 l 982 132 l 1058 132 l 1058 207 l 982 207 l 982 318 l 890 318 l 890 207 l 766 207 l 951 515 l 851 515 l 661 205 "},"∕":{"ha":543,"x_min":-138,"x_max":648,"o":"m 514 791 l -138 -41 l -3 -41 l 648 791 l 514 791 "},"⁴":{"ha":549,"x_min":78,"x_max":461,"o":"m 78 771 l 78 705 l 302 705 l 302 574 l 383 574 l 383 705 l 461 705 l 461 774 l 383 774 l 383 871 l 302 867 l 302 774 l 174 774 l 355 1088 l 267 1088 l 78 771 "},"†":{"ha":764,"x_min":35,"x_max":729,"o":"m 35 703 l 35 586 l 317 586 l 317 -319 l 450 -319 l 450 586 l 729 586 l 729 703 l 450 703 l 450 1026 l 317 1026 l 317 703 l 35 703 "},"‡":{"ha":764,"x_min":35,"x_max":729,"o":"m 35 703 l 35 586 l 317 586 l 317 115 l 35 115 l 35 -1 l 317 -1 l 317 -319 l 450 -319 l 450 -1 l 729 -1 l 729 115 l 450 115 l 450 586 l 729 586 l 729 703 l 450 703 l 450 1026 l 317 1026 l 317 703 l 35 703 "},"¶":{"ha":864,"x_min":28,"x_max":770,"o":"m 315 475 l 315 -250 l 437 -250 l 437 918 l 593 918 l 593 -250 l 715 -250 l 715 918 l 770 918 l 770 1028 l 364 1028 q 225 1010 288 1028 q 119 958 163 993 q 52 870 75 922 q 28 749 28 818 q 49 643 28 692 q 108 559 70 595 q 199 502 146 524 q 315 475 252 479 "},"§":{"ha":742,"x_min":50,"x_max":714,"o":"m 50 -17 l 50 -129 l 98 -129 q 129 -201 109 -166 q 183 -262 150 -235 q 264 -304 216 -288 q 379 -319 313 -319 q 498 -299 444 -319 q 591 -242 552 -279 q 653 -157 631 -206 q 675 -49 675 -107 q 650 74 675 24 q 577 157 625 123 q 674 252 639 194 q 710 382 710 310 q 700 460 710 427 q 669 520 689 494 q 619 567 648 547 q 552 606 589 588 q 469 640 514 623 q 371 675 423 656 q 325 694 348 683 q 282 722 301 705 q 252 761 264 739 q 240 815 240 784 q 249 861 240 840 q 277 897 258 882 q 323 921 295 912 q 390 929 351 929 q 446 922 418 929 q 496 900 473 914 q 535 864 519 885 q 557 816 551 843 l 557 816 q 557 816 557 816 q 557 816 557 816 l 557 778 l 714 778 l 714 890 l 670 890 q 635 954 659 925 q 576 1005 611 983 q 495 1038 541 1026 q 393 1050 449 1050 q 270 1031 323 1050 q 180 981 216 1013 q 124 904 143 949 q 106 807 106 860 q 134 682 106 734 q 207 597 162 629 q 111 505 144 562 q 78 378 78 448 q 93 286 78 326 q 133 217 107 246 q 196 167 159 187 q 275 134 232 146 q 337 115 307 124 q 399 96 368 105 q 446 77 422 88 q 490 48 471 66 q 522 5 509 31 q 534 -57 534 -21 q 495 -159 534 -122 q 385 -196 455 -196 q 313 -184 345 -196 q 258 -152 281 -173 q 223 -100 235 -130 q 211 -33 211 -71 l 211 -17 l 50 -17 m 212 385 q 223 437 212 413 q 257 480 235 462 q 313 509 279 498 q 390 519 346 519 q 408 520 394 519 q 465 502 436 513 q 516 474 493 491 q 555 434 540 458 q 570 375 570 410 q 526 274 570 311 q 406 233 481 236 l 336 259 q 262 289 283 275 q 226 326 240 303 q 212 385 212 348 "},"¤":{"ha":765,"x_min":37,"x_max":730,"o":"m 85 504 q 101 405 85 452 q 149 319 117 359 l 37 191 l 150 115 l 248 234 q 315 209 280 218 q 389 200 350 200 q 463 209 427 200 q 531 235 498 218 l 628 119 l 730 200 l 631 319 q 677 405 661 358 q 693 504 693 452 q 676 604 693 557 q 629 690 660 652 l 728 808 l 619 886 l 526 775 q 460 800 495 791 q 389 808 426 808 q 316 800 351 808 q 250 774 281 791 l 149 896 l 50 812 l 150 692 q 102 606 119 654 q 85 504 85 557 m 200 507 q 215 581 200 547 q 256 642 230 616 q 316 682 281 667 q 390 697 351 697 q 464 682 429 697 q 525 642 499 667 q 566 581 551 616 q 581 507 581 547 q 566 433 581 467 q 525 372 551 398 q 464 332 499 347 q 390 317 429 317 q 316 332 351 317 q 256 372 281 347 q 215 433 230 398 q 200 507 200 467 "},"€":{"ha":1019,"x_min":45,"x_max":975,"o":"m 822 757 l 968 757 l 968 878 l 904 878 q 830 948 868 917 q 748 1001 793 979 q 651 1035 704 1023 q 534 1047 599 1047 q 337 1005 427 1047 q 182 889 248 962 q 81 720 117 817 q 45 515 45 624 q 81 310 45 407 q 181 141 117 214 q 336 25 245 68 q 534 -17 427 -17 q 681 5 614 -17 q 803 65 747 26 q 901 158 859 104 q 975 279 943 212 l 852 335 q 795 238 827 279 q 726 168 764 196 q 640 125 688 139 q 534 111 593 111 q 352 168 431 111 q 229 317 273 225 l 538 317 l 611 443 l 189 443 q 184 483 186 463 q 182 525 182 504 l 538 525 l 611 652 l 199 652 q 246 759 215 710 q 320 844 277 808 q 417 901 363 880 q 534 921 472 921 q 709 878 640 921 q 822 757 778 835 "},"$":{"ha":821,"x_min":102,"x_max":720,"o":"m 350 -126 l 484 -126 l 484 92 q 574 120 533 100 q 644 168 615 140 q 689 233 673 197 q 705 311 705 269 q 692 384 705 353 q 654 437 679 414 q 594 478 630 460 q 514 509 559 495 l 396 545 q 352 556 375 551 q 311 573 330 562 q 279 600 292 583 q 267 646 267 617 q 305 712 267 688 q 418 736 344 736 q 517 709 479 736 q 561 637 554 682 l 561 623 l 562 623 l 562 621 l 578 623 l 720 623 l 720 739 l 651 739 q 583 802 625 776 q 484 839 541 829 l 484 1071 l 350 1071 l 350 840 q 260 815 300 832 q 193 772 220 798 q 152 713 166 747 q 138 640 138 680 q 151 563 138 596 q 187 505 163 530 q 243 464 210 481 q 314 437 275 448 l 433 406 q 480 393 456 399 q 525 375 505 386 q 558 347 545 363 q 571 304 571 330 q 531 229 571 256 q 424 203 492 203 q 311 232 349 203 q 273 315 273 260 l 272 315 l 272 322 l 102 322 l 102 205 l 182 205 q 244 134 205 164 q 350 92 283 103 l 350 -126 "},"¥":{"ha":918,"x_min":35,"x_max":898,"o":"m 35 1028 l 35 911 l 114 911 l 325 575 l 204 575 l 204 479 l 387 479 l 387 379 l 204 379 l 204 283 l 387 283 l 387 117 l 293 117 l 293 0 l 627 0 l 627 117 l 521 117 l 521 283 l 713 283 l 713 379 l 521 379 l 521 479 l 713 479 l 713 575 l 588 575 l 810 911 l 898 911 l 898 1028 l 564 1028 l 564 911 l 671 911 l 464 581 l 270 911 l 368 911 l 368 1028 l 35 1028 "},"£":{"ha":632,"x_min":22,"x_max":587,"o":"m 22 547 l 22 449 l 193 449 l 204 419 q 224 329 220 373 q 218 245 228 284 q 182 173 208 206 q 116 117 157 140 l 41 117 l 41 3 l 583 3 l 583 117 l 254 117 q 305 168 284 139 q 338 228 326 197 q 353 290 350 259 q 350 346 356 320 q 337 394 345 368 q 321 449 330 420 l 479 449 l 479 547 l 290 547 q 279 584 285 566 q 269 621 274 602 q 256 666 262 646 q 246 704 250 686 q 241 737 243 721 q 241 770 240 753 q 251 812 243 792 q 275 846 260 831 q 313 869 290 861 q 364 878 335 878 q 410 866 390 878 q 444 836 430 854 q 464 792 457 817 q 472 742 471 768 l 585 749 q 572 845 587 801 q 527 921 557 889 q 455 971 497 953 q 363 989 413 989 q 260 971 307 989 q 181 922 214 954 q 130 846 148 890 q 111 749 111 802 q 124 644 111 693 q 155 547 137 594 l 22 547 "},"¢":{"ha":821,"x_min":75,"x_max":715,"o":"m 350 -126 l 484 -126 l 484 98 q 617 161 559 114 q 708 279 675 208 l 604 330 q 527 238 576 270 q 414 207 479 207 q 331 225 370 207 q 264 276 293 243 q 218 357 235 310 q 201 464 201 405 q 218 572 201 524 q 263 654 235 621 q 331 707 292 688 q 414 725 370 725 q 515 701 471 725 q 587 627 558 677 l 587 627 l 588 627 q 589 625 588 625 l 591 627 l 715 627 l 715 743 l 644 743 q 570 799 611 778 q 484 829 530 820 l 484 1071 l 350 1071 l 350 830 q 241 787 291 819 q 154 707 191 755 q 96 597 117 659 q 75 464 75 536 q 95 328 75 391 q 152 218 115 266 q 238 139 188 170 q 350 97 289 108 l 350 -126 "},"™":{"ha":1175,"x_min":7,"x_max":1115,"o":"m 488 646 l 488 570 l 690 570 l 690 646 l 642 646 l 642 909 l 745 646 l 857 646 l 961 907 l 961 646 l 913 646 l 913 570 l 1115 570 l 1115 646 l 1051 646 l 1051 989 l 1115 989 l 1115 1071 l 920 1071 l 801 753 l 688 1071 l 488 1071 l 488 989 l 551 989 l 551 646 l 488 646 m 119 646 l 119 570 l 320 570 l 320 646 l 267 646 l 267 989 l 361 989 l 361 939 l 451 939 l 451 1071 l 7 1071 l 7 939 l 98 939 l 98 989 l 174 989 l 174 646 l 119 646 "},"©":{"ha":1301,"x_min":69,"x_max":1232,"o":"m 69 564 q 90 409 69 483 q 148 270 111 334 q 239 153 186 205 q 356 62 292 100 q 495 4 420 24 q 650 -17 569 -17 q 804 4 730 -17 q 944 62 879 24 q 1062 153 1008 100 q 1153 270 1115 205 q 1212 409 1191 334 q 1232 564 1232 483 q 1212 718 1232 644 q 1153 857 1191 792 q 1062 974 1115 921 q 944 1064 1008 1027 q 804 1123 879 1102 q 650 1143 730 1143 q 495 1123 569 1143 q 356 1064 420 1102 q 239 974 292 1027 q 148 857 186 921 q 90 718 111 792 q 69 564 69 644 m 192 564 q 228 746 192 659 q 325 892 263 834 q 471 986 387 951 q 650 1022 554 1022 q 828 986 745 1022 q 974 892 911 951 q 1073 746 1037 834 q 1108 564 1108 659 q 1073 384 1108 467 q 974 238 1037 300 q 828 140 911 176 q 650 104 745 104 q 471 140 554 104 q 325 238 387 176 q 228 384 263 300 q 192 564 192 467 m 807 718 l 903 807 q 858 844 883 826 q 803 876 833 862 q 738 898 773 890 q 664 907 703 907 q 531 880 593 907 q 422 807 469 853 q 350 698 376 760 q 323 566 323 636 q 350 432 323 494 q 422 324 376 370 q 531 252 469 278 q 664 225 593 225 q 729 233 696 225 q 791 254 762 241 q 845 285 821 267 q 885 323 869 303 l 794 411 q 738 372 773 387 q 664 357 702 357 q 583 373 621 357 q 516 418 545 389 q 472 484 488 446 q 456 566 456 522 q 472 648 456 609 q 516 715 488 686 q 583 761 545 745 q 664 778 621 778 q 739 764 703 778 q 807 718 774 749 "},"®":{"ha":1301,"x_min":69,"x_max":1232,"o":"m 69 564 q 90 409 69 483 q 148 270 111 334 q 239 153 186 205 q 356 62 292 100 q 495 4 420 24 q 650 -17 569 -17 q 804 4 730 -17 q 944 62 879 24 q 1062 153 1008 100 q 1153 270 1115 205 q 1212 409 1191 334 q 1232 564 1232 483 q 1212 718 1232 644 q 1153 857 1191 792 q 1062 974 1115 921 q 944 1064 1008 1027 q 804 1123 879 1102 q 650 1143 730 1143 q 495 1123 569 1143 q 356 1064 420 1102 q 239 974 292 1027 q 148 857 186 921 q 90 718 111 792 q 69 564 69 644 m 192 564 q 228 746 192 659 q 325 892 263 834 q 471 986 387 951 q 650 1022 554 1022 q 828 986 745 1022 q 974 892 911 951 q 1073 731 1037 834 q 1108 564 1108 627 q 1073 384 1108 467 q 974 238 1037 300 q 828 140 911 176 q 650 104 745 104 q 471 140 554 104 q 325 238 387 176 q 228 384 263 300 q 192 564 192 467 m 376 351 l 376 244 l 633 244 l 633 351 l 571 351 l 571 524 l 616 524 q 704 498 670 524 q 747 416 738 473 l 782 244 l 956 244 l 954 351 l 899 351 l 871 465 q 846 525 863 500 q 808 560 829 549 q 855 587 835 572 q 889 622 876 602 q 910 667 903 642 q 917 726 917 693 q 902 800 917 766 q 859 859 886 834 q 791 899 831 884 q 701 913 751 913 l 374 913 l 374 806 l 443 806 l 443 351 l 376 351 m 571 806 l 663 806 q 750 782 722 806 q 778 717 778 759 q 748 650 778 671 q 668 629 718 629 l 571 629 l 571 806 "},"Ұ":{"ha":918,"x_min":35,"x_max":897,"o":"m 564 1028 l 564 911 l 671 911 l 464 581 l 269 911 l 368 911 l 368 1028 l 35 1028 l 35 911 l 114 911 l 386 478 l 386 478 l 158 478 l 158 361 l 387 361 l 387 117 l 293 117 l 293 0 l 627 0 l 627 117 l 521 117 l 521 361 l 765 361 l 765 478 l 524 478 l 524 478 l 810 911 l 897 911 l 897 1028 l 564 1028 "},"ұ":{"ha":724,"x_min":26,"x_max":699,"o":"m 476 703 l 476 586 l 532 586 l 363 102 l 191 586 l 249 586 l 249 703 l 26 703 l 26 586 l 69 586 l 297 -11 l 96 -11 l 96 -127 l 297 -127 l 297 -318 l 424 -318 l 424 -127 l 624 -127 l 624 -11 l 424 -11 l 652 586 l 699 586 l 699 703 l 476 703 "},"Ґ":{"ha":833,"x_min":97,"x_max":807,"o":"m 97 117 l 97 0 l 431 0 l 431 117 l 325 117 l 325 917 l 807 917 l 807 1208 l 673 1208 l 673 1028 l 98 1028 l 98 917 l 192 917 l 192 117 l 97 117 "},"ґ":{"ha":693,"x_min":62,"x_max":661,"o":"m 62 117 l 62 0 l 396 0 l 396 117 l 293 117 l 293 591 l 661 591 l 661 896 l 533 896 l 533 703 l 62 703 l 62 591 l 165 591 l 165 117 l 62 117 "},"Џ":{"ha":1208,"x_min":97,"x_max":1111,"o":"m 778 1028 l 778 911 l 880 911 l 880 110 l 328 110 l 328 911 l 431 911 l 431 1028 l 97 1028 l 97 911 l 195 911 l 195 110 l 97 110 l 97 0 l 549 0 l 549 -236 l 676 -236 l 676 0 l 1111 0 l 1111 110 l 1014 110 l 1014 911 l 1111 911 l 1111 1028 l 778 1028 "},"џ":{"ha":932,"x_min":75,"x_max":857,"o":"m 524 703 l 524 586 l 630 586 l 630 110 l 300 110 l 300 586 l 408 586 l 408 703 l 75 703 l 75 586 l 173 586 l 173 110 l 75 110 l 75 0 l 420 0 l 420 -236 l 548 -236 l 548 0 l 857 0 l 857 110 l 758 110 l 758 586 l 857 586 l 857 703 l 524 703 "},"Њ":{"ha":1491,"x_min":97,"x_max":1439,"o":"m 98 1028 l 98 911 l 195 911 l 195 117 l 97 117 l 97 0 l 431 0 l 431 117 l 328 117 l 328 482 l 787 482 l 787 117 l 672 117 l 672 0 l 1118 0 q 1247 24 1189 0 q 1349 91 1305 49 q 1415 188 1392 132 q 1439 306 1439 243 q 1416 422 1439 368 q 1351 515 1393 476 q 1251 576 1310 554 q 1120 599 1192 599 l 921 599 l 921 911 l 1022 911 l 1022 1028 l 689 1028 l 689 911 l 787 911 l 787 597 l 328 597 l 328 911 l 432 911 l 432 1028 l 98 1028 m 921 482 l 1108 482 q 1193 468 1157 482 q 1253 428 1229 453 q 1288 370 1276 403 q 1299 298 1299 336 q 1249 168 1299 218 q 1114 117 1198 117 l 921 117 l 921 482 "},"њ":{"ha":1210,"x_min":62,"x_max":1153,"o":"m 526 117 l 526 0 l 903 0 q 1000 16 954 0 q 1080 62 1046 32 q 1133 133 1114 92 q 1153 228 1153 175 q 1133 322 1153 279 q 1080 394 1114 364 q 999 440 1046 424 q 899 457 953 457 l 753 457 l 753 586 l 860 586 l 860 703 l 526 703 l 526 586 l 625 586 l 625 457 l 289 457 l 289 586 l 397 586 l 397 703 l 64 703 l 64 586 l 161 586 l 161 117 l 62 117 l 62 0 l 396 0 l 396 117 l 289 117 l 289 340 l 625 340 l 625 117 l 526 117 m 753 340 l 904 340 q 989 312 954 340 q 1025 228 1025 283 q 991 145 1025 174 q 908 117 957 117 l 753 117 l 753 340 "},"љ":{"ha":1143,"x_min":36,"x_max":1086,"o":"m 146 703 l 146 586 l 239 586 l 237 435 q 227 278 237 340 q 195 180 218 216 q 133 128 172 143 q 36 113 94 113 l 36 -1 l 61 -1 q 152 6 111 -1 q 227 33 193 14 q 285 82 260 52 q 327 160 310 113 q 351 270 343 206 q 359 418 359 334 l 359 586 l 558 586 l 558 117 l 460 117 l 460 0 l 836 0 q 934 16 888 0 q 1013 62 979 32 q 1067 134 1047 92 q 1086 228 1086 176 q 1067 322 1086 279 q 1014 394 1048 364 q 933 440 980 424 q 832 457 887 457 l 686 457 l 686 586 l 796 586 l 796 703 l 146 703 m 686 340 l 838 340 q 885 333 863 340 q 923 311 907 326 q 949 276 939 297 q 958 228 958 255 q 949 180 958 201 q 924 145 940 159 q 887 124 908 131 q 842 117 865 117 l 686 117 l 686 340 "},"Љ":{"ha":1482,"x_min":21,"x_max":1431,"o":"m 664 117 l 664 0 l 1110 0 q 1239 24 1181 0 q 1340 91 1297 49 q 1407 188 1383 132 q 1431 306 1431 243 q 1408 422 1431 368 q 1343 515 1385 476 q 1242 576 1301 554 q 1112 599 1183 599 l 893 599 l 893 911 l 1006 911 l 1006 1028 l 180 1028 l 180 911 l 295 911 q 295 705 295 807 q 295 498 295 603 q 289 368 295 431 q 268 253 283 304 q 223 164 252 201 q 149 111 195 126 l 149 211 l 21 211 l 21 0 l 139 0 q 260 38 208 0 q 348 143 313 75 q 402 305 384 211 q 421 510 421 399 l 421 911 l 760 911 l 760 117 l 664 117 m 893 482 l 1100 482 q 1185 468 1149 482 q 1245 428 1221 453 q 1279 370 1268 403 q 1291 298 1291 336 q 1272 208 1291 243 q 1220 152 1253 172 q 1139 124 1186 132 q 1035 117 1092 117 l 893 117 l 893 482 "},"є":{"ha":757,"x_min":61,"x_max":701,"o":"m 574 515 l 574 515 l 574 514 l 575 514 q 576 515 576 514 q 578 515 576 515 l 701 515 l 701 632 l 631 632 q 526 702 586 679 q 400 725 467 725 q 267 697 329 725 q 160 620 205 669 q 87 502 114 571 q 61 353 61 433 q 86 203 61 271 q 156 85 111 135 q 263 8 201 36 q 399 -20 325 -20 q 494 -6 449 -20 q 576 31 539 7 q 644 90 614 56 q 694 168 673 125 l 590 220 q 557 166 576 189 q 513 127 538 143 q 460 103 489 111 q 400 96 432 96 q 325 110 359 96 q 262 153 290 125 q 215 219 233 180 q 191 309 196 258 l 567 309 l 567 411 l 192 411 q 264 559 207 505 q 400 614 322 614 q 502 590 458 614 q 574 515 546 566 "},"Є":{"ha":1019,"x_min":45,"x_max":975,"o":"m 822 757 l 968 757 l 968 878 l 904 878 q 830 948 868 917 q 748 1001 793 979 q 651 1035 704 1023 q 534 1047 599 1047 q 337 1005 427 1047 q 182 889 248 962 q 81 720 117 817 q 45 515 45 624 q 81 310 45 407 q 181 141 117 214 q 336 25 245 68 q 534 -17 427 -17 q 681 5 614 -17 q 803 65 747 26 q 901 158 859 104 q 975 279 943 212 l 852 335 q 795 238 827 279 q 726 168 764 196 q 640 125 688 139 q 534 111 593 111 q 397 141 460 111 q 289 221 335 171 q 215 340 243 272 q 182 485 187 408 l 789 485 l 789 600 l 189 600 q 231 726 201 667 q 306 828 261 785 q 408 896 350 871 q 534 921 467 921 q 709 878 640 921 q 822 757 778 835 "},"Ђ":{"ha":1194,"x_min":28,"x_max":1128,"o":"m 1128 307 l 1128 307 q 1101 430 1128 374 q 1027 527 1075 486 q 912 591 979 568 q 765 614 846 614 q 641 602 700 614 q 513 565 582 590 l 513 917 l 718 917 l 718 757 l 857 757 l 857 1028 l 28 1028 l 28 757 l 167 757 l 167 917 l 379 917 l 379 117 l 282 117 l 282 0 l 615 0 l 615 117 l 513 117 l 513 452 q 626 487 568 471 q 765 504 685 504 q 858 489 815 504 q 931 449 900 475 q 980 386 962 422 q 997 306 997 349 q 983 221 997 257 q 946 162 970 186 q 889 124 922 138 q 817 104 856 110 q 797 102 807 103 q 777 102 787 102 l 777 -5 q 790 -5 783 -5 q 804 -5 796 -5 q 936 17 876 -5 q 1038 79 996 39 q 1104 178 1080 119 q 1128 307 1128 236 "},"ђ":{"ha":882,"x_min":64,"x_max":757,"o":"m 72 1055 l 72 939 l 168 939 l 168 873 l 72 873 l 72 771 l 168 771 l 168 117 l 64 117 l 64 0 l 397 0 l 397 117 l 294 117 l 294 529 q 379 581 335 559 q 467 602 422 602 q 584 560 543 602 q 625 437 625 518 l 625 -40 q 598 -168 625 -119 q 510 -225 571 -216 l 526 -319 q 696 -246 636 -317 q 757 -54 757 -175 l 757 453 q 690 653 757 590 q 511 715 624 715 q 394 690 447 715 q 294 625 340 664 l 294 771 l 612 771 l 612 873 l 294 873 l 294 1055 l 72 1055 "},"Ћ":{"ha":1250,"x_min":28,"x_max":1198,"o":"m 865 117 l 865 0 l 1198 0 l 1198 117 l 1088 117 l 1088 347 q 1065 481 1088 429 q 1001 563 1043 533 q 901 604 960 593 q 770 615 842 615 q 636 600 699 615 q 513 564 574 585 l 513 917 l 718 917 l 718 757 l 857 757 l 857 1028 l 28 1028 l 28 757 l 167 757 l 167 917 l 379 917 l 379 117 l 282 117 l 282 0 l 615 0 l 615 117 l 513 117 l 513 458 q 632 495 572 481 q 768 509 692 509 q 860 502 821 509 q 924 477 899 496 q 961 424 949 458 q 972 335 972 390 l 972 117 l 865 117 "},"ћ":{"ha":918,"x_min":62,"x_max":863,"o":"m 72 1055 l 72 939 l 168 939 l 168 873 l 72 873 l 72 771 l 168 771 l 168 117 l 62 117 l 62 0 l 396 0 l 396 117 l 294 117 l 294 529 q 379 581 335 559 q 467 602 422 602 q 584 560 543 602 q 625 437 625 518 l 625 117 l 529 117 l 529 0 l 863 0 l 863 117 l 757 117 l 757 453 q 690 653 757 590 q 511 715 624 715 q 394 690 447 715 q 294 625 340 664 l 294 771 l 612 771 l 612 873 l 294 873 l 294 1055 l 72 1055 "},"Ł":{"ha":879,"x_min":97,"x_max":872,"o":"m 97 1028 l 97 911 l 191 911 l 191 463 l 97 412 l 97 271 l 191 321 l 191 117 l 97 117 l 97 0 l 872 0 l 872 304 l 739 304 l 739 175 q 720 135 739 153 q 677 117 700 117 l 323 117 l 323 392 l 704 597 l 704 739 l 323 533 l 323 911 l 431 911 l 431 1028 l 97 1028 "},"ł":{"ha":452,"x_min":62,"x_max":400,"o":"m 62 1055 l 62 939 l 164 939 l 164 521 l 64 429 l 64 261 l 164 353 l 164 117 l 62 117 l 62 0 l 396 0 l 396 117 l 290 117 l 290 471 l 400 572 l 400 741 l 290 639 l 290 794 l 290 899 l 290 1055 l 62 1055 "},"Ą":{"ha":1046,"x_min":7,"x_max":1025,"o":"m 7 117 l 7 0 l 340 0 l 340 117 l 235 117 l 314 350 l 708 350 l 790 117 l 700 117 l 700 0 q 642 -65 664 -24 q 619 -153 619 -107 q 632 -217 619 -184 q 670 -274 644 -249 q 735 -314 696 -298 q 828 -329 775 -329 q 897 -319 864 -329 q 945 -301 929 -310 l 911 -199 q 878 -209 897 -205 q 832 -212 859 -212 q 764 -190 791 -212 q 736 -135 736 -167 q 748 -84 736 -109 q 783 -41 761 -60 q 833 -11 804 -22 q 897 0 863 0 l 1025 0 l 1025 117 l 936 117 l 616 1028 l 416 1028 l 96 117 l 7 117 m 353 463 l 510 922 l 669 463 l 353 463 "},"ą":{"ha":707,"x_min":35,"x_max":672,"o":"m 637 0 l 672 0 l 672 117 l 593 117 q 594 292 593 204 q 595 468 595 380 q 576 581 595 533 q 524 659 558 628 q 442 704 490 689 q 332 718 393 718 q 197 696 265 718 q 79 643 129 675 l 121 555 q 203 591 151 575 q 319 607 256 607 q 428 572 387 607 q 469 461 469 536 l 469 397 q 406 408 441 404 q 326 411 371 411 q 300 411 313 411 q 272 408 288 411 q 188 389 231 403 q 112 349 146 375 q 56 282 78 322 q 35 186 35 243 q 52 107 35 144 q 101 41 69 69 q 175 -4 132 12 q 269 -20 218 -20 q 379 5 330 -20 q 468 65 428 29 l 468 0 l 469 0 q 395 -48 421 -21 q 358 -101 370 -75 q 345 -151 346 -127 q 343 -183 343 -174 q 354 -234 343 -208 q 388 -281 366 -260 q 447 -316 411 -302 q 533 -329 484 -329 q 568 -326 550 -329 q 603 -319 586 -323 q 633 -310 619 -315 q 654 -300 647 -304 l 619 -205 q 586 -217 604 -212 q 545 -221 568 -221 q 492 -205 514 -221 q 471 -153 471 -189 q 479 -106 471 -132 q 506 -56 488 -79 q 557 -16 525 -32 q 637 0 589 0 m 297 86 l 297 86 q 196 115 235 86 q 157 200 157 143 q 169 253 157 229 q 204 292 182 277 q 256 315 227 307 q 322 323 286 323 l 468 323 l 468 161 q 394 109 441 132 q 297 86 347 86 "},"Ę":{"ha":872,"x_min":97,"x_max":833,"o":"m 97 1028 l 97 911 l 195 911 l 195 117 l 97 117 l 97 0 l 627 0 q 553 -74 583 -31 q 522 -176 522 -118 q 537 -237 522 -211 q 576 -282 551 -264 q 636 -310 602 -300 q 713 -319 671 -319 q 783 -310 751 -319 q 833 -290 815 -301 l 804 -204 q 767 -215 790 -211 q 717 -220 743 -220 q 661 -200 682 -220 q 640 -153 640 -180 q 687 -65 640 -102 q 821 0 733 -29 l 833 0 l 833 290 l 694 290 l 694 117 l 328 117 l 328 465 l 636 465 l 636 582 l 328 582 l 328 911 l 694 911 l 694 737 l 833 737 l 833 1028 l 97 1028 "},"ę":{"ha":758,"x_min":62,"x_max":693,"o":"m 610 33 l 610 33 q 626 42 618 37 q 643 52 635 46 q 651 57 647 54 q 660 62 656 60 q 668 68 664 65 q 676 74 672 71 l 625 160 q 516 112 568 127 q 410 97 464 97 q 323 112 364 97 q 252 157 282 127 q 205 232 222 187 q 187 335 187 277 l 693 335 q 683 467 693 399 q 642 591 673 534 q 551 684 610 647 q 393 721 492 721 q 249 692 311 721 q 146 612 187 663 q 83 496 104 562 q 62 354 62 429 q 87 191 62 261 q 156 74 113 121 q 260 4 200 28 q 392 -20 321 -20 l 403 -20 q 343 -88 367 -49 q 319 -176 319 -127 q 371 -282 319 -245 q 504 -319 422 -319 q 584 -309 549 -319 q 637 -288 619 -298 l 608 -201 q 573 -214 593 -208 q 525 -220 553 -220 q 460 -202 484 -220 q 437 -153 437 -184 q 446 -115 437 -134 q 469 -77 454 -96 q 505 -40 484 -58 q 553 -3 526 -21 q 581 16 567 7 q 610 33 595 25 m 385 615 l 385 615 q 463 601 431 615 q 515 563 494 587 q 546 506 536 539 q 558 433 555 472 l 195 433 q 215 509 201 475 q 252 567 229 543 q 308 603 275 590 q 385 615 340 615 "},"Į":{"ha":529,"x_min":97,"x_max":432,"o":"m 98 1028 l 98 911 l 192 911 l 192 117 l 97 117 l 97 0 l 221 0 q 150 -72 179 -29 q 121 -176 121 -115 q 174 -282 121 -245 q 311 -319 228 -319 q 382 -310 350 -319 q 432 -290 414 -301 l 403 -204 q 365 -215 389 -211 q 315 -220 342 -220 q 260 -199 281 -220 q 239 -143 239 -179 q 254 -82 239 -109 q 292 -38 269 -56 q 344 -11 315 -21 q 399 0 372 -1 l 431 0 l 431 117 l 325 117 l 325 911 l 432 911 l 432 1028 l 98 1028 "},"į":{"ha":446,"x_min":40,"x_max":375,"o":"m 40 703 l 40 586 l 142 586 l 142 117 l 41 117 l 41 0 l 149 0 q 78 -72 107 -29 q 49 -176 49 -115 q 102 -282 49 -245 q 239 -319 155 -319 q 310 -310 278 -319 q 359 -290 342 -301 l 330 -204 q 293 -215 317 -211 q 243 -220 269 -220 q 188 -199 208 -220 q 167 -143 167 -179 q 182 -82 167 -109 q 220 -38 197 -56 q 271 -11 243 -21 q 326 0 300 -1 l 375 0 l 375 117 l 269 117 l 269 703 l 40 703 "},"Ų":{"ha":1057,"x_min":43,"x_max":1015,"o":"m 682 1028 l 682 911 l 793 911 l 793 435 q 774 284 793 346 q 721 184 755 222 q 638 129 687 146 q 532 113 590 113 q 425 131 473 113 q 343 187 377 149 q 290 286 309 225 q 271 435 271 347 l 271 911 l 376 911 l 376 1028 l 43 1028 l 43 911 l 137 911 l 137 435 q 167 246 137 329 q 249 105 197 163 q 373 17 301 47 q 526 -14 444 -14 q 555 -13 541 -14 q 584 -9 569 -12 q 548 -74 561 -39 q 534 -150 534 -109 q 550 -227 534 -195 q 593 -279 566 -258 q 655 -310 621 -300 q 727 -319 690 -319 q 810 -308 774 -319 q 867 -285 846 -296 l 838 -201 q 797 -214 825 -208 q 743 -220 769 -220 q 680 -197 708 -220 q 652 -129 652 -175 q 659 -78 652 -102 q 681 -31 666 -54 q 718 16 695 -8 q 769 69 740 40 q 881 222 840 127 q 923 447 923 317 l 923 911 l 1015 911 l 1015 1028 l 682 1028 "},"ų":{"ha":812,"x_min":14,"x_max":768,"o":"m 14 703 l 14 586 l 109 586 l 109 306 q 121 163 109 222 q 161 64 134 103 q 234 6 189 25 q 340 -12 278 -12 q 460 8 404 -12 q 564 65 515 29 l 564 1 l 564 1 q 488 -74 519 -29 q 457 -176 457 -118 q 466 -227 457 -204 q 492 -266 475 -249 q 532 -296 509 -283 q 585 -314 555 -309 q 615 -318 600 -317 q 647 -319 631 -319 q 718 -310 686 -319 q 768 -290 750 -301 l 739 -204 q 701 -215 725 -211 q 652 -220 677 -220 q 596 -200 616 -220 q 575 -153 575 -180 q 622 -65 575 -102 q 755 0 668 -29 l 768 0 l 768 117 l 690 117 l 690 703 l 464 703 l 464 586 l 558 586 l 558 158 q 472 116 518 131 q 385 102 425 102 q 277 143 314 102 q 240 265 240 184 l 240 703 l 14 703 "}," ":{"ha":250,"x_min":0,"x_max":0,"o":""},"ℓ":{"ha":663,"x_min":43,"x_max":607,"o":"m 289 225 l 289 406 l 368 481 q 472 581 428 533 q 547 675 517 628 q 592 773 576 722 q 607 884 607 823 q 597 951 607 920 q 567 1008 587 983 q 517 1046 547 1032 q 447 1060 488 1060 q 325 1022 378 1060 q 236 922 272 985 q 182 779 200 860 q 164 610 164 697 l 164 454 l 43 338 l 114 243 l 164 289 q 175 155 164 212 q 212 61 186 98 q 282 5 239 24 q 387 -14 325 -14 q 450 -8 424 -14 q 496 5 476 -3 q 531 21 515 12 q 559 36 546 29 l 521 126 q 471 101 498 115 q 406 87 443 87 q 319 122 349 87 q 289 225 289 157 m 321 606 l 289 575 q 299 718 289 652 q 327 831 309 783 q 371 907 345 879 q 431 935 397 935 q 462 925 446 935 q 478 884 478 916 q 478 865 478 873 q 476 847 478 857 q 464 794 473 821 q 436 739 454 768 q 389 677 418 710 q 321 606 361 644 "},"ƒ":{"ha":494,"x_min":-175,"x_max":755,"o":"m 151 703 l 134 600 l 268 600 l 150 -81 q 99 -183 138 -149 q 4 -218 61 -218 q -66 -210 -33 -218 q -119 -191 -100 -201 l -175 -281 q -109 -307 -150 -294 q 4 -319 -68 -319 q 101 -304 56 -319 q 181 -259 146 -289 q 240 -183 216 -229 q 275 -77 264 -138 l 393 600 l 557 600 l 575 703 l 411 703 l 431 817 q 481 920 443 885 q 576 954 519 954 q 647 946 614 954 q 700 926 681 937 l 755 1017 q 689 1043 730 1031 q 576 1055 648 1055 q 480 1040 525 1055 q 401 995 436 1025 q 341 919 366 965 q 306 812 317 873 l 286 703 l 151 703 "},"∂":{"ha":844,"x_min":70,"x_max":787,"o":"m 292 1034 l 450 1034 l 707 573 q 764 451 741 509 q 787 333 787 393 q 759 192 787 256 q 681 83 730 129 q 568 13 631 37 q 431 -11 505 -11 q 293 13 358 -11 q 178 83 227 37 q 99 196 128 129 q 70 349 70 263 q 99 475 70 413 q 174 580 129 537 q 283 645 219 622 q 407 669 347 669 q 467 664 439 669 q 528 646 494 659 l 292 1034 m 428 107 q 520 122 477 107 q 593 166 562 137 q 642 237 625 195 q 660 332 660 279 q 642 430 660 387 q 594 500 625 472 q 529 542 564 527 q 433 558 495 558 q 348 543 390 558 q 271 501 305 529 q 216 430 237 472 q 196 332 196 387 q 215 240 196 282 q 266 169 234 199 q 340 123 298 139 q 428 107 382 107 "},"À":{"ha":1046,"x_min":7,"x_max":1039,"o":"m 705 117 l 705 0 l 1039 0 l 1039 117 l 936 117 l 616 1028 l 416 1028 l 96 117 l 7 117 l 7 0 l 340 0 l 340 117 l 235 117 l 314 350 l 709 350 l 791 117 l 705 117 m 353 463 l 510 922 l 670 463 l 353 463 m 463 1124 l 561 1124 l 436 1326 l 268 1326 l 268 1315 l 463 1124 "},"à":{"ha":760,"x_min":47,"x_max":685,"o":"m 481 65 l 481 0 l 685 0 l 685 117 l 607 117 l 608 468 q 589 581 608 534 q 537 659 571 628 q 454 704 503 689 q 345 718 406 718 q 277 712 311 718 q 210 697 243 707 q 147 673 177 687 q 92 643 117 659 l 134 555 q 170 575 149 566 q 217 591 191 584 q 271 603 242 598 q 332 607 300 607 q 394 598 366 607 q 441 571 421 589 q 471 526 460 553 q 482 461 482 498 l 481 404 q 421 412 454 409 q 339 415 388 415 q 275 411 309 415 q 209 396 241 406 q 148 368 177 385 q 96 325 118 351 q 61 265 74 300 q 47 186 47 231 q 65 106 47 144 q 113 41 82 69 q 188 -3 144 13 q 282 -20 231 -20 q 392 4 344 -20 q 481 65 441 28 m 310 86 q 253 93 279 86 q 209 114 227 100 q 180 149 190 128 q 170 197 170 170 q 182 250 170 227 q 216 289 194 273 q 268 313 238 304 q 335 321 298 321 l 481 321 l 481 162 q 449 133 468 147 q 408 109 430 119 q 360 92 385 98 q 310 86 335 86 m 302 799 l 401 799 l 276 1002 l 108 1002 l 108 990 l 302 799 "},"Á":{"ha":1046,"x_min":7,"x_max":1039,"o":"m 705 117 l 705 0 l 1039 0 l 1039 117 l 936 117 l 616 1028 l 416 1028 l 96 117 l 7 117 l 7 0 l 340 0 l 340 117 l 235 117 l 314 350 l 709 350 l 791 117 l 705 117 m 353 463 l 510 922 l 670 463 l 353 463 m 562 1326 l 418 1124 l 522 1124 l 725 1315 l 725 1326 l 562 1326 "},"á":{"ha":760,"x_min":47,"x_max":685,"o":"m 481 65 l 481 0 l 685 0 l 685 117 l 607 117 l 608 468 q 589 581 608 534 q 537 659 571 628 q 454 704 503 689 q 345 718 406 718 q 277 712 311 718 q 210 697 243 707 q 147 673 177 687 q 92 643 117 659 l 134 555 q 170 575 149 566 q 217 591 191 584 q 271 603 242 598 q 332 607 300 607 q 394 598 366 607 q 441 571 421 589 q 471 526 460 553 q 482 461 482 498 l 481 404 q 421 412 454 409 q 339 415 388 415 q 275 411 309 415 q 209 396 241 406 q 148 368 177 385 q 96 325 118 351 q 61 265 74 300 q 47 186 47 231 q 65 106 47 144 q 113 41 82 69 q 188 -3 144 13 q 282 -20 231 -20 q 392 4 344 -20 q 481 65 441 28 m 310 86 q 253 93 279 86 q 209 114 227 100 q 180 149 190 128 q 170 197 170 170 q 182 250 170 227 q 216 289 194 273 q 268 313 238 304 q 335 321 298 321 l 481 321 l 481 162 q 449 133 468 147 q 408 109 430 119 q 360 92 385 98 q 310 86 335 86 m 403 1002 l 258 799 l 363 799 l 566 990 l 566 1002 l 403 1002 "},"Â":{"ha":1046,"x_min":7,"x_max":1039,"o":"m 705 117 l 705 0 l 1039 0 l 1039 117 l 936 117 l 616 1028 l 416 1028 l 96 117 l 7 117 l 7 0 l 340 0 l 340 117 l 235 117 l 314 350 l 709 350 l 791 117 l 705 117 m 353 463 l 510 922 l 670 463 l 353 463 m 338 1122 l 438 1122 l 530 1227 l 620 1122 l 721 1122 l 550 1335 l 507 1335 l 338 1122 "},"â":{"ha":760,"x_min":47,"x_max":685,"o":"m 481 65 l 481 0 l 685 0 l 685 117 l 607 117 l 608 468 q 589 581 608 534 q 537 659 571 628 q 454 704 503 689 q 345 718 406 718 q 277 712 311 718 q 210 697 243 707 q 147 673 177 687 q 92 643 117 659 l 134 555 q 170 575 149 566 q 217 591 191 584 q 271 603 242 598 q 332 607 300 607 q 394 598 366 607 q 441 571 421 589 q 471 526 460 553 q 482 461 482 498 l 481 404 q 421 412 454 409 q 339 415 388 415 q 275 411 309 415 q 209 396 241 406 q 148 368 177 385 q 96 325 118 351 q 61 265 74 300 q 47 186 47 231 q 65 106 47 144 q 113 41 82 69 q 188 -3 144 13 q 282 -20 231 -20 q 392 4 344 -20 q 481 65 441 28 m 310 86 q 253 93 279 86 q 209 114 227 100 q 180 149 190 128 q 170 197 170 170 q 182 250 170 227 q 216 289 194 273 q 268 313 238 304 q 335 321 298 321 l 481 321 l 481 162 q 449 133 468 147 q 408 109 430 119 q 360 92 385 98 q 310 86 335 86 m 178 798 l 278 798 l 370 903 l 460 798 l 561 798 l 390 1010 l 347 1010 l 178 798 "},"Ã":{"ha":1046,"x_min":7,"x_max":1039,"o":"m 705 117 l 705 0 l 1039 0 l 1039 117 l 936 117 l 616 1028 l 416 1028 l 96 117 l 7 117 l 7 0 l 340 0 l 340 117 l 235 117 l 314 350 l 709 350 l 791 117 l 705 117 m 353 463 l 510 922 l 670 463 l 353 463 m 425 1284 q 377 1279 401 1284 q 334 1261 354 1274 q 297 1226 313 1248 q 272 1173 281 1205 l 346 1137 q 359 1167 351 1156 q 378 1182 368 1177 q 398 1189 388 1187 q 419 1190 409 1190 q 460 1180 441 1190 q 501 1157 479 1169 q 549 1134 523 1145 q 614 1124 576 1124 q 708 1155 669 1124 q 761 1244 747 1187 l 680 1268 q 656 1227 674 1240 q 619 1214 638 1214 q 572 1225 593 1214 q 529 1249 551 1236 q 483 1273 508 1262 q 425 1284 458 1284 "},"ã":{"ha":760,"x_min":47,"x_max":685,"o":"m 481 65 l 481 0 l 685 0 l 685 117 l 607 117 l 608 468 q 589 581 608 534 q 537 659 571 628 q 454 704 503 689 q 345 718 406 718 q 277 712 311 718 q 210 697 243 707 q 147 673 177 687 q 92 643 117 659 l 134 555 q 170 575 149 566 q 217 591 191 584 q 271 603 242 598 q 332 607 300 607 q 394 598 366 607 q 441 571 421 589 q 471 526 460 553 q 482 461 482 498 l 481 404 q 421 412 454 409 q 339 415 388 415 q 275 411 309 415 q 209 396 241 406 q 148 368 177 385 q 96 325 118 351 q 61 265 74 300 q 47 186 47 231 q 65 106 47 144 q 113 41 82 69 q 188 -3 144 13 q 282 -20 231 -20 q 392 4 344 -20 q 481 65 441 28 m 310 86 q 253 93 279 86 q 209 114 227 100 q 180 149 190 128 q 170 197 170 170 q 182 250 170 227 q 216 289 194 273 q 268 313 238 304 q 335 321 298 321 l 481 321 l 481 162 q 449 133 468 147 q 408 109 430 119 q 360 92 385 98 q 310 86 335 86 m 265 960 q 218 954 241 960 q 174 936 195 949 q 138 902 154 923 q 113 848 121 880 l 186 812 q 200 842 191 831 q 218 858 208 852 q 239 864 229 863 q 260 865 250 865 q 301 855 282 865 q 342 832 320 844 q 390 809 363 820 q 454 799 416 799 q 549 830 509 799 q 602 920 588 862 l 521 943 q 497 902 515 915 q 460 889 479 889 q 412 900 433 889 q 370 924 391 911 q 324 948 349 937 q 265 960 299 960 "},"Ä":{"ha":1046,"x_min":7,"x_max":1039,"o":"m 705 117 l 705 0 l 1039 0 l 1039 117 l 936 117 l 616 1028 l 416 1028 l 96 117 l 7 117 l 7 0 l 340 0 l 340 117 l 235 117 l 314 350 l 709 350 l 791 117 l 705 117 m 353 463 l 510 922 l 670 463 l 353 463 m 260 1247 q 267 1213 260 1229 q 286 1184 274 1196 q 314 1164 298 1171 q 347 1157 330 1157 q 380 1164 364 1157 q 407 1184 395 1171 q 425 1213 418 1196 q 432 1247 432 1229 q 425 1281 432 1265 q 407 1309 418 1297 q 380 1328 395 1320 q 347 1335 364 1335 q 314 1328 330 1335 q 286 1309 298 1320 q 267 1281 274 1297 q 260 1247 260 1265 m 571 1247 q 578 1213 571 1229 q 597 1184 585 1196 q 625 1164 609 1171 q 659 1157 641 1157 q 691 1164 675 1157 q 718 1184 706 1171 q 736 1213 730 1196 q 743 1247 743 1229 q 736 1281 743 1265 q 718 1309 730 1297 q 691 1328 706 1320 q 659 1335 675 1335 q 625 1328 641 1335 q 597 1309 609 1320 q 578 1281 585 1297 q 571 1247 571 1265 "},"ä":{"ha":760,"x_min":47,"x_max":685,"o":"m 481 65 l 481 0 l 685 0 l 685 117 l 607 117 l 608 468 q 589 581 608 534 q 537 659 571 628 q 454 704 503 689 q 345 718 406 718 q 277 712 311 718 q 210 697 243 707 q 147 673 177 687 q 92 643 117 659 l 134 555 q 170 575 149 566 q 217 591 191 584 q 271 603 242 598 q 332 607 300 607 q 394 598 366 607 q 441 571 421 589 q 471 526 460 553 q 482 461 482 498 l 481 404 q 421 412 454 409 q 339 415 388 415 q 275 411 309 415 q 209 396 241 406 q 148 368 177 385 q 96 325 118 351 q 61 265 74 300 q 47 186 47 231 q 65 106 47 144 q 113 41 82 69 q 188 -3 144 13 q 282 -20 231 -20 q 392 4 344 -20 q 481 65 441 28 m 310 86 q 253 93 279 86 q 209 114 227 100 q 180 149 190 128 q 170 197 170 170 q 182 250 170 227 q 216 289 194 273 q 268 313 238 304 q 335 321 298 321 l 481 321 l 481 162 q 449 133 468 147 q 408 109 430 119 q 360 92 385 98 q 310 86 335 86 m 100 922 q 107 888 100 904 q 126 859 115 871 q 154 839 138 846 q 188 832 170 832 q 220 839 205 832 q 248 859 236 846 q 266 888 259 871 q 273 922 273 904 q 266 956 273 940 q 248 984 259 972 q 220 1003 236 996 q 188 1010 205 1010 q 154 1003 170 1010 q 126 984 138 996 q 107 956 115 972 q 100 922 100 940 m 412 922 q 419 888 412 904 q 438 859 426 871 q 466 839 450 846 q 499 832 481 832 q 531 839 516 832 q 558 859 547 846 q 577 888 570 871 q 584 922 584 904 q 577 956 584 940 q 558 984 570 972 q 531 1003 547 996 q 499 1010 516 1010 q 466 1003 481 1010 q 438 984 450 996 q 419 956 426 972 q 412 922 412 940 "},"Ā":{"ha":1046,"x_min":7,"x_max":1039,"o":"m 705 117 l 705 0 l 1039 0 l 1039 117 l 936 117 l 616 1028 l 416 1028 l 96 117 l 7 117 l 7 0 l 340 0 l 340 117 l 235 117 l 314 350 l 709 350 l 791 117 l 705 117 m 353 463 l 510 922 l 670 463 l 353 463 m 753 1158 l 753 1238 l 239 1238 l 239 1158 l 753 1158 "},"ā":{"ha":760,"x_min":47,"x_max":685,"o":"m 481 65 l 481 0 l 685 0 l 685 117 l 607 117 l 608 468 q 589 581 608 534 q 537 659 571 628 q 454 704 503 689 q 345 718 406 718 q 277 712 311 718 q 210 697 243 707 q 147 673 177 687 q 92 643 117 659 l 134 555 q 170 575 149 566 q 217 591 191 584 q 271 603 242 598 q 332 607 300 607 q 394 598 366 607 q 441 571 421 589 q 471 526 460 553 q 482 461 482 498 l 481 404 q 421 412 454 409 q 339 415 388 415 q 275 411 309 415 q 209 396 241 406 q 148 368 177 385 q 96 325 118 351 q 61 265 74 300 q 47 186 47 231 q 65 106 47 144 q 113 41 82 69 q 188 -3 144 13 q 282 -20 231 -20 q 392 4 344 -20 q 481 65 441 28 m 310 86 q 253 93 279 86 q 209 114 227 100 q 180 149 190 128 q 170 197 170 170 q 182 250 170 227 q 216 289 194 273 q 268 313 238 304 q 335 321 298 321 l 481 321 l 481 162 q 449 133 468 147 q 408 109 430 119 q 360 92 385 98 q 310 86 335 86 m 593 833 l 593 913 l 79 913 l 79 833 l 593 833 "},"Ă":{"ha":1046,"x_min":7,"x_max":1039,"o":"m 705 117 l 705 0 l 1039 0 l 1039 117 l 936 117 l 616 1028 l 416 1028 l 96 117 l 7 117 l 7 0 l 340 0 l 340 117 l 235 117 l 314 350 l 709 350 l 791 117 l 705 117 m 353 463 l 510 922 l 670 463 l 353 463 m 521 1104 q 616 1121 572 1104 q 695 1168 661 1138 q 749 1239 728 1198 q 771 1328 769 1280 l 689 1328 q 675 1272 688 1298 q 640 1225 662 1245 q 587 1194 617 1205 q 521 1182 556 1182 q 455 1194 486 1182 q 402 1226 425 1206 q 367 1272 380 1246 q 353 1328 354 1299 l 271 1328 q 293 1239 273 1280 q 347 1168 313 1198 q 425 1121 380 1138 q 521 1104 469 1104 "},"ă":{"ha":760,"x_min":47,"x_max":685,"o":"m 481 65 l 481 0 l 685 0 l 685 117 l 607 117 l 608 468 q 589 581 608 534 q 537 659 571 628 q 454 704 503 689 q 345 718 406 718 q 277 712 311 718 q 210 697 243 707 q 147 673 177 687 q 92 643 117 659 l 134 555 q 170 575 149 566 q 217 591 191 584 q 271 603 242 598 q 332 607 300 607 q 394 598 366 607 q 441 571 421 589 q 471 526 460 553 q 482 461 482 498 l 481 404 q 421 412 454 409 q 339 415 388 415 q 275 411 309 415 q 209 396 241 406 q 148 368 177 385 q 96 325 118 351 q 61 265 74 300 q 47 186 47 231 q 65 106 47 144 q 113 41 82 69 q 188 -3 144 13 q 282 -20 231 -20 q 392 4 344 -20 q 481 65 441 28 m 310 86 q 253 93 279 86 q 209 114 227 100 q 180 149 190 128 q 170 197 170 170 q 182 250 170 227 q 216 289 194 273 q 268 313 238 304 q 335 321 298 321 l 481 321 l 481 162 q 449 133 468 147 q 408 109 430 119 q 360 92 385 98 q 310 86 335 86 m 361 779 q 456 796 412 779 q 535 843 501 813 q 589 914 568 873 q 611 1003 609 955 l 529 1003 q 515 947 528 973 q 479 900 502 920 q 427 869 457 880 q 361 857 396 857 q 295 869 326 857 q 242 901 264 881 q 207 947 220 921 q 193 1003 194 974 l 111 1003 q 133 914 113 955 q 187 843 153 873 q 265 796 220 813 q 361 779 309 779 "},"Å":{"ha":1046,"x_min":7,"x_max":1039,"o":"m 705 117 l 705 0 l 1039 0 l 1039 117 l 936 117 l 623 1011 q 671 1071 653 1035 q 689 1147 689 1107 q 675 1214 689 1182 q 637 1270 661 1246 q 582 1307 614 1293 q 515 1321 550 1321 q 448 1307 479 1321 q 393 1270 416 1293 q 356 1214 370 1246 q 342 1147 342 1182 q 360 1069 342 1105 q 410 1010 378 1034 l 96 117 l 7 117 l 7 0 l 340 0 l 340 117 l 235 117 l 314 350 l 708 350 l 790 117 l 705 117 m 353 463 l 510 922 l 669 463 l 353 463 m 444 1147 l 444 1147 q 466 1197 444 1175 q 515 1218 488 1218 q 565 1197 543 1218 q 586 1147 586 1175 q 565 1098 586 1120 q 515 1076 543 1076 q 466 1098 488 1076 q 444 1147 444 1120 "},"å":{"ha":760,"x_min":47,"x_max":685,"o":"m 481 65 l 481 0 l 685 0 l 685 117 l 607 117 l 608 468 q 589 581 608 534 q 537 659 571 628 q 454 704 503 689 q 345 718 406 718 q 277 712 311 718 q 210 697 243 707 q 147 673 177 687 q 92 643 117 659 l 134 555 q 170 575 149 566 q 217 591 191 584 q 271 603 242 598 q 332 607 300 607 q 394 598 366 607 q 441 571 421 589 q 471 526 460 553 q 482 461 482 498 l 481 404 q 421 412 454 409 q 339 415 388 415 q 275 411 309 415 q 209 396 241 406 q 148 368 177 385 q 96 325 118 351 q 61 265 74 300 q 47 186 47 231 q 65 106 47 144 q 113 41 82 69 q 188 -3 144 13 q 282 -20 231 -20 q 392 4 344 -20 q 481 65 441 28 m 310 86 q 253 93 279 86 q 209 114 227 100 q 180 149 190 128 q 170 197 170 170 q 182 250 170 227 q 216 289 194 273 q 268 313 238 304 q 335 321 298 321 l 481 321 l 481 162 q 449 133 468 147 q 408 109 430 119 q 360 92 385 98 q 310 86 335 86 m 286 911 q 291 938 286 925 q 307 961 297 951 q 329 976 317 970 q 356 982 342 982 q 383 976 370 982 q 406 961 396 970 q 421 938 416 951 q 427 911 427 925 q 421 884 427 897 q 406 862 416 871 q 383 846 396 852 q 356 840 370 840 q 329 846 342 840 q 307 862 317 852 q 291 884 297 871 q 286 911 286 897 m 356 1084 q 289 1070 321 1084 q 234 1033 258 1057 q 196 978 210 1010 q 182 911 182 946 q 196 844 182 876 q 234 789 210 812 q 289 751 258 765 q 356 737 321 737 q 423 751 391 737 q 478 789 455 765 q 516 844 502 812 q 530 911 530 876 q 516 978 530 946 q 478 1033 502 1010 q 423 1070 455 1057 q 356 1084 391 1084 "},"Ç":{"ha":1019,"x_min":49,"x_max":981,"o":"m 827 757 l 972 757 l 972 878 l 901 878 q 818 958 866 921 q 702 1022 770 995 q 539 1048 633 1048 q 343 1007 433 1048 q 187 893 252 965 q 85 723 121 821 q 49 515 49 625 q 85 306 49 406 q 190 132 121 205 q 347 19 259 59 q 541 -20 435 -20 q 741 21 650 -20 q 893 131 831 63 q 981 273 955 199 l 861 329 q 726 158 805 210 q 539 106 646 106 q 397 139 460 106 q 289 221 334 172 q 214 345 243 271 q 186 515 186 419 q 212 670 186 597 q 284 800 237 744 q 395 889 330 856 q 539 922 460 922 q 706 878 631 922 q 827 757 781 834 m 346 -205 l 353 -293 q 446 -279 402 -293 q 526 -238 490 -264 q 587 -172 562 -211 q 625 -83 613 -133 l 524 -53 q 504 -112 518 -84 q 466 -159 489 -139 q 413 -192 444 -180 q 346 -205 383 -205 "},"ç":{"ha":757,"x_min":62,"x_max":703,"o":"m 575 515 l 703 515 l 703 632 l 631 632 q 527 702 587 679 q 401 725 468 725 q 269 697 331 725 q 161 620 208 669 q 89 503 115 571 q 62 353 62 434 q 87 203 62 271 q 158 85 113 134 q 265 8 203 35 q 400 -20 327 -20 q 495 -6 450 -20 q 578 31 541 7 q 646 90 616 56 q 696 168 675 125 l 591 220 q 515 127 563 159 q 401 96 467 96 q 319 114 357 96 q 252 165 281 132 q 206 246 222 199 q 189 353 189 294 q 206 461 189 412 q 251 543 222 509 q 319 595 280 577 q 401 614 357 614 q 503 590 459 614 q 575 515 547 566 m 219 -205 l 227 -293 q 319 -279 275 -293 q 399 -238 363 -264 q 460 -172 435 -211 q 498 -83 486 -133 l 397 -53 q 377 -112 391 -84 q 339 -159 362 -139 q 287 -192 317 -180 q 219 -205 256 -205 "},"Ć":{"ha":1019,"x_min":49,"x_max":981,"o":"m 827 757 l 972 757 l 972 878 l 901 878 q 818 958 866 921 q 702 1022 770 995 q 539 1048 633 1048 q 343 1007 433 1048 q 187 893 252 965 q 85 723 121 821 q 49 515 49 625 q 85 306 49 406 q 190 132 121 205 q 347 19 259 59 q 541 -20 435 -20 q 741 21 650 -20 q 893 131 831 63 q 981 273 955 199 l 861 329 q 726 158 805 210 q 539 106 646 106 q 397 139 460 106 q 289 221 334 172 q 214 345 243 271 q 186 515 186 419 q 212 670 186 597 q 284 800 237 744 q 395 889 330 856 q 539 922 460 922 q 706 878 631 922 q 827 757 781 834 m 581 1326 l 436 1124 l 541 1124 l 743 1315 l 743 1326 l 581 1326 "},"ć":{"ha":757,"x_min":62,"x_max":703,"o":"m 575 515 l 703 515 l 703 632 l 631 632 q 527 702 587 679 q 401 725 468 725 q 269 697 331 725 q 161 620 208 669 q 89 503 115 571 q 62 353 62 434 q 87 203 62 271 q 158 85 113 134 q 265 8 203 35 q 400 -20 327 -20 q 495 -6 450 -20 q 578 31 541 7 q 646 90 616 56 q 696 168 675 125 l 591 220 q 515 127 563 159 q 401 96 467 96 q 319 114 357 96 q 252 165 281 132 q 206 246 222 199 q 189 353 189 294 q 206 461 189 412 q 251 543 222 509 q 319 595 280 577 q 401 614 357 614 q 503 590 459 614 q 575 515 547 566 m 464 1002 l 319 799 l 424 799 l 627 990 l 627 1002 l 464 1002 "},"Č":{"ha":1019,"x_min":49,"x_max":981,"o":"m 827 757 l 972 757 l 972 878 l 901 878 q 818 958 866 921 q 702 1022 770 995 q 539 1048 633 1048 q 343 1007 433 1048 q 187 893 252 965 q 85 723 121 821 q 49 515 49 625 q 85 306 49 406 q 190 132 121 205 q 347 19 259 59 q 541 -20 435 -20 q 741 21 650 -20 q 893 131 831 63 q 981 273 955 199 l 861 329 q 726 158 805 210 q 539 106 646 106 q 397 139 460 106 q 289 221 334 172 q 214 345 243 271 q 186 515 186 419 q 212 670 186 597 q 284 800 237 744 q 395 889 330 856 q 539 922 460 922 q 706 878 631 922 q 827 757 781 834 m 729 1334 l 633 1334 l 542 1201 l 452 1334 l 354 1334 l 525 1095 l 558 1095 l 729 1334 "},"č":{"ha":757,"x_min":62,"x_max":703,"o":"m 575 515 l 703 515 l 703 632 l 631 632 q 527 702 587 679 q 401 725 468 725 q 269 697 331 725 q 161 620 208 669 q 89 503 115 571 q 62 353 62 434 q 87 203 62 271 q 158 85 113 134 q 265 8 203 35 q 400 -20 327 -20 q 495 -6 450 -20 q 578 31 541 7 q 646 90 616 56 q 696 168 675 125 l 591 220 q 515 127 563 159 q 401 96 467 96 q 319 114 357 96 q 252 165 281 132 q 206 246 222 199 q 189 353 189 294 q 206 461 189 412 q 251 543 222 509 q 319 595 280 577 q 401 614 357 614 q 503 590 459 614 q 575 515 547 566 m 612 1009 l 517 1009 l 425 876 l 335 1009 l 237 1009 l 408 770 l 441 770 l 612 1009 "},"Đ":{"ha":1028,"x_min":86,"x_max":979,"o":"m 94 1028 l 94 911 l 200 911 l 200 575 l 86 575 l 86 458 l 200 458 l 200 117 l 94 117 l 94 0 l 485 0 q 681 40 590 0 q 838 151 771 81 q 942 315 904 221 q 979 517 979 410 q 942 716 979 623 q 838 879 904 810 q 681 988 771 947 q 485 1028 590 1028 l 94 1028 m 334 458 l 460 458 l 460 575 l 334 575 l 334 911 l 493 911 q 627 880 564 911 q 737 797 690 850 q 810 672 783 743 q 838 517 838 600 q 810 360 838 433 q 737 233 783 288 q 627 148 690 179 q 493 117 564 117 l 334 117 l 334 458 "},"đ":{"ha":860,"x_min":62,"x_max":807,"o":"m 704 760 l 807 760 l 807 876 l 704 876 l 704 1055 l 482 1055 l 482 939 l 578 939 l 578 876 l 446 876 l 446 760 l 578 760 l 578 669 q 497 708 539 697 q 404 720 456 720 q 264 694 326 720 q 156 620 201 668 q 87 506 111 572 q 62 358 62 439 q 88 198 62 268 q 158 82 114 129 q 264 9 203 35 q 397 -16 326 -16 q 499 4 454 -16 q 578 57 545 24 l 578 0 l 807 0 l 807 117 l 704 117 l 704 760 m 414 94 l 414 94 q 325 112 366 94 q 256 162 285 129 q 210 245 227 196 q 193 359 193 294 q 211 465 193 419 q 257 543 228 511 q 326 592 286 575 q 410 608 366 608 q 500 595 456 608 q 578 554 545 582 l 578 161 q 514 115 554 135 q 414 94 473 94 "},"Ď":{"ha":1031,"x_min":97,"x_max":974,"o":"m 97 1028 l 97 911 l 195 911 l 195 117 l 97 117 l 97 0 l 479 0 q 614 18 550 0 q 732 70 677 37 q 832 151 787 104 q 908 256 877 198 q 957 379 940 313 q 974 517 974 445 q 957 653 974 587 q 908 775 940 718 q 832 879 877 832 q 732 958 787 925 q 614 1010 677 991 q 479 1028 550 1028 l 97 1028 m 328 911 l 488 911 q 622 880 559 911 q 731 797 684 850 q 805 671 778 743 q 832 517 832 600 q 805 360 832 433 q 731 233 778 287 q 622 148 684 179 q 488 117 559 117 l 328 117 l 328 911 m 628 1278 l 532 1278 l 441 1145 l 351 1278 l 253 1278 l 424 1039 l 457 1039 l 628 1278 "},"ď":{"ha":946,"x_min":62,"x_max":941,"o":"m 482 1055 l 482 939 l 578 939 l 578 669 q 497 708 539 697 q 404 720 455 720 q 264 693 327 720 q 156 620 201 667 q 87 506 111 573 q 62 358 62 439 q 88 199 62 269 q 158 82 113 130 q 265 9 203 34 q 397 -16 326 -16 q 499 4 454 -16 q 578 58 544 23 l 578 0 l 807 0 l 807 117 l 704 117 l 704 1055 l 482 1055 m 414 94 q 325 111 366 94 q 255 162 284 128 q 210 245 226 195 q 193 359 193 294 q 210 465 193 419 q 257 543 227 511 q 326 592 286 575 q 410 608 365 608 q 500 595 456 608 q 578 554 544 583 l 578 161 q 508 111 546 127 q 414 94 470 94 m 908 718 l 941 1080 l 807 1069 l 807 718 l 908 718 "},"È":{"ha":872,"x_min":97,"x_max":833,"o":"m 97 1028 l 97 911 l 195 911 l 195 117 l 97 117 l 97 0 l 833 0 l 833 290 l 694 290 l 694 117 l 328 117 l 328 465 l 636 465 l 636 582 l 328 582 l 328 911 l 694 911 l 694 737 l 833 737 l 833 1028 l 97 1028 m 441 1124 l 540 1124 l 415 1326 l 247 1326 l 247 1315 l 441 1124 "},"è":{"ha":798,"x_min":62,"x_max":693,"o":"m 187 335 l 693 335 q 692 387 693 360 q 688 439 691 413 q 664 543 681 492 q 613 633 646 593 q 526 697 579 673 q 393 721 473 721 q 250 692 311 721 q 146 613 188 663 q 83 496 104 563 q 62 354 62 429 q 87 191 62 261 q 156 75 112 121 q 260 4 199 28 q 392 -20 321 -20 q 537 3 467 -20 q 676 74 607 26 l 625 160 q 516 112 568 127 q 410 97 465 97 q 284 131 340 97 q 204 233 229 165 q 192 280 196 256 q 187 335 187 305 m 385 615 q 463 602 431 615 q 515 564 495 588 q 546 506 536 539 q 558 433 555 473 l 194 433 q 215 509 201 475 q 252 567 229 543 q 308 603 275 590 q 385 615 340 615 m 343 799 l 441 799 l 317 1002 l 149 1002 l 149 990 l 343 799 "},"É":{"ha":872,"x_min":97,"x_max":833,"o":"m 97 1028 l 97 911 l 195 911 l 195 117 l 97 117 l 97 0 l 833 0 l 833 290 l 694 290 l 694 117 l 328 117 l 328 465 l 636 465 l 636 582 l 328 582 l 328 911 l 694 911 l 694 737 l 833 737 l 833 1028 l 97 1028 m 542 1326 l 397 1124 l 502 1124 l 705 1315 l 705 1326 l 542 1326 "},"é":{"ha":798,"x_min":62,"x_max":693,"o":"m 187 335 l 693 335 q 692 387 693 360 q 688 439 691 413 q 664 543 681 492 q 613 633 646 593 q 526 697 579 673 q 393 721 473 721 q 250 692 311 721 q 146 613 188 663 q 83 496 104 563 q 62 354 62 429 q 87 191 62 261 q 156 75 112 121 q 260 4 199 28 q 392 -20 321 -20 q 537 3 467 -20 q 676 74 607 26 l 625 160 q 516 112 568 127 q 410 97 465 97 q 284 131 340 97 q 204 233 229 165 q 192 280 196 256 q 187 335 187 305 m 385 615 q 463 602 431 615 q 515 564 495 588 q 546 506 536 539 q 558 433 555 473 l 194 433 q 215 509 201 475 q 252 567 229 543 q 308 603 275 590 q 385 615 340 615 m 443 1002 l 298 799 l 403 799 l 606 990 l 606 1002 l 443 1002 "},"Ê":{"ha":872,"x_min":97,"x_max":833,"o":"m 97 1028 l 97 911 l 195 911 l 195 117 l 97 117 l 97 0 l 833 0 l 833 290 l 694 290 l 694 117 l 328 117 l 328 465 l 636 465 l 636 582 l 328 582 l 328 911 l 694 911 l 694 737 l 833 737 l 833 1028 l 97 1028 m 317 1122 l 417 1122 l 509 1227 l 599 1122 l 700 1122 l 529 1335 l 486 1335 l 317 1122 "},"ê":{"ha":798,"x_min":62,"x_max":693,"o":"m 187 335 l 693 335 q 692 387 693 360 q 688 439 691 413 q 664 543 681 492 q 613 633 646 593 q 526 697 579 673 q 393 721 473 721 q 250 692 311 721 q 146 613 188 663 q 83 496 104 563 q 62 354 62 429 q 87 191 62 261 q 156 75 112 121 q 260 4 199 28 q 392 -20 321 -20 q 537 3 467 -20 q 676 74 607 26 l 625 160 q 516 112 568 127 q 410 97 465 97 q 284 131 340 97 q 204 233 229 165 q 192 280 196 256 q 187 335 187 305 m 385 615 q 463 602 431 615 q 515 564 495 588 q 546 506 536 539 q 558 433 555 473 l 194 433 q 215 509 201 475 q 252 567 229 543 q 308 603 275 590 q 385 615 340 615 m 218 798 l 318 798 l 410 903 l 500 798 l 601 798 l 430 1010 l 387 1010 l 218 798 "},"Ë":{"ha":872,"x_min":97,"x_max":833,"o":"m 97 1028 l 97 911 l 195 911 l 195 117 l 97 117 l 97 0 l 833 0 l 833 290 l 694 290 l 694 117 l 328 117 l 328 465 l 636 465 l 636 582 l 328 582 l 328 911 l 694 911 l 694 737 l 833 737 l 833 1028 l 97 1028 m 239 1247 q 246 1213 239 1229 q 265 1184 253 1196 q 293 1164 277 1171 q 326 1157 309 1157 q 359 1164 343 1157 q 386 1184 374 1171 q 404 1213 397 1196 q 411 1247 411 1229 q 404 1281 411 1265 q 386 1309 397 1297 q 359 1328 374 1320 q 326 1335 343 1335 q 293 1328 309 1335 q 265 1309 277 1320 q 246 1281 253 1297 q 239 1247 239 1265 m 550 1247 q 557 1213 550 1229 q 576 1184 564 1196 q 604 1164 588 1171 q 637 1157 620 1157 q 670 1164 654 1157 q 697 1184 685 1171 q 715 1213 709 1196 q 722 1247 722 1229 q 715 1281 722 1265 q 697 1309 709 1297 q 670 1328 685 1320 q 637 1335 654 1335 q 604 1328 620 1335 q 576 1309 588 1320 q 557 1281 564 1297 q 550 1247 550 1265 "},"ë":{"ha":798,"x_min":62,"x_max":693,"o":"m 187 335 l 693 335 q 692 387 693 360 q 688 439 691 413 q 664 543 681 492 q 613 633 646 593 q 526 697 579 673 q 393 721 473 721 q 250 692 311 721 q 146 613 188 663 q 83 496 104 563 q 62 354 62 429 q 87 191 62 261 q 156 75 112 121 q 260 4 199 28 q 392 -20 321 -20 q 537 3 467 -20 q 676 74 607 26 l 625 160 q 516 112 568 127 q 410 97 465 97 q 284 131 340 97 q 204 233 229 165 q 192 280 196 256 q 187 335 187 305 m 385 615 q 463 602 431 615 q 515 564 495 588 q 546 506 536 539 q 558 433 555 473 l 194 433 q 215 509 201 475 q 252 567 229 543 q 308 603 275 590 q 385 615 340 615 m 140 922 q 148 888 140 904 q 166 859 155 871 q 194 839 178 846 q 228 832 210 832 q 260 839 245 832 q 288 859 276 846 q 306 888 299 871 q 313 922 313 904 q 306 956 313 940 q 288 984 299 972 q 260 1003 276 996 q 228 1010 245 1010 q 194 1003 210 1010 q 166 984 178 996 q 148 956 155 972 q 140 922 140 940 m 452 922 q 459 888 452 904 q 478 859 466 871 q 506 839 490 846 q 539 832 522 832 q 571 839 556 832 q 598 859 587 846 q 617 888 610 871 q 624 922 624 904 q 617 956 624 940 q 598 984 610 972 q 571 1003 587 996 q 539 1010 556 1010 q 506 1003 522 1010 q 478 984 490 996 q 459 956 466 972 q 452 922 452 940 "},"Ě":{"ha":872,"x_min":97,"x_max":833,"o":"m 97 1028 l 97 911 l 195 911 l 195 117 l 97 117 l 97 0 l 833 0 l 833 290 l 694 290 l 694 117 l 328 117 l 328 465 l 636 465 l 636 582 l 328 582 l 328 911 l 694 911 l 694 737 l 833 737 l 833 1028 l 97 1028 m 690 1334 l 595 1334 l 503 1201 l 413 1334 l 315 1334 l 486 1095 l 519 1095 l 690 1334 "},"ě":{"ha":798,"x_min":62,"x_max":693,"o":"m 187 335 l 693 335 q 692 387 693 360 q 688 439 691 413 q 664 543 681 492 q 613 633 646 593 q 526 697 579 673 q 393 721 473 721 q 250 692 311 721 q 146 613 188 663 q 83 496 104 563 q 62 354 62 429 q 87 191 62 261 q 156 75 112 121 q 260 4 199 28 q 392 -20 321 -20 q 537 3 467 -20 q 676 74 607 26 l 625 160 q 516 112 568 127 q 410 97 465 97 q 284 131 340 97 q 204 233 229 165 q 192 280 196 256 q 187 335 187 305 m 385 615 q 463 602 431 615 q 515 564 495 588 q 546 506 536 539 q 558 433 555 473 l 194 433 q 215 509 201 475 q 252 567 229 543 q 308 603 275 590 q 385 615 340 615 m 591 1009 l 496 1009 l 404 876 l 314 1009 l 216 1009 l 387 770 l 420 770 l 591 1009 "},"Ē":{"ha":872,"x_min":97,"x_max":833,"o":"m 97 1028 l 97 911 l 195 911 l 195 117 l 97 117 l 97 0 l 833 0 l 833 290 l 694 290 l 694 117 l 328 117 l 328 465 l 636 465 l 636 582 l 328 582 l 328 911 l 694 911 l 694 737 l 833 737 l 833 1028 l 97 1028 m 732 1158 l 732 1238 l 218 1238 l 218 1158 l 732 1158 "},"ē":{"ha":798,"x_min":62,"x_max":693,"o":"m 187 335 l 693 335 q 692 387 693 360 q 688 439 691 413 q 664 543 681 492 q 613 633 646 593 q 526 697 579 673 q 393 721 473 721 q 250 692 311 721 q 146 613 188 663 q 83 496 104 563 q 62 354 62 429 q 87 191 62 261 q 156 75 112 121 q 260 4 199 28 q 392 -20 321 -20 q 537 3 467 -20 q 676 74 607 26 l 625 160 q 516 112 568 127 q 410 97 465 97 q 284 131 340 97 q 204 233 229 165 q 192 280 196 256 q 187 335 187 305 m 385 615 q 463 602 431 615 q 515 564 495 588 q 546 506 536 539 q 558 433 555 473 l 194 433 q 215 509 201 475 q 252 567 229 543 q 308 603 275 590 q 385 615 340 615 m 633 833 l 633 913 l 119 913 l 119 833 l 633 833 "},"Ė":{"ha":872,"x_min":97,"x_max":833,"o":"m 97 1028 l 97 911 l 195 911 l 195 117 l 97 117 l 97 0 l 833 0 l 833 290 l 694 290 l 694 117 l 328 117 l 328 465 l 636 465 l 636 582 l 328 582 l 328 911 l 694 911 l 694 737 l 833 737 l 833 1028 l 97 1028 m 416 1276 q 424 1242 416 1258 q 443 1213 431 1225 q 471 1193 454 1200 q 505 1186 487 1186 q 539 1193 523 1186 q 567 1213 555 1200 q 586 1242 578 1225 q 593 1276 593 1258 q 586 1310 593 1294 q 567 1338 578 1326 q 539 1357 555 1350 q 505 1364 523 1364 q 471 1357 487 1364 q 443 1338 454 1350 q 424 1310 431 1326 q 416 1276 416 1294 "},"ė":{"ha":798,"x_min":62,"x_max":693,"o":"m 187 335 l 693 335 q 692 387 693 360 q 688 439 691 413 q 664 543 681 492 q 613 633 646 593 q 526 697 579 673 q 393 721 473 721 q 250 692 311 721 q 146 613 188 663 q 83 496 104 563 q 62 354 62 429 q 87 191 62 261 q 156 75 112 121 q 260 4 199 28 q 392 -20 321 -20 q 537 3 467 -20 q 676 74 607 26 l 625 160 q 516 112 568 127 q 410 97 465 97 q 284 131 340 97 q 204 233 229 165 q 192 280 196 256 q 187 335 187 305 m 385 615 q 463 602 431 615 q 515 564 495 588 q 546 506 536 539 q 558 433 555 473 l 194 433 q 215 509 201 475 q 252 567 229 543 q 308 603 275 590 q 385 615 340 615 m 318 951 q 325 917 318 933 q 344 888 332 901 q 372 868 356 876 q 407 861 389 861 q 440 868 425 861 q 468 888 456 876 q 487 917 480 901 q 494 951 494 933 q 487 985 494 969 q 468 1013 480 1001 q 440 1032 456 1025 q 407 1039 425 1039 q 372 1032 389 1039 q 344 1013 356 1025 q 325 985 332 1001 q 318 951 318 969 "},"Ģ":{"ha":1137,"x_min":49,"x_max":1017,"o":"m 890 -4 l 1017 -4 l 1017 489 l 582 489 l 582 372 l 869 372 q 753 175 836 238 q 539 111 669 111 q 396 143 460 111 q 287 222 331 174 q 214 348 243 271 q 186 515 186 425 q 212 670 186 597 q 284 800 237 743 q 395 889 330 856 q 538 922 460 922 q 706 879 631 924 q 827 757 781 834 l 972 757 l 972 878 l 907 878 q 827 953 877 913 q 707 1021 777 993 q 539 1048 637 1048 q 343 1007 433 1048 q 187 893 252 966 q 85 723 121 821 q 49 515 49 625 q 85 306 49 406 q 190 132 121 205 q 344 25 259 59 q 529 -8 429 -8 q 638 5 585 -8 q 740 43 692 18 q 826 109 787 69 q 890 202 865 149 l 890 -4 m 534 -28 l 458 -285 l 555 -321 l 677 -85 l 534 -28 "},"ģ":{"ha":819,"x_min":62,"x_max":708,"o":"m 582 62 l 582 52 q 570 -67 582 -20 q 533 -141 557 -114 q 470 -180 508 -169 q 379 -191 431 -191 q 315 -184 347 -191 q 254 -168 283 -178 q 198 -142 224 -157 q 151 -110 172 -127 l 83 -212 q 152 -257 115 -239 q 228 -287 189 -275 q 307 -304 267 -299 q 383 -310 347 -310 q 629 -224 550 -310 q 708 28 708 -139 l 708 703 l 582 703 l 582 667 q 499 708 542 696 q 404 720 457 720 q 264 693 327 720 q 156 620 201 667 q 87 506 111 573 q 62 358 62 439 q 88 199 62 269 q 158 82 113 130 q 265 9 203 34 q 397 -16 326 -16 q 502 5 456 -16 q 582 62 547 25 m 414 94 q 325 111 366 94 q 255 162 284 128 q 210 245 226 195 q 193 359 193 294 q 210 465 193 419 q 257 543 227 511 q 326 592 286 575 q 410 608 365 608 q 502 595 457 608 q 582 551 547 581 l 582 166 q 554 139 570 152 q 517 116 538 126 q 471 100 496 106 q 414 94 445 94 m 483 763 l 559 1020 l 463 1057 l 340 820 l 483 763 "},"Ğ":{"ha":1137,"x_min":49,"x_max":1017,"o":"m 890 -4 l 1017 -4 l 1017 489 l 582 489 l 582 372 l 869 372 q 753 175 836 238 q 539 111 669 111 q 396 143 460 111 q 287 222 331 174 q 214 348 243 271 q 186 515 186 425 q 212 670 186 597 q 284 800 237 743 q 395 889 330 856 q 538 922 460 922 q 706 879 631 924 q 827 757 781 834 l 972 757 l 972 878 l 907 878 q 827 953 877 913 q 707 1021 777 993 q 539 1048 637 1048 q 343 1007 433 1048 q 187 893 252 966 q 85 723 121 821 q 49 515 49 625 q 85 306 49 406 q 190 132 121 205 q 344 25 259 59 q 529 -8 429 -8 q 638 5 585 -8 q 740 43 692 18 q 826 109 787 69 q 890 202 865 149 l 890 -4 m 568 1104 q 663 1121 618 1104 q 742 1168 708 1138 q 795 1239 775 1198 q 818 1328 816 1280 l 736 1328 q 722 1272 734 1298 q 686 1225 709 1245 q 633 1194 664 1205 q 568 1182 603 1182 q 502 1194 532 1182 q 449 1226 471 1206 q 414 1272 427 1246 q 400 1328 401 1299 l 318 1328 q 340 1239 320 1280 q 394 1168 360 1198 q 472 1121 427 1138 q 568 1104 516 1104 "},"ğ":{"ha":819,"x_min":62,"x_max":708,"o":"m 582 62 l 582 52 q 570 -67 582 -20 q 533 -141 557 -114 q 470 -180 508 -169 q 379 -191 431 -191 q 315 -184 347 -191 q 254 -168 283 -178 q 198 -142 224 -157 q 151 -110 172 -127 l 83 -212 q 152 -257 115 -239 q 228 -287 189 -275 q 307 -304 267 -299 q 383 -310 347 -310 q 629 -224 550 -310 q 708 28 708 -139 l 708 703 l 582 703 l 582 667 q 499 708 542 696 q 404 720 457 720 q 264 693 327 720 q 156 620 201 667 q 87 506 111 573 q 62 358 62 439 q 88 199 62 269 q 158 82 113 130 q 265 9 203 34 q 397 -16 326 -16 q 502 5 456 -16 q 582 62 547 25 m 414 94 q 325 111 366 94 q 255 162 284 128 q 210 245 226 195 q 193 359 193 294 q 210 465 193 419 q 257 543 227 511 q 326 592 286 575 q 410 608 365 608 q 502 595 457 608 q 582 551 547 581 l 582 166 q 554 139 570 152 q 517 116 538 126 q 471 100 496 106 q 414 94 445 94 m 410 779 q 505 796 460 779 q 584 843 550 813 q 637 914 617 873 q 660 1003 658 955 l 578 1003 q 564 947 576 973 q 528 900 551 920 q 475 869 506 880 q 410 857 445 857 q 344 869 374 857 q 291 901 313 881 q 256 947 269 921 q 242 1003 243 974 l 160 1003 q 182 914 162 955 q 236 843 202 873 q 314 796 269 813 q 410 779 358 779 "},"Ì":{"ha":522,"x_min":17,"x_max":425,"o":"m 97 1028 l 97 911 l 195 911 l 195 117 l 97 117 l 97 0 l 425 0 l 425 117 l 328 117 l 328 911 l 425 911 l 425 1028 l 97 1028 m 212 1124 l 310 1124 l 185 1326 l 17 1326 l 17 1315 l 212 1124 "},"ì":{"ha":446,"x_min":-24,"x_max":397,"o":"m 62 703 l 62 586 l 164 586 l 164 117 l 64 117 l 64 0 l 397 0 l 397 117 l 292 117 l 292 703 l 62 703 m 171 799 l 269 799 l 144 1002 l -24 1002 l -24 990 l 171 799 "},"Í":{"ha":522,"x_min":97,"x_max":474,"o":"m 97 1028 l 97 911 l 195 911 l 195 117 l 97 117 l 97 0 l 425 0 l 425 117 l 328 117 l 328 911 l 425 911 l 425 1028 l 97 1028 m 311 1326 l 167 1124 l 271 1124 l 474 1315 l 474 1326 l 311 1326 "},"í":{"ha":446,"x_min":62,"x_max":429,"o":"m 62 703 l 62 586 l 164 586 l 164 117 l 64 117 l 64 0 l 397 0 l 397 117 l 292 117 l 292 703 l 62 703 m 266 1002 l 121 799 l 226 799 l 429 990 l 429 1002 l 266 1002 "},"Î":{"ha":522,"x_min":87,"x_max":470,"o":"m 97 1028 l 97 911 l 195 911 l 195 117 l 97 117 l 97 0 l 425 0 l 425 117 l 328 117 l 328 911 l 425 911 l 425 1028 l 97 1028 m 87 1122 l 187 1122 l 279 1227 l 369 1122 l 470 1122 l 299 1335 l 256 1335 l 87 1122 "},"î":{"ha":446,"x_min":42,"x_max":397,"o":"m 62 703 l 62 586 l 164 586 l 164 117 l 64 117 l 64 0 l 397 0 l 397 117 l 292 117 l 292 703 l 62 703 m 42 798 l 146 798 l 210 903 l 273 798 l 378 798 l 234 1010 l 184 1010 l 42 798 "},"Ï":{"ha":522,"x_min":71,"x_max":457,"o":"m 97 1028 l 97 911 l 195 911 l 195 117 l 97 117 l 97 0 l 425 0 l 425 117 l 328 117 l 328 911 l 425 911 l 425 1028 l 97 1028 m 71 1247 l 71 1247 q 97 1184 71 1211 q 159 1157 123 1157 q 192 1164 176 1157 q 219 1183 208 1171 q 237 1212 230 1196 q 243 1247 243 1229 q 237 1281 243 1265 q 219 1309 230 1297 q 192 1328 208 1320 q 159 1335 176 1335 q 97 1309 123 1335 q 71 1247 71 1283 m 285 1247 l 285 1247 q 311 1184 285 1211 q 372 1157 336 1157 q 405 1164 389 1157 q 432 1183 421 1171 q 450 1212 444 1196 q 457 1247 457 1229 q 450 1281 457 1265 q 432 1309 444 1297 q 405 1328 421 1320 q 372 1335 389 1335 q 311 1309 336 1335 q 285 1247 285 1283 "},"ï":{"ha":446,"x_min":10,"x_max":397,"o":"m 62 703 l 62 586 l 164 586 l 164 117 l 64 117 l 64 0 l 397 0 l 397 117 l 292 117 l 292 703 l 62 703 m 10 922 l 10 922 q 36 859 10 886 q 98 832 62 832 q 131 839 115 832 q 158 858 146 846 q 176 887 169 871 q 182 922 182 904 q 176 956 182 940 q 158 984 169 972 q 131 1003 146 996 q 98 1010 115 1010 q 36 984 62 1010 q 10 922 10 958 m 224 922 l 224 922 q 250 859 224 886 q 311 832 275 832 q 344 839 328 832 q 371 858 360 846 q 389 887 382 871 q 396 922 396 904 q 389 956 396 940 q 371 984 382 972 q 344 1003 360 996 q 311 1010 328 1010 q 250 984 275 1010 q 224 922 224 958 "},"Ī":{"ha":522,"x_min":6,"x_max":520,"o":"m 97 1028 l 97 911 l 195 911 l 195 117 l 97 117 l 97 0 l 425 0 l 425 117 l 328 117 l 328 911 l 425 911 l 425 1028 l 97 1028 m 520 1158 l 520 1238 l 6 1238 l 6 1158 l 520 1158 "},"ī":{"ha":446,"x_min":-35,"x_max":479,"o":"m 62 703 l 62 586 l 164 586 l 164 117 l 64 117 l 64 0 l 397 0 l 397 117 l 292 117 l 292 703 l 62 703 m 479 833 l 479 913 l -35 913 l -35 833 l 479 833 "},"Ķ":{"ha":1060,"x_min":97,"x_max":1014,"o":"m 778 911 l 329 525 l 737 117 l 737 0 l 1014 0 l 1014 117 l 904 117 l 483 532 l 933 911 l 1014 911 l 1014 1028 l 778 1028 l 778 911 m 98 1028 l 98 911 l 195 911 l 195 117 l 97 117 l 97 0 l 431 0 l 431 117 l 328 117 l 328 911 l 432 911 l 432 1028 l 98 1028 m 496 -28 l 419 -285 l 517 -321 l 639 -85 l 496 -28 "},"ķ":{"ha":865,"x_min":62,"x_max":838,"o":"m 62 1055 l 62 939 l 182 939 l 182 117 l 66 117 l 66 0 l 367 0 l 367 117 l 309 117 l 309 314 l 401 314 l 689 0 l 838 0 l 838 117 l 753 117 l 519 366 l 733 586 l 822 586 l 822 703 l 555 703 l 555 586 l 597 586 l 431 414 l 309 414 l 309 939 l 310 939 l 310 1055 l 62 1055 m 399 -28 l 322 -285 l 420 -321 l 542 -85 l 399 -28 "},"Ļ":{"ha":879,"x_min":97,"x_max":872,"o":"m 97 1028 l 97 911 l 195 911 l 195 117 l 97 117 l 97 0 l 872 0 l 872 304 l 743 304 l 743 175 q 738 154 743 164 q 724 135 732 143 q 704 122 715 127 q 682 117 693 117 l 328 117 l 328 911 l 431 911 l 431 1028 l 97 1028 m 406 -28 l 329 -285 l 427 -321 l 549 -85 l 406 -28 "},"ļ":{"ha":452,"x_min":62,"x_max":396,"o":"m 62 1055 l 62 939 l 164 939 l 164 117 l 62 117 l 62 0 l 396 0 l 396 117 l 290 117 l 290 1055 l 62 1055 m 192 -28 l 115 -285 l 213 -321 l 335 -85 l 192 -28 "},"Ĺ":{"ha":879,"x_min":97,"x_max":872,"o":"m 97 1028 l 97 911 l 195 911 l 195 117 l 97 117 l 97 0 l 872 0 l 872 304 l 743 304 l 743 175 q 738 154 743 164 q 724 135 732 143 q 704 122 715 127 q 682 117 693 117 l 328 117 l 328 911 l 431 911 l 431 1028 l 97 1028 m 355 1271 l 211 1068 l 315 1068 l 518 1259 l 518 1271 l 355 1271 "},"ĺ":{"ha":452,"x_min":62,"x_max":449,"o":"m 62 1055 l 62 939 l 164 939 l 164 117 l 62 117 l 62 0 l 396 0 l 396 117 l 290 117 l 290 1055 l 62 1055 m 286 1301 l 142 1099 l 246 1099 l 449 1290 l 449 1301 l 286 1301 "},"Ľ":{"ha":879,"x_min":97,"x_max":872,"o":"m 97 1028 l 97 911 l 195 911 l 195 117 l 97 117 l 97 0 l 872 0 l 872 304 l 743 304 l 743 175 q 738 154 743 164 q 724 135 732 143 q 704 122 715 127 q 682 117 693 117 l 328 117 l 328 911 l 431 911 l 431 1028 l 97 1028 m 728 692 l 760 1055 l 627 1044 l 627 692 l 728 692 "},"ľ":{"ha":529,"x_min":62,"x_max":517,"o":"m 62 1055 l 62 939 l 164 939 l 164 117 l 62 117 l 62 0 l 396 0 l 396 117 l 290 117 l 290 1055 l 62 1055 m 484 718 l 517 1080 l 383 1069 l 383 718 l 484 718 "},"Ń":{"ha":1101,"x_min":97,"x_max":1067,"o":"m 733 1028 l 733 911 l 848 911 l 848 218 l 843 185 l 374 1029 l 97 1029 l 97 911 l 195 911 l 195 117 l 100 117 l 100 0 l 433 0 l 433 117 l 328 117 l 328 852 l 806 0 l 979 0 l 979 911 l 1067 911 l 1067 1028 l 733 1028 m 610 1326 l 465 1124 l 570 1124 l 772 1315 l 772 1326 l 610 1326 "},"ń":{"ha":926,"x_min":68,"x_max":859,"o":"m 530 117 l 530 0 l 859 0 l 859 117 l 761 117 l 761 453 q 744 571 761 521 q 694 652 726 621 q 617 700 663 684 q 515 715 572 715 q 452 708 482 715 q 394 688 422 701 q 341 657 366 675 q 293 620 315 640 l 292 620 l 292 703 l 68 703 l 68 586 l 165 586 l 165 117 l 68 117 l 68 0 l 396 0 l 396 117 l 297 117 l 297 528 q 382 581 337 559 q 471 602 427 602 q 588 560 547 602 q 629 437 629 518 l 629 117 l 530 117 m 514 1002 l 370 799 l 474 799 l 677 990 l 677 1002 l 514 1002 "},"Ň":{"ha":1101,"x_min":97,"x_max":1067,"o":"m 733 1028 l 733 911 l 848 911 l 848 218 l 843 185 l 374 1029 l 97 1029 l 97 911 l 195 911 l 195 117 l 100 117 l 100 0 l 433 0 l 433 117 l 328 117 l 328 852 l 806 0 l 979 0 l 979 911 l 1067 911 l 1067 1028 l 733 1028 m 758 1334 l 663 1334 l 571 1201 l 481 1334 l 383 1334 l 554 1095 l 587 1095 l 758 1334 "},"ň":{"ha":926,"x_min":68,"x_max":859,"o":"m 530 117 l 530 0 l 859 0 l 859 117 l 761 117 l 761 453 q 744 571 761 521 q 694 652 726 621 q 617 700 663 684 q 515 715 572 715 q 452 708 482 715 q 394 688 422 701 q 341 657 366 675 q 293 620 315 640 l 292 620 l 292 703 l 68 703 l 68 586 l 165 586 l 165 117 l 68 117 l 68 0 l 396 0 l 396 117 l 297 117 l 297 528 q 382 581 337 559 q 471 602 427 602 q 588 560 547 602 q 629 437 629 518 l 629 117 l 530 117 m 663 1009 l 567 1009 l 475 876 l 385 1009 l 288 1009 l 458 770 l 492 770 l 663 1009 "},"Ñ":{"ha":1101,"x_min":97,"x_max":1067,"o":"m 733 1028 l 733 911 l 848 911 l 848 218 l 843 185 l 374 1029 l 97 1029 l 97 911 l 195 911 l 195 117 l 100 117 l 100 0 l 433 0 l 433 117 l 328 117 l 328 852 l 806 0 l 979 0 l 979 911 l 1067 911 l 1067 1028 l 733 1028 m 472 1284 q 425 1279 448 1284 q 381 1261 401 1274 q 345 1226 361 1248 q 319 1173 328 1205 l 393 1137 q 407 1167 398 1156 q 425 1182 415 1177 q 446 1189 435 1187 q 467 1190 456 1190 q 508 1180 489 1190 q 549 1157 527 1169 q 597 1134 570 1145 q 661 1124 623 1124 q 755 1155 716 1124 q 808 1244 795 1187 l 728 1268 q 704 1227 722 1240 q 667 1214 686 1214 q 619 1225 640 1214 q 577 1249 598 1236 q 531 1273 555 1262 q 472 1284 506 1284 "},"ñ":{"ha":926,"x_min":68,"x_max":859,"o":"m 530 117 l 530 0 l 859 0 l 859 117 l 761 117 l 761 453 q 744 571 761 521 q 694 652 726 621 q 617 700 663 684 q 515 715 572 715 q 452 708 482 715 q 394 688 422 701 q 341 657 366 675 q 293 620 315 640 l 292 620 l 292 703 l 68 703 l 68 586 l 165 586 l 165 117 l 68 117 l 68 0 l 396 0 l 396 117 l 297 117 l 297 528 q 382 581 337 559 q 471 602 427 602 q 588 560 547 602 q 629 437 629 518 l 629 117 l 530 117 m 376 960 q 329 954 353 960 q 286 936 306 949 q 249 902 265 923 q 224 848 233 880 l 298 812 q 311 842 302 831 q 330 858 319 852 q 350 864 340 863 q 371 865 361 865 q 412 855 393 865 q 453 832 431 844 q 501 809 475 820 q 566 799 528 799 q 660 830 621 799 q 713 920 699 862 l 632 943 q 608 902 626 915 q 571 889 590 889 q 524 900 545 889 q 481 924 503 911 q 435 948 460 937 q 376 960 410 960 "},"Ņ":{"ha":1101,"x_min":97,"x_max":1067,"o":"m 733 1028 l 733 911 l 848 911 l 848 218 l 843 185 l 374 1029 l 97 1029 l 97 911 l 195 911 l 195 117 l 100 117 l 100 0 l 433 0 l 433 117 l 328 117 l 328 852 l 806 0 l 979 0 l 979 911 l 1067 911 l 1067 1028 l 733 1028 m 517 -28 l 440 -285 l 538 -321 l 660 -85 l 517 -28 "},"ņ":{"ha":926,"x_min":68,"x_max":859,"o":"m 530 117 l 530 0 l 859 0 l 859 117 l 761 117 l 761 453 q 744 571 761 521 q 694 652 726 621 q 617 700 663 684 q 515 715 572 715 q 452 708 482 715 q 394 688 422 701 q 341 657 366 675 q 293 620 315 640 l 292 620 l 292 703 l 68 703 l 68 586 l 165 586 l 165 117 l 68 117 l 68 0 l 396 0 l 396 117 l 297 117 l 297 528 q 382 581 337 559 q 471 602 427 602 q 588 560 547 602 q 629 437 629 518 l 629 117 l 530 117 m 429 -28 l 353 -285 l 450 -321 l 572 -85 l 429 -28 "},"Ò":{"ha":1086,"x_min":49,"x_max":1035,"o":"m 542 -20 q 741 21 650 -20 q 897 136 831 63 q 999 306 962 208 q 1035 514 1035 403 q 999 723 1035 625 q 898 893 963 821 q 742 1007 833 965 q 542 1048 651 1048 q 343 1007 433 1048 q 187 893 252 965 q 85 723 121 821 q 49 514 49 625 q 85 306 49 406 q 190 132 121 205 q 347 19 259 59 q 542 -20 435 -20 m 542 106 q 398 139 461 106 q 289 221 334 172 q 215 345 243 271 q 187 514 187 419 q 212 670 187 595 q 283 800 237 744 q 395 889 330 856 q 542 922 461 922 q 677 893 612 922 q 792 809 743 863 q 868 676 841 755 q 896 514 896 598 q 871 358 896 432 q 800 228 846 284 q 688 139 753 172 q 542 106 623 106 m 490 1124 l 589 1124 l 464 1326 l 296 1326 l 296 1315 l 490 1124 "},"ò":{"ha":827,"x_min":58,"x_max":762,"o":"m 58 351 q 85 200 59 269 q 157 82 111 132 q 267 6 203 33 q 411 -21 332 -21 q 554 6 489 -21 q 665 83 618 34 q 736 202 711 133 q 762 353 762 271 q 736 505 762 436 q 665 622 711 573 q 554 696 618 670 q 411 723 489 723 q 269 696 334 723 q 158 621 205 670 q 85 503 111 572 q 58 351 59 435 m 192 351 q 209 465 192 415 q 257 547 227 514 q 327 597 287 581 q 411 614 366 614 q 498 597 458 614 q 569 547 539 581 q 615 465 598 514 q 632 351 632 415 q 615 241 632 290 q 568 158 598 193 q 498 106 538 124 q 411 87 458 87 q 327 106 366 87 q 257 159 287 125 q 209 242 227 193 q 192 351 192 291 m 362 799 l 460 799 l 336 1002 l 168 1002 l 168 990 l 362 799 "},"Ó":{"ha":1086,"x_min":49,"x_max":1035,"o":"m 542 -20 q 741 21 650 -20 q 897 136 831 63 q 999 306 962 208 q 1035 514 1035 403 q 999 723 1035 625 q 898 893 963 821 q 742 1007 833 965 q 542 1048 651 1048 q 343 1007 433 1048 q 187 893 252 965 q 85 723 121 821 q 49 514 49 625 q 85 306 49 406 q 190 132 121 205 q 347 19 259 59 q 542 -20 435 -20 m 542 106 q 398 139 461 106 q 289 221 334 172 q 215 345 243 271 q 187 514 187 419 q 212 670 187 595 q 283 800 237 744 q 395 889 330 856 q 542 922 461 922 q 677 893 612 922 q 792 809 743 863 q 868 676 841 755 q 896 514 896 598 q 871 358 896 432 q 800 228 846 284 q 688 139 753 172 q 542 106 623 106 m 590 1326 l 446 1124 l 550 1124 l 753 1315 l 753 1326 l 590 1326 "},"ó":{"ha":827,"x_min":58,"x_max":762,"o":"m 58 351 q 85 200 59 269 q 157 82 111 132 q 267 6 203 33 q 411 -21 332 -21 q 554 6 489 -21 q 665 83 618 34 q 736 202 711 133 q 762 353 762 271 q 736 505 762 436 q 665 622 711 573 q 554 696 618 670 q 411 723 489 723 q 269 696 334 723 q 158 621 205 670 q 85 503 111 572 q 58 351 59 435 m 192 351 q 209 465 192 415 q 257 547 227 514 q 327 597 287 581 q 411 614 366 614 q 498 597 458 614 q 569 547 539 581 q 615 465 598 514 q 632 351 632 415 q 615 241 632 290 q 568 158 598 193 q 498 106 538 124 q 411 87 458 87 q 327 106 366 87 q 257 159 287 125 q 209 242 227 193 q 192 351 192 291 m 463 1002 l 318 799 l 422 799 l 625 990 l 625 1002 l 463 1002 "},"Ô":{"ha":1086,"x_min":49,"x_max":1035,"o":"m 542 -20 q 741 21 650 -20 q 897 136 831 63 q 999 306 962 208 q 1035 514 1035 403 q 999 723 1035 625 q 898 893 963 821 q 742 1007 833 965 q 542 1048 651 1048 q 343 1007 433 1048 q 187 893 252 965 q 85 723 121 821 q 49 514 49 625 q 85 306 49 406 q 190 132 121 205 q 347 19 259 59 q 542 -20 435 -20 m 542 106 q 398 139 461 106 q 289 221 334 172 q 215 345 243 271 q 187 514 187 419 q 212 670 187 595 q 283 800 237 744 q 395 889 330 856 q 542 922 461 922 q 677 893 612 922 q 792 809 743 863 q 868 676 841 755 q 896 514 896 598 q 871 358 896 432 q 800 228 846 284 q 688 139 753 172 q 542 106 623 106 m 366 1122 l 466 1122 l 557 1227 l 648 1122 l 749 1122 l 578 1335 l 535 1335 l 366 1122 "},"ô":{"ha":827,"x_min":58,"x_max":762,"o":"m 58 351 q 85 200 59 269 q 157 82 111 132 q 267 6 203 33 q 411 -21 332 -21 q 554 6 489 -21 q 665 83 618 34 q 736 202 711 133 q 762 353 762 271 q 736 505 762 436 q 665 622 711 573 q 554 696 618 670 q 411 723 489 723 q 269 696 334 723 q 158 621 205 670 q 85 503 111 572 q 58 351 59 435 m 192 351 q 209 465 192 415 q 257 547 227 514 q 327 597 287 581 q 411 614 366 614 q 498 597 458 614 q 569 547 539 581 q 615 465 598 514 q 632 351 632 415 q 615 241 632 290 q 568 158 598 193 q 498 106 538 124 q 411 87 458 87 q 327 106 366 87 q 257 159 287 125 q 209 242 227 193 q 192 351 192 291 m 237 798 l 338 798 l 429 903 l 519 798 l 621 798 l 450 1010 l 407 1010 l 237 798 "},"Õ":{"ha":1086,"x_min":49,"x_max":1035,"o":"m 542 -20 q 741 21 650 -20 q 897 136 831 63 q 999 306 962 208 q 1035 514 1035 403 q 999 723 1035 625 q 898 893 963 821 q 742 1007 833 965 q 542 1048 651 1048 q 343 1007 433 1048 q 187 893 252 965 q 85 723 121 821 q 49 514 49 625 q 85 306 49 406 q 190 132 121 205 q 347 19 259 59 q 542 -20 435 -20 m 542 106 q 398 139 461 106 q 289 221 334 172 q 215 345 243 271 q 187 514 187 419 q 212 670 187 595 q 283 800 237 744 q 395 889 330 856 q 542 922 461 922 q 677 893 612 922 q 792 809 743 863 q 868 676 841 755 q 896 514 896 598 q 871 358 896 432 q 800 228 846 284 q 688 139 753 172 q 542 106 623 106 m 452 1284 q 405 1279 429 1284 q 361 1261 382 1274 q 325 1226 341 1248 q 300 1173 309 1205 l 374 1137 q 387 1167 378 1156 q 406 1182 395 1177 q 426 1189 416 1187 q 447 1190 437 1190 q 488 1180 469 1190 q 529 1157 507 1169 q 577 1134 551 1145 q 642 1124 604 1124 q 736 1155 696 1124 q 789 1244 775 1187 l 708 1268 q 684 1227 702 1240 q 647 1214 666 1214 q 600 1225 621 1214 q 557 1249 578 1236 q 511 1273 536 1262 q 452 1284 486 1284 "},"õ":{"ha":827,"x_min":58,"x_max":762,"o":"m 58 351 q 85 200 59 269 q 157 82 111 132 q 267 6 203 33 q 411 -21 332 -21 q 554 6 489 -21 q 665 83 618 34 q 736 202 711 133 q 762 353 762 271 q 736 505 762 436 q 665 622 711 573 q 554 696 618 670 q 411 723 489 723 q 269 696 334 723 q 158 621 205 670 q 85 503 111 572 q 58 351 59 435 m 192 351 q 209 465 192 415 q 257 547 227 514 q 327 597 287 581 q 411 614 366 614 q 498 597 458 614 q 569 547 539 581 q 615 465 598 514 q 632 351 632 415 q 615 241 632 290 q 568 158 598 193 q 498 106 538 124 q 411 87 458 87 q 327 106 366 87 q 257 159 287 125 q 209 242 227 193 q 192 351 192 291 m 325 960 q 278 954 301 960 q 234 936 254 949 q 197 902 214 923 q 172 848 181 880 l 246 812 q 259 842 251 831 q 278 858 268 852 q 299 864 288 863 q 319 865 309 865 q 361 855 342 865 q 401 832 380 844 q 450 809 423 820 q 514 799 476 799 q 608 830 569 799 q 661 920 648 862 l 581 943 q 556 902 574 915 q 519 889 538 889 q 472 900 493 889 q 430 924 451 911 q 384 948 408 937 q 325 960 359 960 "},"Ö":{"ha":1086,"x_min":49,"x_max":1035,"o":"m 542 -20 q 741 21 650 -20 q 897 136 831 63 q 999 306 962 208 q 1035 514 1035 403 q 999 723 1035 625 q 898 893 963 821 q 742 1007 833 965 q 542 1048 651 1048 q 343 1007 433 1048 q 187 893 252 965 q 85 723 121 821 q 49 514 49 625 q 85 306 49 406 q 190 132 121 205 q 347 19 259 59 q 542 -20 435 -20 m 542 106 q 398 139 461 106 q 289 221 334 172 q 215 345 243 271 q 187 514 187 419 q 212 670 187 595 q 283 800 237 744 q 395 889 330 856 q 542 922 461 922 q 677 893 612 922 q 792 809 743 863 q 868 676 841 755 q 896 514 896 598 q 871 358 896 432 q 800 228 846 284 q 688 139 753 172 q 542 106 623 106 m 288 1247 q 295 1213 288 1229 q 314 1184 302 1196 q 341 1164 326 1171 q 375 1157 357 1157 q 408 1164 392 1157 q 435 1184 423 1171 q 453 1213 446 1196 q 460 1247 460 1229 q 453 1281 460 1265 q 435 1309 446 1297 q 408 1328 423 1320 q 375 1335 392 1335 q 341 1328 357 1335 q 314 1309 326 1320 q 295 1281 302 1297 q 288 1247 288 1265 m 599 1247 q 606 1213 599 1229 q 625 1184 613 1196 q 653 1164 637 1171 q 686 1157 669 1157 q 719 1164 703 1157 q 746 1184 734 1171 q 764 1213 758 1196 q 771 1247 771 1229 q 764 1281 771 1265 q 746 1309 758 1297 q 719 1328 734 1320 q 686 1335 703 1335 q 653 1328 669 1335 q 625 1309 637 1320 q 606 1281 613 1297 q 599 1247 599 1265 "},"ö":{"ha":827,"x_min":58,"x_max":762,"o":"m 58 351 q 85 200 59 269 q 157 82 111 132 q 267 6 203 33 q 411 -21 332 -21 q 554 6 489 -21 q 665 83 618 34 q 736 202 711 133 q 762 353 762 271 q 736 505 762 436 q 665 622 711 573 q 554 696 618 670 q 411 723 489 723 q 269 696 334 723 q 158 621 205 670 q 85 503 111 572 q 58 351 59 435 m 192 351 q 209 465 192 415 q 257 547 227 514 q 327 597 287 581 q 411 614 366 614 q 498 597 458 614 q 569 547 539 581 q 615 465 598 514 q 632 351 632 415 q 615 241 632 290 q 568 158 598 193 q 498 106 538 124 q 411 87 458 87 q 327 106 366 87 q 257 159 287 125 q 209 242 227 193 q 192 351 192 291 m 160 922 q 167 888 160 904 q 186 859 174 871 q 214 839 198 846 q 248 832 230 832 q 280 839 264 832 q 307 859 296 846 q 326 888 319 871 q 332 922 332 904 q 326 956 332 940 q 307 984 319 972 q 280 1003 296 996 q 248 1010 264 1010 q 214 1003 230 1010 q 186 984 198 996 q 167 956 174 972 q 160 922 160 940 m 471 922 q 478 888 471 904 q 497 859 486 871 q 525 839 509 846 q 559 832 541 832 q 591 839 576 832 q 618 859 606 846 q 637 888 630 871 q 644 922 644 904 q 637 956 644 940 q 618 984 630 972 q 591 1003 606 996 q 559 1010 576 1010 q 525 1003 541 1010 q 497 984 509 996 q 478 956 486 972 q 471 922 471 940 "},"Ő":{"ha":1086,"x_min":49,"x_max":1035,"o":"m 542 -20 q 741 21 650 -20 q 897 136 831 63 q 999 306 962 208 q 1035 514 1035 403 q 999 723 1035 625 q 898 893 963 821 q 742 1007 833 965 q 542 1048 651 1048 q 343 1007 433 1048 q 187 893 252 965 q 85 723 121 821 q 49 514 49 625 q 85 306 49 406 q 190 132 121 205 q 347 19 259 59 q 542 -20 435 -20 m 542 106 q 398 139 461 106 q 289 221 334 172 q 215 345 243 271 q 187 514 187 419 q 212 670 187 595 q 283 800 237 744 q 395 889 330 856 q 542 922 461 922 q 677 893 612 922 q 792 809 743 863 q 868 676 841 755 q 896 514 896 598 q 871 358 896 432 q 800 228 846 284 q 688 139 753 172 q 542 106 623 106 m 855 1327 l 735 1327 l 594 1124 l 697 1124 l 855 1327 m 637 1327 l 517 1327 l 385 1124 l 487 1124 l 637 1327 "},"ő":{"ha":827,"x_min":58,"x_max":762,"o":"m 58 351 q 85 200 59 269 q 157 82 111 132 q 267 6 203 33 q 411 -21 332 -21 q 554 6 489 -21 q 665 83 618 34 q 736 202 711 133 q 762 353 762 271 q 736 505 762 436 q 665 622 711 573 q 554 696 618 670 q 411 723 489 723 q 269 696 334 723 q 158 621 205 670 q 85 503 111 572 q 58 351 59 435 m 192 351 q 209 465 192 415 q 257 547 227 514 q 327 597 287 581 q 411 614 366 614 q 498 597 458 614 q 569 547 539 581 q 615 465 598 514 q 632 351 632 415 q 615 241 632 290 q 568 158 598 193 q 498 106 538 124 q 411 87 458 87 q 327 106 366 87 q 257 159 287 125 q 209 242 227 193 q 192 351 192 291 m 727 1002 l 607 1002 l 466 799 l 569 799 l 727 1002 m 509 1002 l 389 1002 l 256 799 l 359 799 l 509 1002 "},"Ō":{"ha":1086,"x_min":49,"x_max":1035,"o":"m 542 -20 q 741 21 650 -20 q 897 136 831 63 q 999 306 962 208 q 1035 514 1035 403 q 999 723 1035 625 q 898 893 963 821 q 742 1007 833 965 q 542 1048 651 1048 q 343 1007 433 1048 q 187 893 252 965 q 85 723 121 821 q 49 514 49 625 q 85 306 49 406 q 190 132 121 205 q 347 19 259 59 q 542 -20 435 -20 m 542 106 q 398 139 461 106 q 289 221 334 172 q 215 345 243 271 q 187 514 187 419 q 212 670 187 595 q 283 800 237 744 q 395 889 330 856 q 542 922 461 922 q 677 893 612 922 q 792 809 743 863 q 868 676 841 755 q 896 514 896 598 q 871 358 896 432 q 800 228 846 284 q 688 139 753 172 q 542 106 623 106 m 781 1158 l 781 1238 l 267 1238 l 267 1158 l 781 1158 "},"ō":{"ha":827,"x_min":58,"x_max":762,"o":"m 58 351 q 85 200 59 269 q 157 82 111 132 q 267 6 203 33 q 411 -21 332 -21 q 554 6 489 -21 q 665 83 618 34 q 736 202 711 133 q 762 353 762 271 q 736 505 762 436 q 665 622 711 573 q 554 696 618 670 q 411 723 489 723 q 269 696 334 723 q 158 621 205 670 q 85 503 111 572 q 58 351 59 435 m 192 351 q 209 465 192 415 q 257 547 227 514 q 327 597 287 581 q 411 614 366 614 q 498 597 458 614 q 569 547 539 581 q 615 465 598 514 q 632 351 632 415 q 615 241 632 290 q 568 158 598 193 q 498 106 538 124 q 411 87 458 87 q 327 106 366 87 q 257 159 287 125 q 209 242 227 193 q 192 351 192 291 m 653 833 l 653 913 l 139 913 l 139 833 l 653 833 "},"Ŕ":{"ha":993,"x_min":97,"x_max":918,"o":"m 97 1028 l 97 911 l 195 911 l 195 117 l 97 117 l 97 0 l 431 0 l 431 117 l 328 117 l 328 476 l 460 476 q 577 436 534 476 q 642 313 621 397 l 718 0 l 918 0 l 917 129 l 828 129 l 771 353 q 751 407 764 382 q 723 453 739 433 q 691 487 708 473 q 656 508 673 500 q 730 547 696 522 q 789 604 764 572 q 828 674 814 636 q 842 750 842 711 q 818 870 842 818 q 752 957 794 922 q 651 1010 709 992 q 525 1028 593 1028 l 97 1028 m 328 911 l 509 911 q 655 868 609 911 q 701 749 701 825 q 688 679 701 709 q 651 628 675 648 q 596 597 628 608 q 525 587 564 587 l 328 587 l 328 911 m 517 1328 l 372 1125 l 477 1125 l 680 1316 l 680 1328 l 517 1328 "},"ŕ":{"ha":652,"x_min":68,"x_max":573,"o":"m 573 554 l 573 707 q 511 708 542 708 q 444 708 479 708 q 395 700 418 708 q 354 679 372 692 q 320 646 335 665 q 292 606 304 627 l 292 703 l 68 703 l 68 586 l 165 586 l 165 117 l 68 117 l 68 0 l 416 0 l 416 117 l 297 117 l 297 456 q 319 519 304 492 q 355 563 334 546 q 398 589 375 581 q 444 597 422 597 l 444 554 l 573 554 m 323 1002 l 179 799 l 283 799 l 486 990 l 486 1002 l 323 1002 "},"Ř":{"ha":993,"x_min":97,"x_max":918,"o":"m 97 1028 l 97 911 l 195 911 l 195 117 l 97 117 l 97 0 l 431 0 l 431 117 l 328 117 l 328 476 l 460 476 q 577 436 534 476 q 642 313 621 397 l 718 0 l 918 0 l 917 129 l 828 129 l 771 353 q 751 407 764 382 q 723 453 739 433 q 691 487 708 473 q 656 508 673 500 q 730 547 696 522 q 789 604 764 572 q 828 674 814 636 q 842 750 842 711 q 818 870 842 818 q 752 957 794 922 q 651 1010 709 992 q 525 1028 593 1028 l 97 1028 m 328 911 l 509 911 q 655 868 609 911 q 701 749 701 825 q 688 679 701 709 q 651 628 675 648 q 596 597 628 608 q 525 587 564 587 l 328 587 l 328 911 m 665 1335 l 570 1335 l 478 1202 l 388 1335 l 290 1335 l 461 1096 l 494 1096 l 665 1335 "},"ř":{"ha":652,"x_min":68,"x_max":573,"o":"m 573 554 l 573 707 q 511 708 542 708 q 444 708 479 708 q 395 700 418 708 q 354 679 372 692 q 320 646 335 665 q 292 606 304 627 l 292 703 l 68 703 l 68 586 l 165 586 l 165 117 l 68 117 l 68 0 l 416 0 l 416 117 l 297 117 l 297 456 q 319 519 304 492 q 355 563 334 546 q 398 589 375 581 q 444 597 422 597 l 444 554 l 573 554 m 473 1009 l 377 1009 l 286 876 l 195 1009 l 98 1009 l 269 770 l 302 770 l 473 1009 "},"Ŗ":{"ha":993,"x_min":97,"x_max":918,"o":"m 97 1028 l 97 911 l 195 911 l 195 117 l 97 117 l 97 0 l 431 0 l 431 117 l 328 117 l 328 476 l 460 476 q 577 436 534 476 q 642 313 621 397 l 718 0 l 918 0 l 917 129 l 828 129 l 771 353 q 751 407 764 382 q 723 453 739 433 q 691 487 708 473 q 656 508 673 500 q 730 547 696 522 q 789 604 764 572 q 828 674 814 636 q 842 750 842 711 q 818 870 842 818 q 752 957 794 922 q 651 1010 709 992 q 525 1028 593 1028 l 97 1028 m 328 911 l 509 911 q 655 868 609 911 q 701 749 701 825 q 688 679 701 709 q 651 628 675 648 q 596 597 628 608 q 525 587 564 587 l 328 587 l 328 911 m 463 -28 l 386 -285 l 484 -321 l 606 -85 l 463 -28 "},"ŗ":{"ha":652,"x_min":68,"x_max":573,"o":"m 573 554 l 573 707 q 511 708 542 708 q 444 708 479 708 q 395 700 418 708 q 354 679 372 692 q 320 646 335 665 q 292 606 304 627 l 292 703 l 68 703 l 68 586 l 165 586 l 165 117 l 68 117 l 68 0 l 416 0 l 416 117 l 297 117 l 297 456 q 319 519 304 492 q 355 563 334 546 q 398 589 375 581 q 444 597 422 597 l 444 554 l 573 554 m 214 -28 l 137 -285 l 235 -321 l 357 -85 l 214 -28 "},"Ś":{"ha":821,"x_min":54,"x_max":790,"o":"m 624 749 l 790 749 l 790 865 l 739 865 q 691 938 720 905 q 624 994 662 970 q 540 1030 587 1017 q 439 1043 494 1043 q 291 1021 355 1043 q 181 960 226 999 q 113 870 136 922 q 90 760 90 819 q 106 657 90 701 q 150 579 121 612 q 219 523 179 546 q 309 485 260 500 l 457 443 q 519 420 487 433 q 578 387 551 408 q 623 338 606 367 q 640 268 640 309 q 626 201 640 231 q 586 151 612 172 q 523 119 560 130 q 440 109 486 109 q 353 119 393 109 q 286 150 314 130 q 241 202 257 171 q 225 309 225 233 l 54 309 l 54 192 l 106 192 q 142 113 119 151 q 203 44 165 74 q 298 -4 241 14 q 433 -22 354 -22 q 575 0 511 -22 q 687 63 640 23 q 760 157 734 103 q 786 275 786 212 q 769 379 786 334 q 721 458 753 424 q 642 517 689 492 q 533 562 595 543 l 396 607 q 339 626 369 616 q 286 652 310 635 q 245 696 261 669 q 229 768 229 724 q 242 825 229 798 q 280 873 255 852 q 345 905 306 893 q 435 917 383 917 q 497 908 466 917 q 554 884 528 900 q 602 838 581 868 q 624 749 624 808 m 489 1326 l 345 1124 l 449 1124 l 652 1315 l 652 1326 l 489 1326 "},"ś":{"ha":673,"x_min":56,"x_max":612,"o":"m 473 514 l 612 514 l 612 631 l 547 631 q 455 703 506 682 q 329 724 404 724 q 225 708 271 724 q 148 665 180 692 q 100 600 117 637 q 83 517 83 562 q 123 404 83 449 q 245 330 163 359 l 379 279 q 454 237 432 260 q 476 179 476 213 q 465 139 476 157 q 436 109 454 121 q 393 90 417 96 q 342 83 368 83 q 289 90 315 83 q 242 109 262 96 q 209 142 221 121 q 196 192 196 163 l 56 192 l 56 75 l 126 75 q 205 5 154 32 q 339 -21 257 -21 q 446 -6 398 -21 q 529 37 494 9 q 582 103 563 64 q 600 189 600 142 q 560 309 600 259 q 433 389 520 359 l 298 436 q 227 474 248 454 q 205 530 205 495 q 215 567 205 551 q 240 595 224 584 q 279 613 256 607 q 329 619 302 619 q 379 613 353 619 q 426 595 405 608 q 460 563 447 583 q 473 514 473 543 m 383 1002 l 239 799 l 343 799 l 546 990 l 546 1002 l 383 1002 "},"Š":{"ha":821,"x_min":54,"x_max":790,"o":"m 624 749 l 790 749 l 790 865 l 739 865 q 691 938 720 905 q 624 994 662 970 q 540 1030 587 1017 q 439 1043 494 1043 q 291 1021 355 1043 q 181 960 226 999 q 113 870 136 922 q 90 760 90 819 q 106 657 90 701 q 150 579 121 612 q 219 523 179 546 q 309 485 260 500 l 457 443 q 519 420 487 433 q 578 387 551 408 q 623 338 606 367 q 640 268 640 309 q 626 201 640 231 q 586 151 612 172 q 523 119 560 130 q 440 109 486 109 q 353 119 393 109 q 286 150 314 130 q 241 202 257 171 q 225 309 225 233 l 54 309 l 54 192 l 106 192 q 142 113 119 151 q 203 44 165 74 q 298 -4 241 14 q 433 -22 354 -22 q 575 0 511 -22 q 687 63 640 23 q 760 157 734 103 q 786 275 786 212 q 769 379 786 334 q 721 458 753 424 q 642 517 689 492 q 533 562 595 543 l 396 607 q 339 626 369 616 q 286 652 310 635 q 245 696 261 669 q 229 768 229 724 q 242 825 229 798 q 280 873 255 852 q 345 905 306 893 q 435 917 383 917 q 497 908 466 917 q 554 884 528 900 q 602 838 581 868 q 624 749 624 808 m 637 1334 l 542 1334 l 450 1201 l 360 1334 l 262 1334 l 433 1095 l 467 1095 l 637 1334 "},"š":{"ha":673,"x_min":56,"x_max":612,"o":"m 473 514 l 612 514 l 612 631 l 547 631 q 455 703 506 682 q 329 724 404 724 q 225 708 271 724 q 148 665 180 692 q 100 600 117 637 q 83 517 83 562 q 123 404 83 449 q 245 330 163 359 l 379 279 q 454 237 432 260 q 476 179 476 213 q 465 139 476 157 q 436 109 454 121 q 393 90 417 96 q 342 83 368 83 q 289 90 315 83 q 242 109 262 96 q 209 142 221 121 q 196 192 196 163 l 56 192 l 56 75 l 126 75 q 205 5 154 32 q 339 -21 257 -21 q 446 -6 398 -21 q 529 37 494 9 q 582 103 563 64 q 600 189 600 142 q 560 309 600 259 q 433 389 520 359 l 298 436 q 227 474 248 454 q 205 530 205 495 q 215 567 205 551 q 240 595 224 584 q 279 613 256 607 q 329 619 302 619 q 379 613 353 619 q 426 595 405 608 q 460 563 447 583 q 473 514 473 543 m 532 1009 l 436 1009 l 345 876 l 254 1009 l 157 1009 l 328 770 l 361 770 l 532 1009 "},"Ş":{"ha":821,"x_min":54,"x_max":790,"o":"m 624 749 l 790 749 l 790 865 l 739 865 q 691 938 720 905 q 624 994 662 970 q 540 1030 587 1017 q 439 1043 494 1043 q 291 1021 355 1043 q 181 960 226 999 q 113 870 136 922 q 90 760 90 819 q 106 657 90 701 q 150 579 121 612 q 219 523 179 546 q 309 485 260 500 l 457 443 q 519 420 487 433 q 578 387 551 408 q 623 338 606 367 q 640 268 640 309 q 626 201 640 231 q 586 151 612 172 q 523 119 560 130 q 440 109 486 109 q 353 119 393 109 q 286 150 314 130 q 241 202 257 171 q 225 309 225 233 l 54 309 l 54 192 l 106 192 q 142 113 119 151 q 203 44 165 74 q 298 -4 241 14 q 433 -22 354 -22 q 575 0 511 -22 q 687 63 640 23 q 760 157 734 103 q 786 275 786 212 q 769 379 786 334 q 721 458 753 424 q 642 517 689 492 q 533 562 595 543 l 396 607 q 339 626 369 616 q 286 652 310 635 q 245 696 261 669 q 229 768 229 724 q 242 825 229 798 q 280 873 255 852 q 345 905 306 893 q 435 917 383 917 q 497 908 466 917 q 554 884 528 900 q 602 838 581 868 q 624 749 624 808 m 229 -205 l 237 -293 q 330 -279 286 -293 q 409 -238 374 -264 q 471 -172 445 -211 q 509 -83 496 -133 l 407 -53 q 387 -112 401 -84 q 350 -159 372 -139 q 297 -192 327 -180 q 229 -205 267 -205 "},"ş":{"ha":673,"x_min":56,"x_max":612,"o":"m 473 514 l 612 514 l 612 631 l 547 631 q 455 703 506 682 q 329 724 404 724 q 225 708 271 724 q 148 665 180 692 q 100 600 117 637 q 83 517 83 562 q 123 404 83 449 q 245 330 163 359 l 379 279 q 454 237 432 260 q 476 179 476 213 q 465 139 476 157 q 436 109 454 121 q 393 90 417 96 q 342 83 368 83 q 289 90 315 83 q 242 109 262 96 q 209 142 221 121 q 196 192 196 163 l 56 192 l 56 75 l 126 75 q 205 5 154 32 q 339 -21 257 -21 q 446 -6 398 -21 q 529 37 494 9 q 582 103 563 64 q 600 189 600 142 q 560 309 600 259 q 433 389 520 359 l 298 436 q 227 474 248 454 q 205 530 205 495 q 215 567 205 551 q 240 595 224 584 q 279 613 256 607 q 329 619 302 619 q 379 613 353 619 q 426 595 405 608 q 460 563 447 583 q 473 514 473 543 m 197 -205 l 205 -293 q 298 -279 254 -293 q 377 -238 342 -264 q 439 -172 413 -211 q 477 -83 465 -133 l 375 -53 q 355 -112 370 -84 q 318 -159 340 -139 q 265 -192 295 -180 q 197 -205 235 -205 "},"Ș":{"ha":821,"x_min":54,"x_max":790,"o":"m 624 749 l 790 749 l 790 865 l 739 865 q 691 938 720 905 q 624 994 662 970 q 540 1030 587 1017 q 439 1043 494 1043 q 291 1021 355 1043 q 181 960 226 999 q 113 870 136 922 q 90 760 90 819 q 106 657 90 701 q 150 579 121 612 q 219 523 179 546 q 309 485 260 500 l 457 443 q 519 420 487 433 q 578 387 551 408 q 623 338 606 367 q 640 268 640 309 q 626 201 640 231 q 586 151 612 172 q 523 119 560 130 q 440 109 486 109 q 353 119 393 109 q 286 150 314 130 q 241 202 257 171 q 225 309 225 233 l 54 309 l 54 192 l 106 192 q 142 113 119 151 q 203 44 165 74 q 298 -4 241 14 q 433 -22 354 -22 q 575 0 511 -22 q 687 63 640 23 q 760 157 734 103 q 786 275 786 212 q 769 379 786 334 q 721 458 753 424 q 642 517 689 492 q 533 562 595 543 l 396 607 q 339 626 369 616 q 286 652 310 635 q 245 696 261 669 q 229 768 229 724 q 242 825 229 798 q 280 873 255 852 q 345 905 306 893 q 435 917 383 917 q 497 908 466 917 q 554 884 528 900 q 602 838 581 868 q 624 749 624 808 m 376 -28 l 300 -285 l 397 -321 l 519 -85 l 376 -28 "},"ș":{"ha":673,"x_min":56,"x_max":612,"o":"m 473 514 l 612 514 l 612 631 l 547 631 q 455 703 506 682 q 329 724 404 724 q 225 708 271 724 q 148 665 180 692 q 100 600 117 637 q 83 517 83 562 q 123 404 83 449 q 245 330 163 359 l 379 279 q 454 237 432 260 q 476 179 476 213 q 465 139 476 157 q 436 109 454 121 q 393 90 417 96 q 342 83 368 83 q 289 90 315 83 q 242 109 262 96 q 209 142 221 121 q 196 192 196 163 l 56 192 l 56 75 l 126 75 q 205 5 154 32 q 339 -21 257 -21 q 446 -6 398 -21 q 529 37 494 9 q 582 103 563 64 q 600 189 600 142 q 560 309 600 259 q 433 389 520 359 l 298 436 q 227 474 248 454 q 205 530 205 495 q 215 567 205 551 q 240 595 224 584 q 279 613 256 607 q 329 619 302 619 q 379 613 353 619 q 426 595 405 608 q 460 563 447 583 q 473 514 473 543 m 302 -28 l 226 -285 l 323 -321 l 446 -85 l 302 -28 "},"Ţ":{"ha":972,"x_min":28,"x_max":945,"o":"m 307 117 l 307 0 l 640 0 l 640 117 l 534 117 l 534 917 l 806 917 l 806 757 l 945 757 l 945 1028 l 28 1028 l 28 757 l 167 757 l 167 917 l 401 917 l 401 117 l 307 117 m 453 -28 l 376 -285 l 474 -321 l 596 -85 l 453 -28 "},"ţ":{"ha":517,"x_min":35,"x_max":482,"o":"m 271 703 l 271 929 l 148 871 l 148 703 l 35 703 l 35 600 l 146 600 l 144 214 q 156 103 144 147 q 191 32 168 58 q 249 -6 214 5 q 329 -17 283 -17 q 414 -7 378 -17 q 482 20 450 3 l 453 104 q 406 87 427 92 q 355 82 384 82 q 308 92 329 82 q 277 127 287 102 q 268 195 268 153 l 270 600 l 436 600 l 436 703 l 271 703 m 225 -28 l 149 -285 l 246 -321 l 368 -85 l 225 -28 "},"Ť":{"ha":972,"x_min":28,"x_max":945,"o":"m 307 117 l 307 0 l 640 0 l 640 117 l 534 117 l 534 917 l 806 917 l 806 757 l 945 757 l 945 1028 l 28 1028 l 28 757 l 167 757 l 167 917 l 401 917 l 401 117 l 307 117 m 673 1334 l 578 1334 l 486 1201 l 396 1334 l 298 1334 l 469 1095 l 503 1095 l 673 1334 "},"ť":{"ha":529,"x_min":35,"x_max":494,"o":"m 271 703 l 271 929 l 148 871 l 148 703 l 35 703 l 35 600 l 146 600 l 144 214 q 156 103 144 147 q 191 32 168 58 q 249 -6 214 5 q 329 -17 283 -17 q 414 -7 378 -17 q 482 20 450 3 l 453 104 q 406 87 427 92 q 355 82 384 82 q 308 92 329 82 q 277 127 287 102 q 268 195 268 153 l 270 600 l 436 600 l 436 703 l 271 703 m 461 746 l 494 1108 l 360 1097 l 360 746 l 461 746 "},"Ù":{"ha":1057,"x_min":43,"x_max":1015,"o":"m 43 1028 l 43 911 l 137 911 l 137 435 q 167 244 137 328 q 250 104 197 161 q 373 16 302 46 q 526 -14 444 -14 q 682 17 609 -14 q 808 105 754 47 q 892 250 861 163 q 923 447 923 336 l 923 911 l 1015 911 l 1015 1028 l 682 1028 l 682 911 l 793 911 l 793 432 q 773 279 793 340 q 719 181 754 218 q 635 128 684 144 q 528 113 587 113 q 425 130 472 113 q 343 186 378 148 q 290 285 309 224 q 271 432 271 346 l 271 911 l 376 911 l 376 1028 l 43 1028 m 511 1124 l 610 1124 l 485 1326 l 317 1326 l 317 1315 l 511 1124 "},"ù":{"ha":916,"x_min":41,"x_max":795,"o":"m 491 703 l 491 586 l 585 586 l 585 158 q 499 117 545 132 q 412 102 453 102 q 304 143 342 102 q 267 265 267 184 l 267 703 l 41 703 l 41 586 l 136 586 l 136 250 q 152 132 136 182 q 198 51 168 83 q 272 3 229 18 q 368 -12 315 -12 q 487 8 431 -12 q 591 65 543 28 l 591 0 l 795 0 l 795 117 l 718 117 l 718 703 l 491 703 m 340 799 l 439 799 l 314 1002 l 146 1002 l 146 990 l 340 799 "},"Ú":{"ha":1057,"x_min":43,"x_max":1015,"o":"m 43 1028 l 43 911 l 137 911 l 137 435 q 167 244 137 328 q 250 104 197 161 q 373 16 302 46 q 526 -14 444 -14 q 682 17 609 -14 q 808 105 754 47 q 892 250 861 163 q 923 447 923 336 l 923 911 l 1015 911 l 1015 1028 l 682 1028 l 682 911 l 793 911 l 793 432 q 773 279 793 340 q 719 181 754 218 q 635 128 684 144 q 528 113 587 113 q 425 130 472 113 q 343 186 378 148 q 290 285 309 224 q 271 432 271 346 l 271 911 l 376 911 l 376 1028 l 43 1028 m 611 1326 l 467 1124 l 571 1124 l 774 1315 l 774 1326 l 611 1326 "},"ú":{"ha":916,"x_min":41,"x_max":795,"o":"m 491 703 l 491 586 l 585 586 l 585 158 q 499 117 545 132 q 412 102 453 102 q 304 143 342 102 q 267 265 267 184 l 267 703 l 41 703 l 41 586 l 136 586 l 136 250 q 152 132 136 182 q 198 51 168 83 q 272 3 229 18 q 368 -12 315 -12 q 487 8 431 -12 q 591 65 543 28 l 591 0 l 795 0 l 795 117 l 718 117 l 718 703 l 491 703 m 440 1002 l 296 799 l 400 799 l 603 990 l 603 1002 l 440 1002 "},"Û":{"ha":1057,"x_min":43,"x_max":1015,"o":"m 43 1028 l 43 911 l 137 911 l 137 435 q 167 244 137 328 q 250 104 197 161 q 373 16 302 46 q 526 -14 444 -14 q 682 17 609 -14 q 808 105 754 47 q 892 250 861 163 q 923 447 923 336 l 923 911 l 1015 911 l 1015 1028 l 682 1028 l 682 911 l 793 911 l 793 432 q 773 279 793 340 q 719 181 754 218 q 635 128 684 144 q 528 113 587 113 q 425 130 472 113 q 343 186 378 148 q 290 285 309 224 q 271 432 271 346 l 271 911 l 376 911 l 376 1028 l 43 1028 m 351 1122 l 451 1122 l 543 1227 l 633 1122 l 734 1122 l 563 1335 l 520 1335 l 351 1122 "},"û":{"ha":916,"x_min":41,"x_max":795,"o":"m 491 703 l 491 586 l 585 586 l 585 158 q 499 117 545 132 q 412 102 453 102 q 304 143 342 102 q 267 265 267 184 l 267 703 l 41 703 l 41 586 l 136 586 l 136 250 q 152 132 136 182 q 198 51 168 83 q 272 3 229 18 q 368 -12 315 -12 q 487 8 431 -12 q 591 65 543 28 l 591 0 l 795 0 l 795 117 l 718 117 l 718 703 l 491 703 m 215 798 l 315 798 l 407 903 l 497 798 l 598 798 l 427 1010 l 385 1010 l 215 798 "},"Ü":{"ha":1057,"x_min":43,"x_max":1015,"o":"m 43 1028 l 43 911 l 137 911 l 137 435 q 167 244 137 328 q 250 104 197 161 q 373 16 302 46 q 526 -14 444 -14 q 682 17 609 -14 q 808 105 754 47 q 892 250 861 163 q 923 447 923 336 l 923 911 l 1015 911 l 1015 1028 l 682 1028 l 682 911 l 793 911 l 793 432 q 773 279 793 340 q 719 181 754 218 q 635 128 684 144 q 528 113 587 113 q 425 130 472 113 q 343 186 378 148 q 290 285 309 224 q 271 432 271 346 l 271 911 l 376 911 l 376 1028 l 43 1028 m 284 1247 q 291 1213 284 1229 q 310 1184 298 1196 q 338 1164 322 1171 q 372 1157 354 1157 q 404 1164 389 1157 q 431 1184 420 1171 q 450 1213 443 1196 q 456 1247 456 1229 q 450 1281 456 1265 q 431 1309 443 1297 q 404 1328 420 1320 q 372 1335 389 1335 q 338 1328 354 1335 q 310 1309 322 1320 q 291 1281 298 1297 q 284 1247 284 1265 m 595 1247 q 603 1213 595 1229 q 622 1184 610 1196 q 649 1164 633 1171 q 683 1157 665 1157 q 715 1164 700 1157 q 742 1184 730 1171 q 761 1213 754 1196 q 768 1247 768 1229 q 761 1281 768 1265 q 742 1309 754 1297 q 715 1328 730 1320 q 683 1335 700 1335 q 649 1328 665 1335 q 622 1309 633 1320 q 603 1281 610 1297 q 595 1247 595 1265 "}}}
